%TF.GenerationSoftware,KiCad,Pcbnew,5.0.1-33cea8e~68~ubuntu16.04.1*%
%TF.CreationDate,2018-12-14T10:51:57+01:00*%
%TF.ProjectId,EVSE-Car-Simulator,455653452D4361722D53696D756C6174,rev?*%
%TF.SameCoordinates,Original*%
%TF.FileFunction,Legend,Top*%
%TF.FilePolarity,Positive*%
%FSLAX46Y46*%
G04 Gerber Fmt 4.6, Leading zero omitted, Abs format (unit mm)*
G04 Created by KiCad (PCBNEW 5.0.1-33cea8e~68~ubuntu16.04.1) date Fr 14 Dez 2018 10:51:57 CET*
%MOMM*%
%LPD*%
G01*
G04 APERTURE LIST*
%ADD10C,0.250000*%
%ADD11C,0.120000*%
%ADD12C,0.150000*%
G04 APERTURE END LIST*
D10*
X130683095Y-109672380D02*
X130683095Y-108672380D01*
X131064047Y-108672380D01*
X131159285Y-108720000D01*
X131206904Y-108767619D01*
X131254523Y-108862857D01*
X131254523Y-109005714D01*
X131206904Y-109100952D01*
X131159285Y-109148571D01*
X131064047Y-109196190D01*
X130683095Y-109196190D01*
X131683095Y-109672380D02*
X131683095Y-108672380D01*
X132064047Y-108672380D01*
X132159285Y-108720000D01*
X132206904Y-108767619D01*
X132254523Y-108862857D01*
X132254523Y-109005714D01*
X132206904Y-109100952D01*
X132159285Y-109148571D01*
X132064047Y-109196190D01*
X131683095Y-109196190D01*
X131254523Y-103227142D02*
X131206904Y-103274761D01*
X131064047Y-103322380D01*
X130968809Y-103322380D01*
X130825952Y-103274761D01*
X130730714Y-103179523D01*
X130683095Y-103084285D01*
X130635476Y-102893809D01*
X130635476Y-102750952D01*
X130683095Y-102560476D01*
X130730714Y-102465238D01*
X130825952Y-102370000D01*
X130968809Y-102322380D01*
X131064047Y-102322380D01*
X131206904Y-102370000D01*
X131254523Y-102417619D01*
X131683095Y-103322380D02*
X131683095Y-102322380D01*
X132064047Y-102322380D01*
X132159285Y-102370000D01*
X132206904Y-102417619D01*
X132254523Y-102512857D01*
X132254523Y-102655714D01*
X132206904Y-102750952D01*
X132159285Y-102798571D01*
X132064047Y-102846190D01*
X131683095Y-102846190D01*
X130730714Y-97607380D02*
X130730714Y-96607380D01*
X131111666Y-96607380D01*
X131206904Y-96655000D01*
X131254523Y-96702619D01*
X131302142Y-96797857D01*
X131302142Y-96940714D01*
X131254523Y-97035952D01*
X131206904Y-97083571D01*
X131111666Y-97131190D01*
X130730714Y-97131190D01*
X131730714Y-97083571D02*
X132064047Y-97083571D01*
X132206904Y-97607380D02*
X131730714Y-97607380D01*
X131730714Y-96607380D01*
X132206904Y-96607380D01*
D11*
X133760000Y-107270000D02*
X135480000Y-107270000D01*
X135480000Y-107270000D02*
X135480000Y-103550000D01*
X135480000Y-103550000D02*
X133760000Y-103550000D01*
X133760000Y-103550000D02*
X133760000Y-107270000D01*
X134620000Y-108340000D02*
X134620000Y-107270000D01*
X134620000Y-102480000D02*
X134620000Y-103550000D01*
X135636000Y-97910000D02*
X138296000Y-97910000D01*
X138296000Y-97910000D02*
X138296000Y-95130000D01*
X138296000Y-95130000D02*
X135636000Y-95130000D01*
X135636000Y-95130000D02*
X135636000Y-97910000D01*
X134366000Y-97910000D02*
X132976000Y-97910000D01*
X132976000Y-97910000D02*
X132976000Y-96520000D01*
X142380000Y-103590000D02*
X139560000Y-103590000D01*
X139560000Y-108070000D02*
X139690000Y-108070000D01*
X139560000Y-102750000D02*
X139560000Y-108070000D01*
X139690000Y-102750000D02*
X139560000Y-102750000D01*
X142380000Y-108070000D02*
X142250000Y-108070000D01*
X142380000Y-102750000D02*
X142380000Y-108070000D01*
X142250000Y-102750000D02*
X142380000Y-102750000D01*
X149800000Y-95190000D02*
X149800000Y-97850000D01*
X152400000Y-95190000D02*
X149800000Y-95190000D01*
X152400000Y-97850000D02*
X149800000Y-97850000D01*
X152400000Y-95190000D02*
X152400000Y-97850000D01*
X153670000Y-95190000D02*
X155000000Y-95190000D01*
X155000000Y-95190000D02*
X155000000Y-96520000D01*
X160080000Y-101660000D02*
X158750000Y-101660000D01*
X160080000Y-100330000D02*
X160080000Y-101660000D01*
X160080000Y-99060000D02*
X157420000Y-99060000D01*
X157420000Y-99060000D02*
X157420000Y-96460000D01*
X160080000Y-99060000D02*
X160080000Y-96460000D01*
X160080000Y-96460000D02*
X157420000Y-96460000D01*
X140910000Y-97850000D02*
X140910000Y-96520000D01*
X142240000Y-97850000D02*
X140910000Y-97850000D01*
X143510000Y-97850000D02*
X143510000Y-95190000D01*
X143510000Y-95190000D02*
X146110000Y-95190000D01*
X143510000Y-97850000D02*
X146110000Y-97850000D01*
X146110000Y-97850000D02*
X146110000Y-95190000D01*
X157420000Y-110550000D02*
X160080000Y-110550000D01*
X157420000Y-107950000D02*
X157420000Y-110550000D01*
X160080000Y-107950000D02*
X160080000Y-110550000D01*
X157420000Y-107950000D02*
X160080000Y-107950000D01*
X157420000Y-106680000D02*
X157420000Y-105350000D01*
X157420000Y-105350000D02*
X158750000Y-105350000D01*
X147320000Y-108340000D02*
X147320000Y-107270000D01*
X147320000Y-102480000D02*
X147320000Y-103550000D01*
X148180000Y-107270000D02*
X148180000Y-103550000D01*
X146460000Y-107270000D02*
X148180000Y-107270000D01*
X146460000Y-103550000D02*
X146460000Y-107270000D01*
X148180000Y-103550000D02*
X146460000Y-103550000D01*
X153260000Y-103550000D02*
X151540000Y-103550000D01*
X151540000Y-103550000D02*
X151540000Y-107270000D01*
X151540000Y-107270000D02*
X153260000Y-107270000D01*
X153260000Y-107270000D02*
X153260000Y-103550000D01*
X152400000Y-102480000D02*
X152400000Y-103550000D01*
X152400000Y-108340000D02*
X152400000Y-107270000D01*
D12*
X135072380Y-105576666D02*
X134596190Y-105910000D01*
X135072380Y-106148095D02*
X134072380Y-106148095D01*
X134072380Y-105767142D01*
X134120000Y-105671904D01*
X134167619Y-105624285D01*
X134262857Y-105576666D01*
X134405714Y-105576666D01*
X134500952Y-105624285D01*
X134548571Y-105671904D01*
X134596190Y-105767142D01*
X134596190Y-106148095D01*
X134072380Y-105243333D02*
X134072380Y-104624285D01*
X134453333Y-104957619D01*
X134453333Y-104814761D01*
X134500952Y-104719523D01*
X134548571Y-104671904D01*
X134643809Y-104624285D01*
X134881904Y-104624285D01*
X134977142Y-104671904D01*
X135024761Y-104719523D01*
X135072380Y-104814761D01*
X135072380Y-105100476D01*
X135024761Y-105195714D01*
X134977142Y-105243333D01*
X136977380Y-106481428D02*
X136310714Y-105957619D01*
X136310714Y-106481428D02*
X136977380Y-105957619D01*
X136977380Y-105671904D02*
X136310714Y-105148095D01*
X136310714Y-105671904D02*
X136977380Y-105148095D01*
X136977380Y-104862380D02*
X136310714Y-104338571D01*
X136310714Y-104862380D02*
X136977380Y-104338571D01*
X133421714Y-99671142D02*
X133374095Y-99718761D01*
X133231238Y-99766380D01*
X133136000Y-99766380D01*
X132993142Y-99718761D01*
X132897904Y-99623523D01*
X132850285Y-99528285D01*
X132802666Y-99337809D01*
X132802666Y-99194952D01*
X132850285Y-99004476D01*
X132897904Y-98909238D01*
X132993142Y-98814000D01*
X133136000Y-98766380D01*
X133231238Y-98766380D01*
X133374095Y-98814000D01*
X133421714Y-98861619D01*
X133850285Y-99766380D02*
X133850285Y-98766380D01*
X134231238Y-98766380D01*
X134326476Y-98814000D01*
X134374095Y-98861619D01*
X134421714Y-98956857D01*
X134421714Y-99099714D01*
X134374095Y-99194952D01*
X134326476Y-99242571D01*
X134231238Y-99290190D01*
X133850285Y-99290190D01*
X135612190Y-99766380D02*
X135612190Y-98766380D01*
X135850285Y-98766380D01*
X135993142Y-98814000D01*
X136088380Y-98909238D01*
X136136000Y-99004476D01*
X136183619Y-99194952D01*
X136183619Y-99337809D01*
X136136000Y-99528285D01*
X136088380Y-99623523D01*
X135993142Y-99718761D01*
X135850285Y-99766380D01*
X135612190Y-99766380D01*
X136612190Y-99766380D02*
X136612190Y-99099714D01*
X136612190Y-98766380D02*
X136564571Y-98814000D01*
X136612190Y-98861619D01*
X136659809Y-98814000D01*
X136612190Y-98766380D01*
X136612190Y-98861619D01*
X137516952Y-99766380D02*
X137516952Y-99242571D01*
X137469333Y-99147333D01*
X137374095Y-99099714D01*
X137183619Y-99099714D01*
X137088380Y-99147333D01*
X137516952Y-99718761D02*
X137421714Y-99766380D01*
X137183619Y-99766380D01*
X137088380Y-99718761D01*
X137040761Y-99623523D01*
X137040761Y-99528285D01*
X137088380Y-99433047D01*
X137183619Y-99385428D01*
X137421714Y-99385428D01*
X137516952Y-99337809D01*
X138421714Y-99099714D02*
X138421714Y-99909238D01*
X138374095Y-100004476D01*
X138326476Y-100052095D01*
X138231238Y-100099714D01*
X138088380Y-100099714D01*
X137993142Y-100052095D01*
X138421714Y-99718761D02*
X138326476Y-99766380D01*
X138136000Y-99766380D01*
X138040761Y-99718761D01*
X137993142Y-99671142D01*
X137945523Y-99575904D01*
X137945523Y-99290190D01*
X137993142Y-99194952D01*
X138040761Y-99147333D01*
X138136000Y-99099714D01*
X138326476Y-99099714D01*
X138421714Y-99147333D01*
X141422380Y-106148095D02*
X140422380Y-106148095D01*
X140422380Y-105910000D01*
X140470000Y-105767142D01*
X140565238Y-105671904D01*
X140660476Y-105624285D01*
X140850952Y-105576666D01*
X140993809Y-105576666D01*
X141184285Y-105624285D01*
X141279523Y-105671904D01*
X141374761Y-105767142D01*
X141422380Y-105910000D01*
X141422380Y-106148095D01*
X141422380Y-104624285D02*
X141422380Y-105195714D01*
X141422380Y-104910000D02*
X140422380Y-104910000D01*
X140565238Y-105005238D01*
X140660476Y-105100476D01*
X140708095Y-105195714D01*
X143962380Y-108187857D02*
X143962380Y-108759285D01*
X143962380Y-108473571D02*
X142962380Y-108473571D01*
X143105238Y-108568809D01*
X143200476Y-108664047D01*
X143248095Y-108759285D01*
X143962380Y-107759285D02*
X142962380Y-107759285D01*
X143962380Y-107187857D01*
X142962380Y-107187857D01*
X143295714Y-106283095D02*
X143962380Y-106283095D01*
X142914761Y-106521190D02*
X143629047Y-106759285D01*
X143629047Y-106140238D01*
X142962380Y-105568809D02*
X142962380Y-105473571D01*
X143010000Y-105378333D01*
X143057619Y-105330714D01*
X143152857Y-105283095D01*
X143343333Y-105235476D01*
X143581428Y-105235476D01*
X143771904Y-105283095D01*
X143867142Y-105330714D01*
X143914761Y-105378333D01*
X143962380Y-105473571D01*
X143962380Y-105568809D01*
X143914761Y-105664047D01*
X143867142Y-105711666D01*
X143771904Y-105759285D01*
X143581428Y-105806904D01*
X143343333Y-105806904D01*
X143152857Y-105759285D01*
X143057619Y-105711666D01*
X143010000Y-105664047D01*
X142962380Y-105568809D01*
X142962380Y-104616428D02*
X142962380Y-104521190D01*
X143010000Y-104425952D01*
X143057619Y-104378333D01*
X143152857Y-104330714D01*
X143343333Y-104283095D01*
X143581428Y-104283095D01*
X143771904Y-104330714D01*
X143867142Y-104378333D01*
X143914761Y-104425952D01*
X143962380Y-104521190D01*
X143962380Y-104616428D01*
X143914761Y-104711666D01*
X143867142Y-104759285D01*
X143771904Y-104806904D01*
X143581428Y-104854523D01*
X143343333Y-104854523D01*
X143152857Y-104806904D01*
X143057619Y-104759285D01*
X143010000Y-104711666D01*
X142962380Y-104616428D01*
X142962380Y-103949761D02*
X142962380Y-103283095D01*
X143962380Y-103711666D01*
X148256666Y-95972380D02*
X148256666Y-96686666D01*
X148209047Y-96829523D01*
X148113809Y-96924761D01*
X147970952Y-96972380D01*
X147875714Y-96972380D01*
X149256666Y-96972380D02*
X148685238Y-96972380D01*
X148970952Y-96972380D02*
X148970952Y-95972380D01*
X148875714Y-96115238D01*
X148780476Y-96210476D01*
X148685238Y-96258095D01*
X152312714Y-99369571D02*
X152646047Y-99369571D01*
X152788904Y-99893380D02*
X152312714Y-99893380D01*
X152312714Y-98893380D01*
X152788904Y-98893380D01*
X155876666Y-99782380D02*
X155876666Y-100496666D01*
X155829047Y-100639523D01*
X155733809Y-100734761D01*
X155590952Y-100782380D01*
X155495714Y-100782380D01*
X156305238Y-99877619D02*
X156352857Y-99830000D01*
X156448095Y-99782380D01*
X156686190Y-99782380D01*
X156781428Y-99830000D01*
X156829047Y-99877619D01*
X156876666Y-99972857D01*
X156876666Y-100068095D01*
X156829047Y-100210952D01*
X156257619Y-100782380D01*
X156876666Y-100782380D01*
X157488095Y-95416666D02*
X157964285Y-95416666D01*
X157392857Y-95702380D02*
X157726190Y-94702380D01*
X158059523Y-95702380D01*
X159107142Y-94654761D02*
X158250000Y-95940476D01*
X159773809Y-95178571D02*
X159916666Y-95226190D01*
X159964285Y-95273809D01*
X160011904Y-95369047D01*
X160011904Y-95511904D01*
X159964285Y-95607142D01*
X159916666Y-95654761D01*
X159821428Y-95702380D01*
X159440476Y-95702380D01*
X159440476Y-94702380D01*
X159773809Y-94702380D01*
X159869047Y-94750000D01*
X159916666Y-94797619D01*
X159964285Y-94892857D01*
X159964285Y-94988095D01*
X159916666Y-95083333D01*
X159869047Y-95130952D01*
X159773809Y-95178571D01*
X159440476Y-95178571D01*
X139576666Y-95972380D02*
X139576666Y-96686666D01*
X139529047Y-96829523D01*
X139433809Y-96924761D01*
X139290952Y-96972380D01*
X139195714Y-96972380D01*
X139957619Y-95972380D02*
X140576666Y-95972380D01*
X140243333Y-96353333D01*
X140386190Y-96353333D01*
X140481428Y-96400952D01*
X140529047Y-96448571D01*
X140576666Y-96543809D01*
X140576666Y-96781904D01*
X140529047Y-96877142D01*
X140481428Y-96924761D01*
X140386190Y-96972380D01*
X140100476Y-96972380D01*
X140005238Y-96924761D01*
X139957619Y-96877142D01*
X140890952Y-99766380D02*
X140890952Y-98766380D01*
X141129047Y-98766380D01*
X141271904Y-98814000D01*
X141367142Y-98909238D01*
X141414761Y-99004476D01*
X141462380Y-99194952D01*
X141462380Y-99337809D01*
X141414761Y-99528285D01*
X141367142Y-99623523D01*
X141271904Y-99718761D01*
X141129047Y-99766380D01*
X140890952Y-99766380D01*
X141890952Y-99385428D02*
X142652857Y-99385428D01*
X142986190Y-99099714D02*
X143367142Y-99099714D01*
X143129047Y-99766380D02*
X143129047Y-98909238D01*
X143176666Y-98814000D01*
X143271904Y-98766380D01*
X143367142Y-98766380D01*
X144129047Y-99766380D02*
X144129047Y-99242571D01*
X144081428Y-99147333D01*
X143986190Y-99099714D01*
X143795714Y-99099714D01*
X143700476Y-99147333D01*
X144129047Y-99718761D02*
X144033809Y-99766380D01*
X143795714Y-99766380D01*
X143700476Y-99718761D01*
X143652857Y-99623523D01*
X143652857Y-99528285D01*
X143700476Y-99433047D01*
X143795714Y-99385428D01*
X144033809Y-99385428D01*
X144129047Y-99337809D01*
X145033809Y-99099714D02*
X145033809Y-99766380D01*
X144605238Y-99099714D02*
X144605238Y-99623523D01*
X144652857Y-99718761D01*
X144748095Y-99766380D01*
X144890952Y-99766380D01*
X144986190Y-99718761D01*
X145033809Y-99671142D01*
X145652857Y-99766380D02*
X145557619Y-99718761D01*
X145510000Y-99623523D01*
X145510000Y-98766380D01*
X145890952Y-99099714D02*
X146271904Y-99099714D01*
X146033809Y-98766380D02*
X146033809Y-99623523D01*
X146081428Y-99718761D01*
X146176666Y-99766380D01*
X146271904Y-99766380D01*
X155876666Y-108672380D02*
X155876666Y-109386666D01*
X155829047Y-109529523D01*
X155733809Y-109624761D01*
X155590952Y-109672380D01*
X155495714Y-109672380D01*
X156781428Y-109005714D02*
X156781428Y-109672380D01*
X156543333Y-108624761D02*
X156305238Y-109339047D01*
X156924285Y-109339047D01*
X159059523Y-104370142D02*
X159011904Y-104417761D01*
X158869047Y-104465380D01*
X158773809Y-104465380D01*
X158630952Y-104417761D01*
X158535714Y-104322523D01*
X158488095Y-104227285D01*
X158440476Y-104036809D01*
X158440476Y-103893952D01*
X158488095Y-103703476D01*
X158535714Y-103608238D01*
X158630952Y-103513000D01*
X158773809Y-103465380D01*
X158869047Y-103465380D01*
X159011904Y-103513000D01*
X159059523Y-103560619D01*
X147772380Y-105576666D02*
X147296190Y-105910000D01*
X147772380Y-106148095D02*
X146772380Y-106148095D01*
X146772380Y-105767142D01*
X146820000Y-105671904D01*
X146867619Y-105624285D01*
X146962857Y-105576666D01*
X147105714Y-105576666D01*
X147200952Y-105624285D01*
X147248571Y-105671904D01*
X147296190Y-105767142D01*
X147296190Y-106148095D01*
X147772380Y-104624285D02*
X147772380Y-105195714D01*
X147772380Y-104910000D02*
X146772380Y-104910000D01*
X146915238Y-105005238D01*
X147010476Y-105100476D01*
X147058095Y-105195714D01*
X148772619Y-106576666D02*
X148725000Y-106529047D01*
X148677380Y-106433809D01*
X148677380Y-106195714D01*
X148725000Y-106100476D01*
X148772619Y-106052857D01*
X148867857Y-106005238D01*
X148963095Y-106005238D01*
X149105952Y-106052857D01*
X149677380Y-106624285D01*
X149677380Y-106005238D01*
X149677380Y-105576666D02*
X148677380Y-105576666D01*
X149296428Y-105481428D02*
X149677380Y-105195714D01*
X149010714Y-105195714D02*
X149391666Y-105576666D01*
X148677380Y-104862380D02*
X148677380Y-104195714D01*
X149677380Y-104624285D01*
X152852380Y-105576666D02*
X152376190Y-105910000D01*
X152852380Y-106148095D02*
X151852380Y-106148095D01*
X151852380Y-105767142D01*
X151900000Y-105671904D01*
X151947619Y-105624285D01*
X152042857Y-105576666D01*
X152185714Y-105576666D01*
X152280952Y-105624285D01*
X152328571Y-105671904D01*
X152376190Y-105767142D01*
X152376190Y-106148095D01*
X151947619Y-105195714D02*
X151900000Y-105148095D01*
X151852380Y-105052857D01*
X151852380Y-104814761D01*
X151900000Y-104719523D01*
X151947619Y-104671904D01*
X152042857Y-104624285D01*
X152138095Y-104624285D01*
X152280952Y-104671904D01*
X152852380Y-105243333D01*
X152852380Y-104624285D01*
X154757380Y-106005238D02*
X154757380Y-106576666D01*
X154757380Y-106290952D02*
X153757380Y-106290952D01*
X153900238Y-106386190D01*
X153995476Y-106481428D01*
X154043095Y-106576666D01*
X154757380Y-105576666D02*
X153757380Y-105576666D01*
X154376428Y-105481428D02*
X154757380Y-105195714D01*
X154090714Y-105195714D02*
X154471666Y-105576666D01*
X153852619Y-104814761D02*
X153805000Y-104767142D01*
X153757380Y-104671904D01*
X153757380Y-104433809D01*
X153805000Y-104338571D01*
X153852619Y-104290952D01*
X153947857Y-104243333D01*
X154043095Y-104243333D01*
X154185952Y-104290952D01*
X154757380Y-104862380D01*
X154757380Y-104243333D01*
M02*
