M48
;DRILL file {KiCad 5.0.1-33cea8e~68~ubuntu16.04.1} date Fr 14 Dez 2018 10:52:45 CET
;FORMAT={-:-/ absolute / inch / decimal}
FMAT,2
INCH,TZ
T1C0.0276
T2C0.0394
T3C0.0433
T4C0.0787
%
G90
G05
M72
T1
X5.8Y-4.
X5.3Y-4.
X5.3Y-4.3
X6.Y-4.
X6.Y-4.3
X5.8Y-4.3
T2
X5.95Y-3.8
X6.05Y-3.8
X6.25Y-3.85
X6.25Y-3.95
X5.6Y-3.8
X5.7Y-3.8
X5.29Y-3.8
X5.39Y-3.8
X6.25Y-4.2
X6.25Y-4.3
T3
X5.55Y-4.
X5.55Y-4.3
T4
X5.02Y-3.8138
X5.02Y-4.05
X5.02Y-4.2862
T0
M30
