%TF.GenerationSoftware,KiCad,Pcbnew,5.0.1-33cea8e~68~ubuntu16.04.1*%
%TF.CreationDate,2018-12-14T10:51:57+01:00*%
%TF.ProjectId,EVSE-Car-Simulator,455653452D4361722D53696D756C6174,rev?*%
%TF.SameCoordinates,Original*%
%TF.FileFunction,Soldermask,Bot*%
%TF.FilePolarity,Negative*%
%FSLAX46Y46*%
G04 Gerber Fmt 4.6, Leading zero omitted, Abs format (unit mm)*
G04 Created by KiCad (PCBNEW 5.0.1-33cea8e~68~ubuntu16.04.1) date Fr 14 Dez 2018 10:51:57 CET*
%MOMM*%
%LPD*%
G01*
G04 APERTURE LIST*
%ADD10C,0.100000*%
G04 APERTURE END LIST*
D10*
G36*
X128149716Y-106754544D02*
X128550090Y-106920384D01*
X128910421Y-107161150D01*
X129216850Y-107467579D01*
X129457616Y-107827910D01*
X129623456Y-108228284D01*
X129708000Y-108653317D01*
X129708000Y-109086683D01*
X129623456Y-109511716D01*
X129457616Y-109912090D01*
X129216850Y-110272421D01*
X128910421Y-110578850D01*
X128550090Y-110819616D01*
X128149716Y-110985456D01*
X127724683Y-111070000D01*
X127291317Y-111070000D01*
X126866284Y-110985456D01*
X126465910Y-110819616D01*
X126105579Y-110578850D01*
X125799150Y-110272421D01*
X125558384Y-109912090D01*
X125392544Y-109511716D01*
X125308000Y-109086683D01*
X125308000Y-108653317D01*
X125392544Y-108228284D01*
X125558384Y-107827910D01*
X125799150Y-107467579D01*
X126105579Y-107161150D01*
X126465910Y-106920384D01*
X126866284Y-106754544D01*
X127291317Y-106670000D01*
X127724683Y-106670000D01*
X128149716Y-106754544D01*
X128149716Y-106754544D01*
G37*
G36*
X141224845Y-107938810D02*
X141469896Y-108013145D01*
X141695736Y-108133860D01*
X141893687Y-108296313D01*
X142056140Y-108494264D01*
X142176855Y-108720104D01*
X142251190Y-108965155D01*
X142276290Y-109220000D01*
X142251190Y-109474845D01*
X142176855Y-109719896D01*
X142056140Y-109945736D01*
X141893687Y-110143687D01*
X141695736Y-110306140D01*
X141469896Y-110426855D01*
X141224845Y-110501190D01*
X141033864Y-110520000D01*
X140906136Y-110520000D01*
X140715155Y-110501190D01*
X140470104Y-110426855D01*
X140244264Y-110306140D01*
X140046313Y-110143687D01*
X139883860Y-109945736D01*
X139763145Y-109719896D01*
X139688810Y-109474845D01*
X139663710Y-109220000D01*
X139688810Y-108965155D01*
X139763145Y-108720104D01*
X139883860Y-108494264D01*
X140046313Y-108296313D01*
X140244264Y-108133860D01*
X140470104Y-108013145D01*
X140715155Y-107938810D01*
X140906136Y-107920000D01*
X141033864Y-107920000D01*
X141224845Y-107938810D01*
X141224845Y-107938810D01*
G37*
G36*
X158878707Y-108177597D02*
X158955836Y-108185193D01*
X159087787Y-108225220D01*
X159153763Y-108245233D01*
X159336172Y-108342733D01*
X159496054Y-108473946D01*
X159627267Y-108633828D01*
X159724767Y-108816237D01*
X159724767Y-108816238D01*
X159784807Y-109014164D01*
X159805080Y-109220000D01*
X159784807Y-109425836D01*
X159744780Y-109557787D01*
X159724767Y-109623763D01*
X159627267Y-109806172D01*
X159496054Y-109966054D01*
X159336172Y-110097267D01*
X159153763Y-110194767D01*
X159087787Y-110214780D01*
X158955836Y-110254807D01*
X158878707Y-110262404D01*
X158801580Y-110270000D01*
X158698420Y-110270000D01*
X158621293Y-110262404D01*
X158544164Y-110254807D01*
X158412213Y-110214780D01*
X158346237Y-110194767D01*
X158163828Y-110097267D01*
X158003946Y-109966054D01*
X157872733Y-109806172D01*
X157775233Y-109623763D01*
X157755220Y-109557787D01*
X157715193Y-109425836D01*
X157694920Y-109220000D01*
X157715193Y-109014164D01*
X157775233Y-108816238D01*
X157775233Y-108816237D01*
X157872733Y-108633828D01*
X158003946Y-108473946D01*
X158163828Y-108342733D01*
X158346237Y-108245233D01*
X158412213Y-108225220D01*
X158544164Y-108185193D01*
X158621293Y-108177597D01*
X158698420Y-108170000D01*
X158801580Y-108170000D01*
X158878707Y-108177597D01*
X158878707Y-108177597D01*
G37*
G36*
X152576432Y-108333022D02*
X152746081Y-108384485D01*
X152902433Y-108468056D01*
X153039475Y-108580525D01*
X153151944Y-108717567D01*
X153235515Y-108873919D01*
X153286978Y-109043568D01*
X153304354Y-109220000D01*
X153286978Y-109396432D01*
X153235515Y-109566081D01*
X153151944Y-109722433D01*
X153039475Y-109859475D01*
X152902433Y-109971944D01*
X152746081Y-110055515D01*
X152576432Y-110106978D01*
X152444211Y-110120000D01*
X152355789Y-110120000D01*
X152223568Y-110106978D01*
X152053919Y-110055515D01*
X151897567Y-109971944D01*
X151760525Y-109859475D01*
X151648056Y-109722433D01*
X151564485Y-109566081D01*
X151513022Y-109396432D01*
X151495646Y-109220000D01*
X151513022Y-109043568D01*
X151564485Y-108873919D01*
X151648056Y-108717567D01*
X151760525Y-108580525D01*
X151897567Y-108468056D01*
X152053919Y-108384485D01*
X152223568Y-108333022D01*
X152355789Y-108320000D01*
X152444211Y-108320000D01*
X152576432Y-108333022D01*
X152576432Y-108333022D01*
G37*
G36*
X147496432Y-108333022D02*
X147666081Y-108384485D01*
X147822433Y-108468056D01*
X147959475Y-108580525D01*
X148071944Y-108717567D01*
X148155515Y-108873919D01*
X148206978Y-109043568D01*
X148224354Y-109220000D01*
X148206978Y-109396432D01*
X148155515Y-109566081D01*
X148071944Y-109722433D01*
X147959475Y-109859475D01*
X147822433Y-109971944D01*
X147666081Y-110055515D01*
X147496432Y-110106978D01*
X147364211Y-110120000D01*
X147275789Y-110120000D01*
X147143568Y-110106978D01*
X146973919Y-110055515D01*
X146817567Y-109971944D01*
X146680525Y-109859475D01*
X146568056Y-109722433D01*
X146484485Y-109566081D01*
X146433022Y-109396432D01*
X146415646Y-109220000D01*
X146433022Y-109043568D01*
X146484485Y-108873919D01*
X146568056Y-108717567D01*
X146680525Y-108580525D01*
X146817567Y-108468056D01*
X146973919Y-108384485D01*
X147143568Y-108333022D01*
X147275789Y-108320000D01*
X147364211Y-108320000D01*
X147496432Y-108333022D01*
X147496432Y-108333022D01*
G37*
G36*
X134882521Y-108354586D02*
X135046309Y-108422429D01*
X135193720Y-108520926D01*
X135319074Y-108646280D01*
X135417571Y-108793691D01*
X135485414Y-108957479D01*
X135520000Y-109131356D01*
X135520000Y-109308644D01*
X135485414Y-109482521D01*
X135417571Y-109646309D01*
X135319074Y-109793720D01*
X135193720Y-109919074D01*
X135046309Y-110017571D01*
X134882521Y-110085414D01*
X134708644Y-110120000D01*
X134531356Y-110120000D01*
X134357479Y-110085414D01*
X134193691Y-110017571D01*
X134046280Y-109919074D01*
X133920926Y-109793720D01*
X133822429Y-109646309D01*
X133754586Y-109482521D01*
X133720000Y-109308644D01*
X133720000Y-109131356D01*
X133754586Y-108957479D01*
X133822429Y-108793691D01*
X133920926Y-108646280D01*
X134046280Y-108520926D01*
X134193691Y-108422429D01*
X134357479Y-108354586D01*
X134531356Y-108320000D01*
X134708644Y-108320000D01*
X134882521Y-108354586D01*
X134882521Y-108354586D01*
G37*
G36*
X159800000Y-107730000D02*
X157700000Y-107730000D01*
X157700000Y-105630000D01*
X159800000Y-105630000D01*
X159800000Y-107730000D01*
X159800000Y-107730000D01*
G37*
G36*
X128149716Y-100754544D02*
X128550090Y-100920384D01*
X128910421Y-101161150D01*
X129216850Y-101467579D01*
X129457616Y-101827910D01*
X129623456Y-102228284D01*
X129708000Y-102653317D01*
X129708000Y-103086683D01*
X129623456Y-103511716D01*
X129457616Y-103912090D01*
X129216850Y-104272421D01*
X128910421Y-104578850D01*
X128550090Y-104819616D01*
X128149716Y-104985456D01*
X127724683Y-105070000D01*
X127291317Y-105070000D01*
X126866284Y-104985456D01*
X126465910Y-104819616D01*
X126105579Y-104578850D01*
X125799150Y-104272421D01*
X125558384Y-103912090D01*
X125392544Y-103511716D01*
X125308000Y-103086683D01*
X125308000Y-102653317D01*
X125392544Y-102228284D01*
X125558384Y-101827910D01*
X125799150Y-101467579D01*
X126105579Y-101161150D01*
X126465910Y-100920384D01*
X126866284Y-100754544D01*
X127291317Y-100670000D01*
X127724683Y-100670000D01*
X128149716Y-100754544D01*
X128149716Y-100754544D01*
G37*
G36*
X142270000Y-102900000D02*
X139670000Y-102900000D01*
X139670000Y-100300000D01*
X142270000Y-100300000D01*
X142270000Y-102900000D01*
X142270000Y-102900000D01*
G37*
G36*
X152662521Y-100734586D02*
X152826309Y-100802429D01*
X152973720Y-100900926D01*
X153099074Y-101026280D01*
X153197571Y-101173691D01*
X153265414Y-101337479D01*
X153300000Y-101511356D01*
X153300000Y-101688644D01*
X153265414Y-101862521D01*
X153197571Y-102026309D01*
X153099074Y-102173720D01*
X152973720Y-102299074D01*
X152826309Y-102397571D01*
X152662521Y-102465414D01*
X152488644Y-102500000D01*
X152311356Y-102500000D01*
X152137479Y-102465414D01*
X151973691Y-102397571D01*
X151826280Y-102299074D01*
X151700926Y-102173720D01*
X151602429Y-102026309D01*
X151534586Y-101862521D01*
X151500000Y-101688644D01*
X151500000Y-101511356D01*
X151534586Y-101337479D01*
X151602429Y-101173691D01*
X151700926Y-101026280D01*
X151826280Y-100900926D01*
X151973691Y-100802429D01*
X152137479Y-100734586D01*
X152311356Y-100700000D01*
X152488644Y-100700000D01*
X152662521Y-100734586D01*
X152662521Y-100734586D01*
G37*
G36*
X134796432Y-100713022D02*
X134966081Y-100764485D01*
X135122433Y-100848056D01*
X135259475Y-100960525D01*
X135371944Y-101097567D01*
X135455515Y-101253919D01*
X135506978Y-101423568D01*
X135524354Y-101600000D01*
X135506978Y-101776432D01*
X135455515Y-101946081D01*
X135371944Y-102102433D01*
X135259475Y-102239475D01*
X135122433Y-102351944D01*
X134966081Y-102435515D01*
X134796432Y-102486978D01*
X134664211Y-102500000D01*
X134575789Y-102500000D01*
X134443568Y-102486978D01*
X134273919Y-102435515D01*
X134117567Y-102351944D01*
X133980525Y-102239475D01*
X133868056Y-102102433D01*
X133784485Y-101946081D01*
X133733022Y-101776432D01*
X133715646Y-101600000D01*
X133733022Y-101423568D01*
X133784485Y-101253919D01*
X133868056Y-101097567D01*
X133980525Y-100960525D01*
X134117567Y-100848056D01*
X134273919Y-100764485D01*
X134443568Y-100713022D01*
X134575789Y-100700000D01*
X134664211Y-100700000D01*
X134796432Y-100713022D01*
X134796432Y-100713022D01*
G37*
G36*
X147582521Y-100734586D02*
X147746309Y-100802429D01*
X147893720Y-100900926D01*
X148019074Y-101026280D01*
X148117571Y-101173691D01*
X148185414Y-101337479D01*
X148220000Y-101511356D01*
X148220000Y-101688644D01*
X148185414Y-101862521D01*
X148117571Y-102026309D01*
X148019074Y-102173720D01*
X147893720Y-102299074D01*
X147746309Y-102397571D01*
X147582521Y-102465414D01*
X147408644Y-102500000D01*
X147231356Y-102500000D01*
X147057479Y-102465414D01*
X146893691Y-102397571D01*
X146746280Y-102299074D01*
X146620926Y-102173720D01*
X146522429Y-102026309D01*
X146454586Y-101862521D01*
X146420000Y-101688644D01*
X146420000Y-101511356D01*
X146454586Y-101337479D01*
X146522429Y-101173691D01*
X146620926Y-101026280D01*
X146746280Y-100900926D01*
X146893691Y-100802429D01*
X147057479Y-100734586D01*
X147231356Y-100700000D01*
X147408644Y-100700000D01*
X147582521Y-100734586D01*
X147582521Y-100734586D01*
G37*
G36*
X159800000Y-101380000D02*
X157700000Y-101380000D01*
X157700000Y-99280000D01*
X159800000Y-99280000D01*
X159800000Y-101380000D01*
X159800000Y-101380000D01*
G37*
G36*
X128149716Y-94754544D02*
X128550090Y-94920384D01*
X128910421Y-95161150D01*
X129216850Y-95467579D01*
X129457616Y-95827910D01*
X129623456Y-96228284D01*
X129708000Y-96653317D01*
X129708000Y-97086683D01*
X129623456Y-97511716D01*
X129457616Y-97912090D01*
X129216850Y-98272421D01*
X128910421Y-98578850D01*
X128550090Y-98819616D01*
X128149716Y-98985456D01*
X127724683Y-99070000D01*
X127291317Y-99070000D01*
X126866284Y-98985456D01*
X126465910Y-98819616D01*
X126105579Y-98578850D01*
X125799150Y-98272421D01*
X125558384Y-97912090D01*
X125392544Y-97511716D01*
X125308000Y-97086683D01*
X125308000Y-96653317D01*
X125392544Y-96228284D01*
X125558384Y-95827910D01*
X125799150Y-95467579D01*
X126105579Y-95161150D01*
X126465910Y-94920384D01*
X126866284Y-94754544D01*
X127291317Y-94670000D01*
X127724683Y-94670000D01*
X128149716Y-94754544D01*
X128149716Y-94754544D01*
G37*
G36*
X158878707Y-96747596D02*
X158955836Y-96755193D01*
X159087787Y-96795220D01*
X159153763Y-96815233D01*
X159336172Y-96912733D01*
X159496054Y-97043946D01*
X159627267Y-97203828D01*
X159724767Y-97386237D01*
X159724767Y-97386238D01*
X159784807Y-97584164D01*
X159805080Y-97790000D01*
X159784807Y-97995836D01*
X159744780Y-98127787D01*
X159724767Y-98193763D01*
X159627267Y-98376172D01*
X159496054Y-98536054D01*
X159336172Y-98667267D01*
X159153763Y-98764767D01*
X159087787Y-98784780D01*
X158955836Y-98824807D01*
X158878707Y-98832403D01*
X158801580Y-98840000D01*
X158698420Y-98840000D01*
X158621293Y-98832403D01*
X158544164Y-98824807D01*
X158412213Y-98784780D01*
X158346237Y-98764767D01*
X158163828Y-98667267D01*
X158003946Y-98536054D01*
X157872733Y-98376172D01*
X157775233Y-98193763D01*
X157755220Y-98127787D01*
X157715193Y-97995836D01*
X157694920Y-97790000D01*
X157715193Y-97584164D01*
X157775233Y-97386238D01*
X157775233Y-97386237D01*
X157872733Y-97203828D01*
X158003946Y-97043946D01*
X158163828Y-96912733D01*
X158346237Y-96815233D01*
X158412213Y-96795220D01*
X158544164Y-96755193D01*
X158621293Y-96747596D01*
X158698420Y-96740000D01*
X158801580Y-96740000D01*
X158878707Y-96747596D01*
X158878707Y-96747596D01*
G37*
G36*
X154720000Y-97570000D02*
X152620000Y-97570000D01*
X152620000Y-95470000D01*
X154720000Y-95470000D01*
X154720000Y-97570000D01*
X154720000Y-97570000D01*
G37*
G36*
X151258707Y-95477597D02*
X151335836Y-95485193D01*
X151467787Y-95525220D01*
X151533763Y-95545233D01*
X151716172Y-95642733D01*
X151876054Y-95773946D01*
X152007267Y-95933828D01*
X152104767Y-96116237D01*
X152104767Y-96116238D01*
X152164807Y-96314164D01*
X152185080Y-96520000D01*
X152164807Y-96725836D01*
X152137689Y-96815233D01*
X152104767Y-96923763D01*
X152007267Y-97106172D01*
X151876054Y-97266054D01*
X151716172Y-97397267D01*
X151533763Y-97494767D01*
X151467787Y-97514780D01*
X151335836Y-97554807D01*
X151258707Y-97562403D01*
X151181580Y-97570000D01*
X151078420Y-97570000D01*
X151001293Y-97562403D01*
X150924164Y-97554807D01*
X150792213Y-97514780D01*
X150726237Y-97494767D01*
X150543828Y-97397267D01*
X150383946Y-97266054D01*
X150252733Y-97106172D01*
X150155233Y-96923763D01*
X150122311Y-96815233D01*
X150095193Y-96725836D01*
X150074920Y-96520000D01*
X150095193Y-96314164D01*
X150155233Y-96116238D01*
X150155233Y-96116237D01*
X150252733Y-95933828D01*
X150383946Y-95773946D01*
X150543828Y-95642733D01*
X150726237Y-95545233D01*
X150792213Y-95525220D01*
X150924164Y-95485193D01*
X151001293Y-95477597D01*
X151078420Y-95470000D01*
X151181580Y-95470000D01*
X151258707Y-95477597D01*
X151258707Y-95477597D01*
G37*
G36*
X135416000Y-97570000D02*
X133316000Y-97570000D01*
X133316000Y-95470000D01*
X135416000Y-95470000D01*
X135416000Y-97570000D01*
X135416000Y-97570000D01*
G37*
G36*
X144908707Y-95477597D02*
X144985836Y-95485193D01*
X145117787Y-95525220D01*
X145183763Y-95545233D01*
X145366172Y-95642733D01*
X145526054Y-95773946D01*
X145657267Y-95933828D01*
X145754767Y-96116237D01*
X145754767Y-96116238D01*
X145814807Y-96314164D01*
X145835080Y-96520000D01*
X145814807Y-96725836D01*
X145787689Y-96815233D01*
X145754767Y-96923763D01*
X145657267Y-97106172D01*
X145526054Y-97266054D01*
X145366172Y-97397267D01*
X145183763Y-97494767D01*
X145117787Y-97514780D01*
X144985836Y-97554807D01*
X144908707Y-97562403D01*
X144831580Y-97570000D01*
X144728420Y-97570000D01*
X144651293Y-97562403D01*
X144574164Y-97554807D01*
X144442213Y-97514780D01*
X144376237Y-97494767D01*
X144193828Y-97397267D01*
X144033946Y-97266054D01*
X143902733Y-97106172D01*
X143805233Y-96923763D01*
X143772311Y-96815233D01*
X143745193Y-96725836D01*
X143724920Y-96520000D01*
X143745193Y-96314164D01*
X143805233Y-96116238D01*
X143805233Y-96116237D01*
X143902733Y-95933828D01*
X144033946Y-95773946D01*
X144193828Y-95642733D01*
X144376237Y-95545233D01*
X144442213Y-95525220D01*
X144574164Y-95485193D01*
X144651293Y-95477597D01*
X144728420Y-95470000D01*
X144831580Y-95470000D01*
X144908707Y-95477597D01*
X144908707Y-95477597D01*
G37*
G36*
X143290000Y-97570000D02*
X141190000Y-97570000D01*
X141190000Y-95470000D01*
X143290000Y-95470000D01*
X143290000Y-97570000D01*
X143290000Y-97570000D01*
G37*
G36*
X137034707Y-95477597D02*
X137111836Y-95485193D01*
X137243787Y-95525220D01*
X137309763Y-95545233D01*
X137492172Y-95642733D01*
X137652054Y-95773946D01*
X137783267Y-95933828D01*
X137880767Y-96116237D01*
X137880767Y-96116238D01*
X137940807Y-96314164D01*
X137961080Y-96520000D01*
X137940807Y-96725836D01*
X137913689Y-96815233D01*
X137880767Y-96923763D01*
X137783267Y-97106172D01*
X137652054Y-97266054D01*
X137492172Y-97397267D01*
X137309763Y-97494767D01*
X137243787Y-97514780D01*
X137111836Y-97554807D01*
X137034707Y-97562403D01*
X136957580Y-97570000D01*
X136854420Y-97570000D01*
X136777293Y-97562403D01*
X136700164Y-97554807D01*
X136568213Y-97514780D01*
X136502237Y-97494767D01*
X136319828Y-97397267D01*
X136159946Y-97266054D01*
X136028733Y-97106172D01*
X135931233Y-96923763D01*
X135898311Y-96815233D01*
X135871193Y-96725836D01*
X135850920Y-96520000D01*
X135871193Y-96314164D01*
X135931233Y-96116238D01*
X135931233Y-96116237D01*
X136028733Y-95933828D01*
X136159946Y-95773946D01*
X136319828Y-95642733D01*
X136502237Y-95545233D01*
X136568213Y-95525220D01*
X136700164Y-95485193D01*
X136777293Y-95477597D01*
X136854420Y-95470000D01*
X136957580Y-95470000D01*
X137034707Y-95477597D01*
X137034707Y-95477597D01*
G37*
M02*
