M48
;DRILL file {KiCad 4.0.6} date 2017 September 02, Saturday 21:35:41
;FORMAT={2:4/ absolute / inch / suppress leading zeros}
FMAT,2
INCH,TZ
T1C0.016
T2C0.028
T3C0.039
T4C0.043
%
G90
G05
M72
T1
X56200Y-39000
X60500Y-39000
T2
X53000Y-40000
X53000Y-43000
X55000Y-40000
X55000Y-43000
X57000Y-40000
X57000Y-43000
T3
X50000Y-38000
X50000Y-40500
X50000Y-41500
X50000Y-42500
X52500Y-38000
X55000Y-38000
X56000Y-38000
X58500Y-38000
X59500Y-38000
X62500Y-38000
X62500Y-39000
X62500Y-42000
X62500Y-43000
T4
X59500Y-40000
X59500Y-43000
T0
M30
