M48
;DRILL file {KiCad 4.0.6} date 2018 January 14, Sunday 15:25:11
;FORMAT={2:4/ absolute / inch / suppress leading zeros}
FMAT,2
INCH,TZ
T1C0.016
T2C0.028
T3C0.039
T4C0.043
T5C0.079
%
G90
G05
M72
T1
X55900Y-39000
X57000Y-40000
X60500Y-39000
T2
X53000Y-40000
X53000Y-43000
X55000Y-40000
X55000Y-43000
X57000Y-40000
X57000Y-43000
T3
X52900Y-38000
X53900Y-38000
X55700Y-38000
X56700Y-38000
X58500Y-38000
X59500Y-38000
X62500Y-38000
X62500Y-39000
X62500Y-42000
X62500Y-43000
T4
X59500Y-40000
X59500Y-43000
T5
X50200Y-38138
X50200Y-40500
X50200Y-42862
T0
M30
