G04 #@! TF.FileFunction,Legend,Top*
%FSLAX46Y46*%
G04 Gerber Fmt 4.6, Leading zero omitted, Abs format (unit mm)*
G04 Created by KiCad (PCBNEW 4.0.6) date 2017 September 14, Thursday 21:16:53*
%MOMM*%
%LPD*%
G01*
G04 APERTURE LIST*
%ADD10C,0.100000*%
%ADD11C,0.250000*%
%ADD12C,0.120000*%
%ADD13C,0.150000*%
G04 APERTURE END LIST*
D10*
D11*
X130302095Y-110688381D02*
X130302095Y-109688381D01*
X130683048Y-109688381D01*
X130778286Y-109736000D01*
X130825905Y-109783619D01*
X130873524Y-109878857D01*
X130873524Y-110021714D01*
X130825905Y-110116952D01*
X130778286Y-110164571D01*
X130683048Y-110212190D01*
X130302095Y-110212190D01*
X131302095Y-110688381D02*
X131302095Y-109688381D01*
X131683048Y-109688381D01*
X131778286Y-109736000D01*
X131825905Y-109783619D01*
X131873524Y-109878857D01*
X131873524Y-110021714D01*
X131825905Y-110116952D01*
X131778286Y-110164571D01*
X131683048Y-110212190D01*
X131302095Y-110212190D01*
X130619524Y-105005143D02*
X130571905Y-105052762D01*
X130429048Y-105100381D01*
X130333810Y-105100381D01*
X130190952Y-105052762D01*
X130095714Y-104957524D01*
X130048095Y-104862286D01*
X130000476Y-104671810D01*
X130000476Y-104528952D01*
X130048095Y-104338476D01*
X130095714Y-104243238D01*
X130190952Y-104148000D01*
X130333810Y-104100381D01*
X130429048Y-104100381D01*
X130571905Y-104148000D01*
X130619524Y-104195619D01*
X131048095Y-105100381D02*
X131048095Y-104100381D01*
X131429048Y-104100381D01*
X131524286Y-104148000D01*
X131571905Y-104195619D01*
X131619524Y-104290857D01*
X131619524Y-104433714D01*
X131571905Y-104528952D01*
X131524286Y-104576571D01*
X131429048Y-104624190D01*
X131048095Y-104624190D01*
X125015714Y-99766381D02*
X125015714Y-98766381D01*
X125396667Y-98766381D01*
X125491905Y-98814000D01*
X125539524Y-98861619D01*
X125587143Y-98956857D01*
X125587143Y-99099714D01*
X125539524Y-99194952D01*
X125491905Y-99242571D01*
X125396667Y-99290190D01*
X125015714Y-99290190D01*
X126015714Y-99242571D02*
X126349048Y-99242571D01*
X126491905Y-99766381D02*
X126015714Y-99766381D01*
X126015714Y-98766381D01*
X126491905Y-98766381D01*
D12*
X149850000Y-108070000D02*
X149720000Y-108070000D01*
X149720000Y-108070000D02*
X149720000Y-102750000D01*
X149720000Y-102750000D02*
X149850000Y-102750000D01*
X152410000Y-108070000D02*
X152540000Y-108070000D01*
X152540000Y-108070000D02*
X152540000Y-102750000D01*
X152540000Y-102750000D02*
X152410000Y-102750000D01*
X149720000Y-107230000D02*
X152540000Y-107230000D01*
X145348000Y-97850000D02*
X145348000Y-95190000D01*
X142748000Y-97850000D02*
X145348000Y-97850000D01*
X142748000Y-95190000D02*
X145348000Y-95190000D01*
X142748000Y-97850000D02*
X142748000Y-95190000D01*
X141478000Y-97850000D02*
X140148000Y-97850000D01*
X140148000Y-97850000D02*
X140148000Y-96520000D01*
X160080000Y-95190000D02*
X157420000Y-95190000D01*
X160080000Y-97790000D02*
X160080000Y-95190000D01*
X157420000Y-97790000D02*
X157420000Y-95190000D01*
X160080000Y-97790000D02*
X157420000Y-97790000D01*
X160080000Y-99060000D02*
X160080000Y-100390000D01*
X160080000Y-100390000D02*
X158750000Y-100390000D01*
X147260000Y-95190000D02*
X147260000Y-97850000D01*
X149860000Y-95190000D02*
X147260000Y-95190000D01*
X149860000Y-97850000D02*
X147260000Y-97850000D01*
X149860000Y-95190000D02*
X149860000Y-97850000D01*
X151130000Y-95190000D02*
X152460000Y-95190000D01*
X152460000Y-95190000D02*
X152460000Y-96520000D01*
X160080000Y-105350000D02*
X157420000Y-105350000D01*
X160080000Y-107950000D02*
X160080000Y-105350000D01*
X157420000Y-107950000D02*
X157420000Y-105350000D01*
X160080000Y-107950000D02*
X157420000Y-107950000D01*
X160080000Y-109220000D02*
X160080000Y-110550000D01*
X160080000Y-110550000D02*
X158750000Y-110550000D01*
X135576000Y-95190000D02*
X135576000Y-97850000D01*
X135636000Y-95190000D02*
X135576000Y-95190000D01*
X135636000Y-97850000D02*
X135576000Y-97850000D01*
X135636000Y-95190000D02*
X135636000Y-97850000D01*
X136906000Y-95190000D02*
X138236000Y-95190000D01*
X138236000Y-95190000D02*
X138236000Y-96520000D01*
X131004000Y-95190000D02*
X131004000Y-97850000D01*
X131064000Y-95190000D02*
X131004000Y-95190000D01*
X131064000Y-97850000D02*
X131004000Y-97850000D01*
X131064000Y-95190000D02*
X131064000Y-97850000D01*
X132334000Y-95190000D02*
X133664000Y-95190000D01*
X133664000Y-95190000D02*
X133664000Y-96520000D01*
X138840000Y-107270000D02*
X140560000Y-107270000D01*
X140560000Y-107270000D02*
X140560000Y-103550000D01*
X140560000Y-103550000D02*
X138840000Y-103550000D01*
X138840000Y-103550000D02*
X138840000Y-107270000D01*
X139700000Y-108340000D02*
X139700000Y-107270000D01*
X139700000Y-102480000D02*
X139700000Y-103550000D01*
X143920000Y-107270000D02*
X145640000Y-107270000D01*
X145640000Y-107270000D02*
X145640000Y-103550000D01*
X145640000Y-103550000D02*
X143920000Y-103550000D01*
X143920000Y-103550000D02*
X143920000Y-107270000D01*
X144780000Y-108340000D02*
X144780000Y-107270000D01*
X144780000Y-102480000D02*
X144780000Y-103550000D01*
X133760000Y-107270000D02*
X135480000Y-107270000D01*
X135480000Y-107270000D02*
X135480000Y-103550000D01*
X135480000Y-103550000D02*
X133760000Y-103550000D01*
X133760000Y-103550000D02*
X133760000Y-107270000D01*
X134620000Y-108340000D02*
X134620000Y-107270000D01*
X134620000Y-102480000D02*
X134620000Y-103550000D01*
D13*
X149296381Y-105894095D02*
X148296381Y-105894095D01*
X148296381Y-105656000D01*
X148344000Y-105513142D01*
X148439238Y-105417904D01*
X148534476Y-105370285D01*
X148724952Y-105322666D01*
X148867810Y-105322666D01*
X149058286Y-105370285D01*
X149153524Y-105417904D01*
X149248762Y-105513142D01*
X149296381Y-105656000D01*
X149296381Y-105894095D01*
X149296381Y-104370285D02*
X149296381Y-104941714D01*
X149296381Y-104656000D02*
X148296381Y-104656000D01*
X148439238Y-104751238D01*
X148534476Y-104846476D01*
X148582095Y-104941714D01*
X153992381Y-107552857D02*
X153992381Y-108124286D01*
X153992381Y-107838572D02*
X152992381Y-107838572D01*
X153135238Y-107933810D01*
X153230476Y-108029048D01*
X153278095Y-108124286D01*
X153992381Y-107124286D02*
X152992381Y-107124286D01*
X153992381Y-106552857D01*
X152992381Y-106552857D01*
X153325714Y-105648095D02*
X153992381Y-105648095D01*
X152944762Y-105886191D02*
X153659048Y-106124286D01*
X153659048Y-105505238D01*
X152992381Y-104933810D02*
X152992381Y-104838571D01*
X153040000Y-104743333D01*
X153087619Y-104695714D01*
X153182857Y-104648095D01*
X153373333Y-104600476D01*
X153611429Y-104600476D01*
X153801905Y-104648095D01*
X153897143Y-104695714D01*
X153944762Y-104743333D01*
X153992381Y-104838571D01*
X153992381Y-104933810D01*
X153944762Y-105029048D01*
X153897143Y-105076667D01*
X153801905Y-105124286D01*
X153611429Y-105171905D01*
X153373333Y-105171905D01*
X153182857Y-105124286D01*
X153087619Y-105076667D01*
X153040000Y-105029048D01*
X152992381Y-104933810D01*
X152992381Y-103981429D02*
X152992381Y-103886190D01*
X153040000Y-103790952D01*
X153087619Y-103743333D01*
X153182857Y-103695714D01*
X153373333Y-103648095D01*
X153611429Y-103648095D01*
X153801905Y-103695714D01*
X153897143Y-103743333D01*
X153944762Y-103790952D01*
X153992381Y-103886190D01*
X153992381Y-103981429D01*
X153944762Y-104076667D01*
X153897143Y-104124286D01*
X153801905Y-104171905D01*
X153611429Y-104219524D01*
X153373333Y-104219524D01*
X153182857Y-104171905D01*
X153087619Y-104124286D01*
X153040000Y-104076667D01*
X152992381Y-103981429D01*
X152992381Y-103314762D02*
X152992381Y-102648095D01*
X153992381Y-103076667D01*
X140128952Y-99512381D02*
X140128952Y-98512381D01*
X140367047Y-98512381D01*
X140509905Y-98560000D01*
X140605143Y-98655238D01*
X140652762Y-98750476D01*
X140700381Y-98940952D01*
X140700381Y-99083810D01*
X140652762Y-99274286D01*
X140605143Y-99369524D01*
X140509905Y-99464762D01*
X140367047Y-99512381D01*
X140128952Y-99512381D01*
X141128952Y-99131429D02*
X141890857Y-99131429D01*
X142224190Y-98845714D02*
X142605142Y-98845714D01*
X142367047Y-99512381D02*
X142367047Y-98655238D01*
X142414666Y-98560000D01*
X142509904Y-98512381D01*
X142605142Y-98512381D01*
X143367048Y-99512381D02*
X143367048Y-98988571D01*
X143319429Y-98893333D01*
X143224191Y-98845714D01*
X143033714Y-98845714D01*
X142938476Y-98893333D01*
X143367048Y-99464762D02*
X143271810Y-99512381D01*
X143033714Y-99512381D01*
X142938476Y-99464762D01*
X142890857Y-99369524D01*
X142890857Y-99274286D01*
X142938476Y-99179048D01*
X143033714Y-99131429D01*
X143271810Y-99131429D01*
X143367048Y-99083810D01*
X144271810Y-98845714D02*
X144271810Y-99512381D01*
X143843238Y-98845714D02*
X143843238Y-99369524D01*
X143890857Y-99464762D01*
X143986095Y-99512381D01*
X144128953Y-99512381D01*
X144224191Y-99464762D01*
X144271810Y-99417143D01*
X144890857Y-99512381D02*
X144795619Y-99464762D01*
X144748000Y-99369524D01*
X144748000Y-98512381D01*
X145128953Y-98845714D02*
X145509905Y-98845714D01*
X145271810Y-98512381D02*
X145271810Y-99369524D01*
X145319429Y-99464762D01*
X145414667Y-99512381D01*
X145509905Y-99512381D01*
X155884571Y-101885334D02*
X155884571Y-101552000D01*
X156408381Y-101409143D02*
X156408381Y-101885334D01*
X155408381Y-101885334D01*
X155408381Y-101409143D01*
X155408381Y-101123429D02*
X156408381Y-100790096D01*
X155408381Y-100456762D01*
X156408381Y-98932952D02*
X155408381Y-98932952D01*
X156360762Y-98932952D02*
X156408381Y-99028190D01*
X156408381Y-99218667D01*
X156360762Y-99313905D01*
X156313143Y-99361524D01*
X156217905Y-99409143D01*
X155932190Y-99409143D01*
X155836952Y-99361524D01*
X155789333Y-99313905D01*
X155741714Y-99218667D01*
X155741714Y-99028190D01*
X155789333Y-98932952D01*
X156360762Y-98075809D02*
X156408381Y-98171047D01*
X156408381Y-98361524D01*
X156360762Y-98456762D01*
X156265524Y-98504381D01*
X155884571Y-98504381D01*
X155789333Y-98456762D01*
X155741714Y-98361524D01*
X155741714Y-98171047D01*
X155789333Y-98075809D01*
X155884571Y-98028190D01*
X155979810Y-98028190D01*
X156075048Y-98504381D01*
X155741714Y-97742476D02*
X155741714Y-97361524D01*
X155408381Y-97599619D02*
X156265524Y-97599619D01*
X156360762Y-97552000D01*
X156408381Y-97456762D01*
X156408381Y-97361524D01*
X156360762Y-96647237D02*
X156408381Y-96742475D01*
X156408381Y-96932952D01*
X156360762Y-97028190D01*
X156265524Y-97075809D01*
X155884571Y-97075809D01*
X155789333Y-97028190D01*
X155741714Y-96932952D01*
X155741714Y-96742475D01*
X155789333Y-96647237D01*
X155884571Y-96599618D01*
X155979810Y-96599618D01*
X156075048Y-97075809D01*
X156360762Y-95742475D02*
X156408381Y-95837713D01*
X156408381Y-96028190D01*
X156360762Y-96123428D01*
X156313143Y-96171047D01*
X156217905Y-96218666D01*
X155932190Y-96218666D01*
X155836952Y-96171047D01*
X155789333Y-96123428D01*
X155741714Y-96028190D01*
X155741714Y-95837713D01*
X155789333Y-95742475D01*
X155741714Y-95456761D02*
X155741714Y-95075809D01*
X155408381Y-95313904D02*
X156265524Y-95313904D01*
X156360762Y-95266285D01*
X156408381Y-95171047D01*
X156408381Y-95075809D01*
X147383809Y-99417143D02*
X147336190Y-99464762D01*
X147193333Y-99512381D01*
X147098095Y-99512381D01*
X146955237Y-99464762D01*
X146859999Y-99369524D01*
X146812380Y-99274286D01*
X146764761Y-99083810D01*
X146764761Y-98940952D01*
X146812380Y-98750476D01*
X146859999Y-98655238D01*
X146955237Y-98560000D01*
X147098095Y-98512381D01*
X147193333Y-98512381D01*
X147336190Y-98560000D01*
X147383809Y-98607619D01*
X147812380Y-99512381D02*
X147812380Y-98512381D01*
X148193333Y-98512381D01*
X148288571Y-98560000D01*
X148336190Y-98607619D01*
X148383809Y-98702857D01*
X148383809Y-98845714D01*
X148336190Y-98940952D01*
X148288571Y-98988571D01*
X148193333Y-99036190D01*
X147812380Y-99036190D01*
X149526666Y-99464762D02*
X149621904Y-99512381D01*
X149812380Y-99512381D01*
X149907619Y-99464762D01*
X149955238Y-99369524D01*
X149955238Y-99321905D01*
X149907619Y-99226667D01*
X149812380Y-99179048D01*
X149669523Y-99179048D01*
X149574285Y-99131429D01*
X149526666Y-99036190D01*
X149526666Y-98988571D01*
X149574285Y-98893333D01*
X149669523Y-98845714D01*
X149812380Y-98845714D01*
X149907619Y-98893333D01*
X150383809Y-99512381D02*
X150383809Y-98512381D01*
X150812381Y-99512381D02*
X150812381Y-98988571D01*
X150764762Y-98893333D01*
X150669524Y-98845714D01*
X150526666Y-98845714D01*
X150431428Y-98893333D01*
X150383809Y-98940952D01*
X151431428Y-99512381D02*
X151336190Y-99464762D01*
X151288571Y-99417143D01*
X151240952Y-99321905D01*
X151240952Y-99036190D01*
X151288571Y-98940952D01*
X151336190Y-98893333D01*
X151431428Y-98845714D01*
X151574286Y-98845714D01*
X151669524Y-98893333D01*
X151717143Y-98940952D01*
X151764762Y-99036190D01*
X151764762Y-99321905D01*
X151717143Y-99417143D01*
X151669524Y-99464762D01*
X151574286Y-99512381D01*
X151431428Y-99512381D01*
X152193333Y-99512381D02*
X152193333Y-98845714D01*
X152193333Y-99036190D02*
X152240952Y-98940952D01*
X152288571Y-98893333D01*
X152383809Y-98845714D01*
X152479048Y-98845714D01*
X152669524Y-98845714D02*
X153050476Y-98845714D01*
X152812381Y-98512381D02*
X152812381Y-99369524D01*
X152860000Y-99464762D01*
X152955238Y-99512381D01*
X153050476Y-99512381D01*
X155884571Y-110743620D02*
X155884571Y-110410286D01*
X156408381Y-110267429D02*
X156408381Y-110743620D01*
X155408381Y-110743620D01*
X155408381Y-110267429D01*
X155408381Y-109981715D02*
X156408381Y-109648382D01*
X155408381Y-109315048D01*
X156408381Y-108219810D02*
X155741714Y-108219810D01*
X155932190Y-108219810D02*
X155836952Y-108172191D01*
X155789333Y-108124572D01*
X155741714Y-108029334D01*
X155741714Y-107934095D01*
X156360762Y-107219809D02*
X156408381Y-107315047D01*
X156408381Y-107505524D01*
X156360762Y-107600762D01*
X156265524Y-107648381D01*
X155884571Y-107648381D01*
X155789333Y-107600762D01*
X155741714Y-107505524D01*
X155741714Y-107315047D01*
X155789333Y-107219809D01*
X155884571Y-107172190D01*
X155979810Y-107172190D01*
X156075048Y-107648381D01*
X156408381Y-106315047D02*
X155884571Y-106315047D01*
X155789333Y-106362666D01*
X155741714Y-106457904D01*
X155741714Y-106648381D01*
X155789333Y-106743619D01*
X156360762Y-106315047D02*
X156408381Y-106410285D01*
X156408381Y-106648381D01*
X156360762Y-106743619D01*
X156265524Y-106791238D01*
X156170286Y-106791238D01*
X156075048Y-106743619D01*
X156027429Y-106648381D01*
X156027429Y-106410285D01*
X155979810Y-106315047D01*
X156408381Y-105410285D02*
X155408381Y-105410285D01*
X156360762Y-105410285D02*
X156408381Y-105505523D01*
X156408381Y-105696000D01*
X156360762Y-105791238D01*
X156313143Y-105838857D01*
X156217905Y-105886476D01*
X155932190Y-105886476D01*
X155836952Y-105838857D01*
X155789333Y-105791238D01*
X155741714Y-105696000D01*
X155741714Y-105505523D01*
X155789333Y-105410285D01*
X155741714Y-105029333D02*
X156408381Y-104791238D01*
X155741714Y-104553142D02*
X156408381Y-104791238D01*
X156646476Y-104886476D01*
X156694095Y-104934095D01*
X156741714Y-105029333D01*
X135596477Y-99417143D02*
X135548858Y-99464762D01*
X135406001Y-99512381D01*
X135310763Y-99512381D01*
X135167905Y-99464762D01*
X135072667Y-99369524D01*
X135025048Y-99274286D01*
X134977429Y-99083810D01*
X134977429Y-98940952D01*
X135025048Y-98750476D01*
X135072667Y-98655238D01*
X135167905Y-98560000D01*
X135310763Y-98512381D01*
X135406001Y-98512381D01*
X135548858Y-98560000D01*
X135596477Y-98607619D01*
X136025048Y-99512381D02*
X136025048Y-98512381D01*
X136406001Y-98512381D01*
X136501239Y-98560000D01*
X136548858Y-98607619D01*
X136596477Y-98702857D01*
X136596477Y-98845714D01*
X136548858Y-98940952D01*
X136501239Y-98988571D01*
X136406001Y-99036190D01*
X136025048Y-99036190D01*
X137025048Y-99131429D02*
X137786953Y-99131429D01*
X138263143Y-99512381D02*
X138263143Y-98512381D01*
X138501238Y-98512381D01*
X138644096Y-98560000D01*
X138739334Y-98655238D01*
X138786953Y-98750476D01*
X138834572Y-98940952D01*
X138834572Y-99083810D01*
X138786953Y-99274286D01*
X138739334Y-99369524D01*
X138644096Y-99464762D01*
X138501238Y-99512381D01*
X138263143Y-99512381D01*
X130500667Y-99512381D02*
X130500667Y-98512381D01*
X130881620Y-98512381D01*
X130976858Y-98560000D01*
X131024477Y-98607619D01*
X131072096Y-98702857D01*
X131072096Y-98845714D01*
X131024477Y-98940952D01*
X130976858Y-98988571D01*
X130881620Y-99036190D01*
X130500667Y-99036190D01*
X131500667Y-98988571D02*
X131834001Y-98988571D01*
X131976858Y-99512381D02*
X131500667Y-99512381D01*
X131500667Y-98512381D01*
X131976858Y-98512381D01*
X132405429Y-99131429D02*
X133167334Y-99131429D01*
X133643524Y-99512381D02*
X133643524Y-98512381D01*
X133881619Y-98512381D01*
X134024477Y-98560000D01*
X134119715Y-98655238D01*
X134167334Y-98750476D01*
X134214953Y-98940952D01*
X134214953Y-99083810D01*
X134167334Y-99274286D01*
X134119715Y-99369524D01*
X134024477Y-99464762D01*
X133881619Y-99512381D01*
X133643524Y-99512381D01*
X142184381Y-105322666D02*
X141708190Y-105656000D01*
X142184381Y-105894095D02*
X141184381Y-105894095D01*
X141184381Y-105513142D01*
X141232000Y-105417904D01*
X141279619Y-105370285D01*
X141374857Y-105322666D01*
X141517714Y-105322666D01*
X141612952Y-105370285D01*
X141660571Y-105417904D01*
X141708190Y-105513142D01*
X141708190Y-105894095D01*
X142184381Y-104370285D02*
X142184381Y-104941714D01*
X142184381Y-104656000D02*
X141184381Y-104656000D01*
X141327238Y-104751238D01*
X141422476Y-104846476D01*
X141470095Y-104941714D01*
X139247619Y-106576667D02*
X139200000Y-106529048D01*
X139152381Y-106433810D01*
X139152381Y-106195714D01*
X139200000Y-106100476D01*
X139247619Y-106052857D01*
X139342857Y-106005238D01*
X139438095Y-106005238D01*
X139580952Y-106052857D01*
X140152381Y-106624286D01*
X140152381Y-106005238D01*
X140152381Y-105576667D02*
X139152381Y-105576667D01*
X139771429Y-105481429D02*
X140152381Y-105195714D01*
X139485714Y-105195714D02*
X139866667Y-105576667D01*
X139152381Y-104862381D02*
X139152381Y-104195714D01*
X140152381Y-104624286D01*
X147264381Y-105322666D02*
X146788190Y-105656000D01*
X147264381Y-105894095D02*
X146264381Y-105894095D01*
X146264381Y-105513142D01*
X146312000Y-105417904D01*
X146359619Y-105370285D01*
X146454857Y-105322666D01*
X146597714Y-105322666D01*
X146692952Y-105370285D01*
X146740571Y-105417904D01*
X146788190Y-105513142D01*
X146788190Y-105894095D01*
X146359619Y-104941714D02*
X146312000Y-104894095D01*
X146264381Y-104798857D01*
X146264381Y-104560761D01*
X146312000Y-104465523D01*
X146359619Y-104417904D01*
X146454857Y-104370285D01*
X146550095Y-104370285D01*
X146692952Y-104417904D01*
X147264381Y-104989333D01*
X147264381Y-104370285D01*
X145232381Y-106005238D02*
X145232381Y-106576667D01*
X145232381Y-106290953D02*
X144232381Y-106290953D01*
X144375238Y-106386191D01*
X144470476Y-106481429D01*
X144518095Y-106576667D01*
X145232381Y-105576667D02*
X144232381Y-105576667D01*
X144851429Y-105481429D02*
X145232381Y-105195714D01*
X144565714Y-105195714D02*
X144946667Y-105576667D01*
X144327619Y-104814762D02*
X144280000Y-104767143D01*
X144232381Y-104671905D01*
X144232381Y-104433809D01*
X144280000Y-104338571D01*
X144327619Y-104290952D01*
X144422857Y-104243333D01*
X144518095Y-104243333D01*
X144660952Y-104290952D01*
X145232381Y-104862381D01*
X145232381Y-104243333D01*
X137104381Y-105322666D02*
X136628190Y-105656000D01*
X137104381Y-105894095D02*
X136104381Y-105894095D01*
X136104381Y-105513142D01*
X136152000Y-105417904D01*
X136199619Y-105370285D01*
X136294857Y-105322666D01*
X136437714Y-105322666D01*
X136532952Y-105370285D01*
X136580571Y-105417904D01*
X136628190Y-105513142D01*
X136628190Y-105894095D01*
X136104381Y-104989333D02*
X136104381Y-104370285D01*
X136485333Y-104703619D01*
X136485333Y-104560761D01*
X136532952Y-104465523D01*
X136580571Y-104417904D01*
X136675810Y-104370285D01*
X136913905Y-104370285D01*
X137009143Y-104417904D01*
X137056762Y-104465523D01*
X137104381Y-104560761D01*
X137104381Y-104846476D01*
X137056762Y-104941714D01*
X137009143Y-104989333D01*
X135072381Y-106481429D02*
X134405714Y-105957619D01*
X134405714Y-106481429D02*
X135072381Y-105957619D01*
X135072381Y-105671905D02*
X134405714Y-105148095D01*
X134405714Y-105671905D02*
X135072381Y-105148095D01*
X135072381Y-104862381D02*
X134405714Y-104338571D01*
X134405714Y-104862381D02*
X135072381Y-104338571D01*
X125182381Y-106251333D02*
X125896667Y-106251333D01*
X126039524Y-106298953D01*
X126134762Y-106394191D01*
X126182381Y-106537048D01*
X126182381Y-106632286D01*
X125182381Y-105298952D02*
X125182381Y-105775143D01*
X125658571Y-105822762D01*
X125610952Y-105775143D01*
X125563333Y-105679905D01*
X125563333Y-105441809D01*
X125610952Y-105346571D01*
X125658571Y-105298952D01*
X125753810Y-105251333D01*
X125991905Y-105251333D01*
X126087143Y-105298952D01*
X126134762Y-105346571D01*
X126182381Y-105441809D01*
X126182381Y-105679905D01*
X126134762Y-105775143D01*
X126087143Y-105822762D01*
M02*
