G04 #@! TF.FileFunction,Copper,L2,Bot,Signal*
%FSLAX46Y46*%
G04 Gerber Fmt 4.6, Leading zero omitted, Abs format (unit mm)*
G04 Created by KiCad (PCBNEW 4.0.6) date 2017 September 02, Saturday 18:37:12*
%MOMM*%
%LPD*%
G01*
G04 APERTURE LIST*
%ADD10C,0.100000*%
%ADD11C,0.200000*%
%ADD12R,2.200000X2.200000*%
%ADD13O,2.200000X2.200000*%
%ADD14R,1.700000X1.700000*%
%ADD15O,1.700000X1.700000*%
%ADD16C,1.400000*%
%ADD17O,1.400000X1.400000*%
%ADD18C,0.600000*%
%ADD19C,0.500000*%
%ADD20C,0.254000*%
G04 APERTURE END LIST*
D10*
D11*
X130306857Y-99250476D02*
X130306857Y-99517143D01*
X130725905Y-99631429D02*
X130725905Y-99250476D01*
X129925905Y-99250476D01*
X129925905Y-99631429D01*
X129925905Y-99860000D02*
X130725905Y-100126667D01*
X129925905Y-100393334D01*
X130687810Y-100621905D02*
X130725905Y-100698095D01*
X130725905Y-100850476D01*
X130687810Y-100926667D01*
X130611619Y-100964762D01*
X130573524Y-100964762D01*
X130497333Y-100926667D01*
X130459238Y-100850476D01*
X130459238Y-100736191D01*
X130421143Y-100660000D01*
X130344952Y-100621905D01*
X130306857Y-100621905D01*
X130230667Y-100660000D01*
X130192571Y-100736191D01*
X130192571Y-100850476D01*
X130230667Y-100926667D01*
X130725905Y-101307619D02*
X130192571Y-101307619D01*
X129925905Y-101307619D02*
X129964000Y-101269524D01*
X130002095Y-101307619D01*
X129964000Y-101345714D01*
X129925905Y-101307619D01*
X130002095Y-101307619D01*
X130725905Y-101688571D02*
X130192571Y-101688571D01*
X130268762Y-101688571D02*
X130230667Y-101726666D01*
X130192571Y-101802857D01*
X130192571Y-101917143D01*
X130230667Y-101993333D01*
X130306857Y-102031428D01*
X130725905Y-102031428D01*
X130306857Y-102031428D02*
X130230667Y-102069524D01*
X130192571Y-102145714D01*
X130192571Y-102260000D01*
X130230667Y-102336190D01*
X130306857Y-102374285D01*
X130725905Y-102374285D01*
X130192571Y-103288572D02*
X130725905Y-103479048D01*
X130192571Y-103669524D01*
X129925905Y-104126667D02*
X129925905Y-104202858D01*
X129964000Y-104279048D01*
X130002095Y-104317143D01*
X130078286Y-104355239D01*
X130230667Y-104393334D01*
X130421143Y-104393334D01*
X130573524Y-104355239D01*
X130649714Y-104317143D01*
X130687810Y-104279048D01*
X130725905Y-104202858D01*
X130725905Y-104126667D01*
X130687810Y-104050477D01*
X130649714Y-104012381D01*
X130573524Y-103974286D01*
X130421143Y-103936191D01*
X130230667Y-103936191D01*
X130078286Y-103974286D01*
X130002095Y-104012381D01*
X129964000Y-104050477D01*
X129925905Y-104126667D01*
X130649714Y-104736191D02*
X130687810Y-104774286D01*
X130725905Y-104736191D01*
X130687810Y-104698096D01*
X130649714Y-104736191D01*
X130725905Y-104736191D01*
X130725905Y-105536191D02*
X130725905Y-105079048D01*
X130725905Y-105307619D02*
X129925905Y-105307619D01*
X130040190Y-105231429D01*
X130116381Y-105155238D01*
X130154476Y-105079048D01*
X132125905Y-99250476D02*
X131325905Y-99250476D01*
X131897333Y-99517143D01*
X131325905Y-99783810D01*
X132125905Y-99783810D01*
X132125905Y-100507619D02*
X131706857Y-100507619D01*
X131630667Y-100469524D01*
X131592571Y-100393334D01*
X131592571Y-100240953D01*
X131630667Y-100164762D01*
X132087810Y-100507619D02*
X132125905Y-100431429D01*
X132125905Y-100240953D01*
X132087810Y-100164762D01*
X132011619Y-100126667D01*
X131935429Y-100126667D01*
X131859238Y-100164762D01*
X131821143Y-100240953D01*
X131821143Y-100431429D01*
X131783048Y-100507619D01*
X131592571Y-100774286D02*
X131592571Y-101079048D01*
X131325905Y-100888572D02*
X132011619Y-100888572D01*
X132087810Y-100926667D01*
X132125905Y-101002858D01*
X132125905Y-101079048D01*
X132125905Y-101345715D02*
X131325905Y-101345715D01*
X132125905Y-101688572D02*
X131706857Y-101688572D01*
X131630667Y-101650477D01*
X131592571Y-101574287D01*
X131592571Y-101460001D01*
X131630667Y-101383810D01*
X131668762Y-101345715D01*
X132125905Y-102069525D02*
X131592571Y-102069525D01*
X131325905Y-102069525D02*
X131364000Y-102031430D01*
X131402095Y-102069525D01*
X131364000Y-102107620D01*
X131325905Y-102069525D01*
X131402095Y-102069525D01*
X132125905Y-102793334D02*
X131706857Y-102793334D01*
X131630667Y-102755239D01*
X131592571Y-102679049D01*
X131592571Y-102526668D01*
X131630667Y-102450477D01*
X132087810Y-102793334D02*
X132125905Y-102717144D01*
X132125905Y-102526668D01*
X132087810Y-102450477D01*
X132011619Y-102412382D01*
X131935429Y-102412382D01*
X131859238Y-102450477D01*
X131821143Y-102526668D01*
X131821143Y-102717144D01*
X131783048Y-102793334D01*
X132087810Y-103136192D02*
X132125905Y-103212382D01*
X132125905Y-103364763D01*
X132087810Y-103440954D01*
X132011619Y-103479049D01*
X131973524Y-103479049D01*
X131897333Y-103440954D01*
X131859238Y-103364763D01*
X131859238Y-103250478D01*
X131821143Y-103174287D01*
X131744952Y-103136192D01*
X131706857Y-103136192D01*
X131630667Y-103174287D01*
X131592571Y-103250478D01*
X131592571Y-103364763D01*
X131630667Y-103440954D01*
X132125905Y-104431430D02*
X131325905Y-104431430D01*
X131325905Y-104621906D01*
X131364000Y-104736192D01*
X131440190Y-104812383D01*
X131516381Y-104850478D01*
X131668762Y-104888573D01*
X131783048Y-104888573D01*
X131935429Y-104850478D01*
X132011619Y-104812383D01*
X132087810Y-104736192D01*
X132125905Y-104621906D01*
X132125905Y-104431430D01*
X132125905Y-105574287D02*
X131706857Y-105574287D01*
X131630667Y-105536192D01*
X131592571Y-105460002D01*
X131592571Y-105307621D01*
X131630667Y-105231430D01*
X132087810Y-105574287D02*
X132125905Y-105498097D01*
X132125905Y-105307621D01*
X132087810Y-105231430D01*
X132011619Y-105193335D01*
X131935429Y-105193335D01*
X131859238Y-105231430D01*
X131821143Y-105307621D01*
X131821143Y-105498097D01*
X131783048Y-105574287D01*
X132125905Y-106069526D02*
X132087810Y-105993335D01*
X132011619Y-105955240D01*
X131325905Y-105955240D01*
X132125905Y-106374288D02*
X131325905Y-106374288D01*
X132125905Y-106717145D02*
X131706857Y-106717145D01*
X131630667Y-106679050D01*
X131592571Y-106602860D01*
X131592571Y-106488574D01*
X131630667Y-106412383D01*
X131668762Y-106374288D01*
X132087810Y-107402860D02*
X132125905Y-107326670D01*
X132125905Y-107174289D01*
X132087810Y-107098098D01*
X132011619Y-107060003D01*
X131706857Y-107060003D01*
X131630667Y-107098098D01*
X131592571Y-107174289D01*
X131592571Y-107326670D01*
X131630667Y-107402860D01*
X131706857Y-107440955D01*
X131783048Y-107440955D01*
X131859238Y-107060003D01*
X132125905Y-107783812D02*
X131592571Y-107783812D01*
X131325905Y-107783812D02*
X131364000Y-107745717D01*
X131402095Y-107783812D01*
X131364000Y-107821907D01*
X131325905Y-107783812D01*
X131402095Y-107783812D01*
X132125905Y-108164764D02*
X131592571Y-108164764D01*
X131668762Y-108164764D02*
X131630667Y-108202859D01*
X131592571Y-108279050D01*
X131592571Y-108393336D01*
X131630667Y-108469526D01*
X131706857Y-108507621D01*
X132125905Y-108507621D01*
X131706857Y-108507621D02*
X131630667Y-108545717D01*
X131592571Y-108621907D01*
X131592571Y-108736193D01*
X131630667Y-108812383D01*
X131706857Y-108850478D01*
X132125905Y-108850478D01*
X132087810Y-109536193D02*
X132125905Y-109460003D01*
X132125905Y-109307622D01*
X132087810Y-109231431D01*
X132011619Y-109193336D01*
X131706857Y-109193336D01*
X131630667Y-109231431D01*
X131592571Y-109307622D01*
X131592571Y-109460003D01*
X131630667Y-109536193D01*
X131706857Y-109574288D01*
X131783048Y-109574288D01*
X131859238Y-109193336D01*
X132125905Y-109917145D02*
X131592571Y-109917145D01*
X131744952Y-109917145D02*
X131668762Y-109955240D01*
X131630667Y-109993336D01*
X131592571Y-110069526D01*
X131592571Y-110145717D01*
D12*
X151130000Y-109220000D03*
D13*
X151130000Y-101600000D03*
D14*
X139700000Y-96520000D03*
D15*
X142240000Y-96520000D03*
D14*
X158750000Y-99060000D03*
D15*
X158750000Y-96520000D03*
D14*
X151130000Y-96520000D03*
D15*
X148590000Y-96520000D03*
D14*
X158750000Y-109220000D03*
D15*
X158750000Y-106680000D03*
D14*
X127000000Y-102870000D03*
D15*
X127000000Y-105410000D03*
X127000000Y-107950000D03*
D14*
X133350000Y-96520000D03*
X127000000Y-96520000D03*
D16*
X139700000Y-109220000D03*
D17*
X139700000Y-101600000D03*
D16*
X144780000Y-109220000D03*
D17*
X144780000Y-101600000D03*
D16*
X134620000Y-109220000D03*
D17*
X134620000Y-101600000D03*
D18*
X142748000Y-99060000D03*
X153670000Y-99060000D03*
D19*
X158750000Y-106680000D02*
X158750000Y-104140000D01*
X158750000Y-104140000D02*
X153670000Y-99060000D01*
X148590000Y-99060000D02*
X148590000Y-96520000D01*
X142748000Y-99060000D02*
X148590000Y-99060000D01*
X148590000Y-99060000D02*
X153670000Y-99060000D01*
D20*
G36*
X160580000Y-111050000D02*
X125170000Y-111050000D01*
X125170000Y-105410000D01*
X125485907Y-105410000D01*
X125598946Y-105978285D01*
X125920853Y-106460054D01*
X126250026Y-106680000D01*
X125920853Y-106899946D01*
X125598946Y-107381715D01*
X125485907Y-107950000D01*
X125598946Y-108518285D01*
X125920853Y-109000054D01*
X126402622Y-109321961D01*
X126970907Y-109435000D01*
X127029093Y-109435000D01*
X127597378Y-109321961D01*
X128079147Y-109000054D01*
X128401054Y-108518285D01*
X128514093Y-107950000D01*
X128401054Y-107381715D01*
X128079147Y-106899946D01*
X127749974Y-106680000D01*
X128079147Y-106460054D01*
X128401054Y-105978285D01*
X128514093Y-105410000D01*
X128401054Y-104841715D01*
X128079147Y-104359946D01*
X128035223Y-104330597D01*
X128209698Y-104258327D01*
X128388327Y-104079699D01*
X128485000Y-103846310D01*
X128485000Y-103155750D01*
X128326250Y-102997000D01*
X127127000Y-102997000D01*
X127127000Y-103017000D01*
X126873000Y-103017000D01*
X126873000Y-102997000D01*
X125673750Y-102997000D01*
X125515000Y-103155750D01*
X125515000Y-103846310D01*
X125611673Y-104079699D01*
X125790302Y-104258327D01*
X125964777Y-104330597D01*
X125920853Y-104359946D01*
X125598946Y-104841715D01*
X125485907Y-105410000D01*
X125170000Y-105410000D01*
X125170000Y-101893690D01*
X125515000Y-101893690D01*
X125515000Y-102584250D01*
X125673750Y-102743000D01*
X126873000Y-102743000D01*
X126873000Y-101543750D01*
X127127000Y-101543750D01*
X127127000Y-102743000D01*
X128326250Y-102743000D01*
X128485000Y-102584250D01*
X128485000Y-101893690D01*
X128388327Y-101660301D01*
X128209698Y-101481673D01*
X127976309Y-101385000D01*
X127285750Y-101385000D01*
X127127000Y-101543750D01*
X126873000Y-101543750D01*
X126714250Y-101385000D01*
X126023691Y-101385000D01*
X125790302Y-101481673D01*
X125611673Y-101660301D01*
X125515000Y-101893690D01*
X125170000Y-101893690D01*
X125170000Y-98425000D01*
X129069000Y-98425000D01*
X129069000Y-110856907D01*
X133139000Y-110856907D01*
X133139000Y-109484383D01*
X133284769Y-109484383D01*
X133487582Y-109975229D01*
X133862796Y-110351098D01*
X134353287Y-110554768D01*
X134884383Y-110555231D01*
X135375229Y-110352418D01*
X135751098Y-109977204D01*
X135954768Y-109486713D01*
X135954770Y-109484383D01*
X138364769Y-109484383D01*
X138567582Y-109975229D01*
X138942796Y-110351098D01*
X139433287Y-110554768D01*
X139964383Y-110555231D01*
X140455229Y-110352418D01*
X140831098Y-109977204D01*
X141034768Y-109486713D01*
X141034770Y-109484383D01*
X143444769Y-109484383D01*
X143647582Y-109975229D01*
X144022796Y-110351098D01*
X144513287Y-110554768D01*
X145044383Y-110555231D01*
X145535229Y-110352418D01*
X145911098Y-109977204D01*
X146106863Y-109505750D01*
X149395000Y-109505750D01*
X149395000Y-110446309D01*
X149491673Y-110679698D01*
X149670301Y-110858327D01*
X149903690Y-110955000D01*
X150844250Y-110955000D01*
X151003000Y-110796250D01*
X151003000Y-109347000D01*
X151257000Y-109347000D01*
X151257000Y-110796250D01*
X151415750Y-110955000D01*
X152356310Y-110955000D01*
X152589699Y-110858327D01*
X152768327Y-110679698D01*
X152865000Y-110446309D01*
X152865000Y-109505750D01*
X152706250Y-109347000D01*
X151257000Y-109347000D01*
X151003000Y-109347000D01*
X149553750Y-109347000D01*
X149395000Y-109505750D01*
X146106863Y-109505750D01*
X146114768Y-109486713D01*
X146115231Y-108955617D01*
X145912418Y-108464771D01*
X145537204Y-108088902D01*
X145307911Y-107993691D01*
X149395000Y-107993691D01*
X149395000Y-108934250D01*
X149553750Y-109093000D01*
X151003000Y-109093000D01*
X151003000Y-107643750D01*
X151257000Y-107643750D01*
X151257000Y-109093000D01*
X152706250Y-109093000D01*
X152865000Y-108934250D01*
X152865000Y-107993691D01*
X152768327Y-107760302D01*
X152589699Y-107581673D01*
X152356310Y-107485000D01*
X151415750Y-107485000D01*
X151257000Y-107643750D01*
X151003000Y-107643750D01*
X150844250Y-107485000D01*
X149903690Y-107485000D01*
X149670301Y-107581673D01*
X149491673Y-107760302D01*
X149395000Y-107993691D01*
X145307911Y-107993691D01*
X145046713Y-107885232D01*
X144515617Y-107884769D01*
X144024771Y-108087582D01*
X143648902Y-108462796D01*
X143445232Y-108953287D01*
X143444769Y-109484383D01*
X141034770Y-109484383D01*
X141035231Y-108955617D01*
X140832418Y-108464771D01*
X140457204Y-108088902D01*
X139966713Y-107885232D01*
X139435617Y-107884769D01*
X138944771Y-108087582D01*
X138568902Y-108462796D01*
X138365232Y-108953287D01*
X138364769Y-109484383D01*
X135954770Y-109484383D01*
X135955231Y-108955617D01*
X135752418Y-108464771D01*
X135377204Y-108088902D01*
X134886713Y-107885232D01*
X134355617Y-107884769D01*
X133864771Y-108087582D01*
X133488902Y-108462796D01*
X133285232Y-108953287D01*
X133284769Y-109484383D01*
X133139000Y-109484383D01*
X133139000Y-101933331D01*
X133327273Y-101933331D01*
X133553236Y-102402663D01*
X133941604Y-102749797D01*
X134286671Y-102892716D01*
X134493000Y-102769374D01*
X134493000Y-101727000D01*
X134747000Y-101727000D01*
X134747000Y-102769374D01*
X134953329Y-102892716D01*
X135298396Y-102749797D01*
X135686764Y-102402663D01*
X135912727Y-101933331D01*
X135790206Y-101727000D01*
X134747000Y-101727000D01*
X134493000Y-101727000D01*
X133449794Y-101727000D01*
X133327273Y-101933331D01*
X133139000Y-101933331D01*
X133139000Y-101573846D01*
X138365000Y-101573846D01*
X138365000Y-101626154D01*
X138466621Y-102137036D01*
X138756012Y-102570142D01*
X139189118Y-102859533D01*
X139700000Y-102961154D01*
X140210882Y-102859533D01*
X140643988Y-102570142D01*
X140933379Y-102137036D01*
X141035000Y-101626154D01*
X141035000Y-101573846D01*
X143445000Y-101573846D01*
X143445000Y-101626154D01*
X143546621Y-102137036D01*
X143836012Y-102570142D01*
X144269118Y-102859533D01*
X144780000Y-102961154D01*
X145290882Y-102859533D01*
X145723988Y-102570142D01*
X146013379Y-102137036D01*
X146115000Y-101626154D01*
X146115000Y-101573846D01*
X146013379Y-101062964D01*
X145723988Y-100629858D01*
X145290882Y-100340467D01*
X144780000Y-100238846D01*
X144269118Y-100340467D01*
X143836012Y-100629858D01*
X143546621Y-101062964D01*
X143445000Y-101573846D01*
X141035000Y-101573846D01*
X140933379Y-101062964D01*
X140643988Y-100629858D01*
X140210882Y-100340467D01*
X139700000Y-100238846D01*
X139189118Y-100340467D01*
X138756012Y-100629858D01*
X138466621Y-101062964D01*
X138365000Y-101573846D01*
X133139000Y-101573846D01*
X133139000Y-101266669D01*
X133327273Y-101266669D01*
X133449794Y-101473000D01*
X134493000Y-101473000D01*
X134493000Y-100430626D01*
X134747000Y-100430626D01*
X134747000Y-101473000D01*
X135790206Y-101473000D01*
X135912727Y-101266669D01*
X135686764Y-100797337D01*
X135298396Y-100450203D01*
X134953329Y-100307284D01*
X134747000Y-100430626D01*
X134493000Y-100430626D01*
X134286671Y-100307284D01*
X133941604Y-100450203D01*
X133553236Y-100797337D01*
X133327273Y-101266669D01*
X133139000Y-101266669D01*
X133139000Y-99245167D01*
X141812838Y-99245167D01*
X141954883Y-99588943D01*
X142217673Y-99852192D01*
X142561201Y-99994838D01*
X142933167Y-99995162D01*
X143054569Y-99945000D01*
X150556928Y-99945000D01*
X150466044Y-99963078D01*
X149903170Y-100339179D01*
X149527069Y-100902053D01*
X149395000Y-101566009D01*
X149395000Y-101633991D01*
X149527069Y-102297947D01*
X149903170Y-102860821D01*
X150466044Y-103236922D01*
X151130000Y-103368991D01*
X151793956Y-103236922D01*
X152356830Y-102860821D01*
X152732931Y-102297947D01*
X152865000Y-101633991D01*
X152865000Y-101566009D01*
X152732931Y-100902053D01*
X152356830Y-100339179D01*
X151793956Y-99963078D01*
X151703072Y-99945000D01*
X153303420Y-99945000D01*
X157865000Y-104506579D01*
X157865000Y-105500221D01*
X157670853Y-105629946D01*
X157348946Y-106111715D01*
X157235907Y-106680000D01*
X157348946Y-107248285D01*
X157670853Y-107730054D01*
X157712452Y-107757850D01*
X157664683Y-107766838D01*
X157448559Y-107905910D01*
X157303569Y-108118110D01*
X157252560Y-108370000D01*
X157252560Y-110070000D01*
X157296838Y-110305317D01*
X157435910Y-110521441D01*
X157648110Y-110666431D01*
X157900000Y-110717440D01*
X159600000Y-110717440D01*
X159835317Y-110673162D01*
X160051441Y-110534090D01*
X160196431Y-110321890D01*
X160247440Y-110070000D01*
X160247440Y-108370000D01*
X160203162Y-108134683D01*
X160064090Y-107918559D01*
X159851890Y-107773569D01*
X159784459Y-107759914D01*
X159829147Y-107730054D01*
X160151054Y-107248285D01*
X160264093Y-106680000D01*
X160151054Y-106111715D01*
X159829147Y-105629946D01*
X159635000Y-105500221D01*
X159635000Y-104140005D01*
X159635001Y-104140000D01*
X159567633Y-103801326D01*
X159567633Y-103801325D01*
X159375790Y-103514210D01*
X159375787Y-103514208D01*
X154512744Y-98651164D01*
X154463117Y-98531057D01*
X154200327Y-98267808D01*
X153856799Y-98125162D01*
X153484833Y-98124838D01*
X153363431Y-98175000D01*
X149475000Y-98175000D01*
X149475000Y-97709432D01*
X149640054Y-97599147D01*
X149667850Y-97557548D01*
X149676838Y-97605317D01*
X149815910Y-97821441D01*
X150028110Y-97966431D01*
X150280000Y-98017440D01*
X151980000Y-98017440D01*
X152215317Y-97973162D01*
X152431441Y-97834090D01*
X152576431Y-97621890D01*
X152627440Y-97370000D01*
X152627440Y-96520000D01*
X157235907Y-96520000D01*
X157348946Y-97088285D01*
X157670853Y-97570054D01*
X157712452Y-97597850D01*
X157664683Y-97606838D01*
X157448559Y-97745910D01*
X157303569Y-97958110D01*
X157252560Y-98210000D01*
X157252560Y-99910000D01*
X157296838Y-100145317D01*
X157435910Y-100361441D01*
X157648110Y-100506431D01*
X157900000Y-100557440D01*
X159600000Y-100557440D01*
X159835317Y-100513162D01*
X160051441Y-100374090D01*
X160196431Y-100161890D01*
X160247440Y-99910000D01*
X160247440Y-98210000D01*
X160203162Y-97974683D01*
X160064090Y-97758559D01*
X159851890Y-97613569D01*
X159784459Y-97599914D01*
X159829147Y-97570054D01*
X160151054Y-97088285D01*
X160264093Y-96520000D01*
X160151054Y-95951715D01*
X159829147Y-95469946D01*
X159347378Y-95148039D01*
X158779093Y-95035000D01*
X158720907Y-95035000D01*
X158152622Y-95148039D01*
X157670853Y-95469946D01*
X157348946Y-95951715D01*
X157235907Y-96520000D01*
X152627440Y-96520000D01*
X152627440Y-95670000D01*
X152583162Y-95434683D01*
X152444090Y-95218559D01*
X152231890Y-95073569D01*
X151980000Y-95022560D01*
X150280000Y-95022560D01*
X150044683Y-95066838D01*
X149828559Y-95205910D01*
X149683569Y-95418110D01*
X149669914Y-95485541D01*
X149640054Y-95440853D01*
X149158285Y-95118946D01*
X148590000Y-95005907D01*
X148021715Y-95118946D01*
X147539946Y-95440853D01*
X147218039Y-95922622D01*
X147105000Y-96490907D01*
X147105000Y-96549093D01*
X147218039Y-97117378D01*
X147539946Y-97599147D01*
X147705000Y-97709432D01*
X147705000Y-98175000D01*
X143054822Y-98175000D01*
X142934799Y-98125162D01*
X142562833Y-98124838D01*
X142219057Y-98266883D01*
X141955808Y-98529673D01*
X141813162Y-98873201D01*
X141812838Y-99245167D01*
X133139000Y-99245167D01*
X133139000Y-98425000D01*
X129069000Y-98425000D01*
X125170000Y-98425000D01*
X125170000Y-96805750D01*
X125515000Y-96805750D01*
X125515000Y-97496310D01*
X125611673Y-97729699D01*
X125790302Y-97908327D01*
X126023691Y-98005000D01*
X126714250Y-98005000D01*
X126873000Y-97846250D01*
X126873000Y-96647000D01*
X127127000Y-96647000D01*
X127127000Y-97846250D01*
X127285750Y-98005000D01*
X127976309Y-98005000D01*
X128209698Y-97908327D01*
X128388327Y-97729699D01*
X128485000Y-97496310D01*
X128485000Y-96805750D01*
X128326250Y-96647000D01*
X127127000Y-96647000D01*
X126873000Y-96647000D01*
X125673750Y-96647000D01*
X125515000Y-96805750D01*
X125170000Y-96805750D01*
X125170000Y-95543690D01*
X125515000Y-95543690D01*
X125515000Y-96234250D01*
X125673750Y-96393000D01*
X126873000Y-96393000D01*
X126873000Y-95193750D01*
X127127000Y-95193750D01*
X127127000Y-96393000D01*
X128326250Y-96393000D01*
X128485000Y-96234250D01*
X128485000Y-95670000D01*
X131852560Y-95670000D01*
X131852560Y-97370000D01*
X131896838Y-97605317D01*
X132035910Y-97821441D01*
X132248110Y-97966431D01*
X132500000Y-98017440D01*
X134200000Y-98017440D01*
X134435317Y-97973162D01*
X134651441Y-97834090D01*
X134796431Y-97621890D01*
X134847440Y-97370000D01*
X134847440Y-96805750D01*
X138215000Y-96805750D01*
X138215000Y-97496309D01*
X138311673Y-97729698D01*
X138490301Y-97908327D01*
X138723690Y-98005000D01*
X139414250Y-98005000D01*
X139573000Y-97846250D01*
X139573000Y-96647000D01*
X138373750Y-96647000D01*
X138215000Y-96805750D01*
X134847440Y-96805750D01*
X134847440Y-95670000D01*
X134823674Y-95543691D01*
X138215000Y-95543691D01*
X138215000Y-96234250D01*
X138373750Y-96393000D01*
X139573000Y-96393000D01*
X139573000Y-95193750D01*
X139827000Y-95193750D01*
X139827000Y-96393000D01*
X139847000Y-96393000D01*
X139847000Y-96647000D01*
X139827000Y-96647000D01*
X139827000Y-97846250D01*
X139985750Y-98005000D01*
X140676310Y-98005000D01*
X140909699Y-97908327D01*
X141088327Y-97729698D01*
X141160597Y-97555223D01*
X141189946Y-97599147D01*
X141671715Y-97921054D01*
X142240000Y-98034093D01*
X142808285Y-97921054D01*
X143290054Y-97599147D01*
X143611961Y-97117378D01*
X143725000Y-96549093D01*
X143725000Y-96490907D01*
X143611961Y-95922622D01*
X143290054Y-95440853D01*
X142808285Y-95118946D01*
X142240000Y-95005907D01*
X141671715Y-95118946D01*
X141189946Y-95440853D01*
X141160597Y-95484777D01*
X141088327Y-95310302D01*
X140909699Y-95131673D01*
X140676310Y-95035000D01*
X139985750Y-95035000D01*
X139827000Y-95193750D01*
X139573000Y-95193750D01*
X139414250Y-95035000D01*
X138723690Y-95035000D01*
X138490301Y-95131673D01*
X138311673Y-95310302D01*
X138215000Y-95543691D01*
X134823674Y-95543691D01*
X134803162Y-95434683D01*
X134664090Y-95218559D01*
X134451890Y-95073569D01*
X134200000Y-95022560D01*
X132500000Y-95022560D01*
X132264683Y-95066838D01*
X132048559Y-95205910D01*
X131903569Y-95418110D01*
X131852560Y-95670000D01*
X128485000Y-95670000D01*
X128485000Y-95543690D01*
X128388327Y-95310301D01*
X128209698Y-95131673D01*
X127976309Y-95035000D01*
X127285750Y-95035000D01*
X127127000Y-95193750D01*
X126873000Y-95193750D01*
X126714250Y-95035000D01*
X126023691Y-95035000D01*
X125790302Y-95131673D01*
X125611673Y-95310301D01*
X125515000Y-95543690D01*
X125170000Y-95543690D01*
X125170000Y-94690000D01*
X160580000Y-94690000D01*
X160580000Y-111050000D01*
X160580000Y-111050000D01*
G37*
X160580000Y-111050000D02*
X125170000Y-111050000D01*
X125170000Y-105410000D01*
X125485907Y-105410000D01*
X125598946Y-105978285D01*
X125920853Y-106460054D01*
X126250026Y-106680000D01*
X125920853Y-106899946D01*
X125598946Y-107381715D01*
X125485907Y-107950000D01*
X125598946Y-108518285D01*
X125920853Y-109000054D01*
X126402622Y-109321961D01*
X126970907Y-109435000D01*
X127029093Y-109435000D01*
X127597378Y-109321961D01*
X128079147Y-109000054D01*
X128401054Y-108518285D01*
X128514093Y-107950000D01*
X128401054Y-107381715D01*
X128079147Y-106899946D01*
X127749974Y-106680000D01*
X128079147Y-106460054D01*
X128401054Y-105978285D01*
X128514093Y-105410000D01*
X128401054Y-104841715D01*
X128079147Y-104359946D01*
X128035223Y-104330597D01*
X128209698Y-104258327D01*
X128388327Y-104079699D01*
X128485000Y-103846310D01*
X128485000Y-103155750D01*
X128326250Y-102997000D01*
X127127000Y-102997000D01*
X127127000Y-103017000D01*
X126873000Y-103017000D01*
X126873000Y-102997000D01*
X125673750Y-102997000D01*
X125515000Y-103155750D01*
X125515000Y-103846310D01*
X125611673Y-104079699D01*
X125790302Y-104258327D01*
X125964777Y-104330597D01*
X125920853Y-104359946D01*
X125598946Y-104841715D01*
X125485907Y-105410000D01*
X125170000Y-105410000D01*
X125170000Y-101893690D01*
X125515000Y-101893690D01*
X125515000Y-102584250D01*
X125673750Y-102743000D01*
X126873000Y-102743000D01*
X126873000Y-101543750D01*
X127127000Y-101543750D01*
X127127000Y-102743000D01*
X128326250Y-102743000D01*
X128485000Y-102584250D01*
X128485000Y-101893690D01*
X128388327Y-101660301D01*
X128209698Y-101481673D01*
X127976309Y-101385000D01*
X127285750Y-101385000D01*
X127127000Y-101543750D01*
X126873000Y-101543750D01*
X126714250Y-101385000D01*
X126023691Y-101385000D01*
X125790302Y-101481673D01*
X125611673Y-101660301D01*
X125515000Y-101893690D01*
X125170000Y-101893690D01*
X125170000Y-98425000D01*
X129069000Y-98425000D01*
X129069000Y-110856907D01*
X133139000Y-110856907D01*
X133139000Y-109484383D01*
X133284769Y-109484383D01*
X133487582Y-109975229D01*
X133862796Y-110351098D01*
X134353287Y-110554768D01*
X134884383Y-110555231D01*
X135375229Y-110352418D01*
X135751098Y-109977204D01*
X135954768Y-109486713D01*
X135954770Y-109484383D01*
X138364769Y-109484383D01*
X138567582Y-109975229D01*
X138942796Y-110351098D01*
X139433287Y-110554768D01*
X139964383Y-110555231D01*
X140455229Y-110352418D01*
X140831098Y-109977204D01*
X141034768Y-109486713D01*
X141034770Y-109484383D01*
X143444769Y-109484383D01*
X143647582Y-109975229D01*
X144022796Y-110351098D01*
X144513287Y-110554768D01*
X145044383Y-110555231D01*
X145535229Y-110352418D01*
X145911098Y-109977204D01*
X146106863Y-109505750D01*
X149395000Y-109505750D01*
X149395000Y-110446309D01*
X149491673Y-110679698D01*
X149670301Y-110858327D01*
X149903690Y-110955000D01*
X150844250Y-110955000D01*
X151003000Y-110796250D01*
X151003000Y-109347000D01*
X151257000Y-109347000D01*
X151257000Y-110796250D01*
X151415750Y-110955000D01*
X152356310Y-110955000D01*
X152589699Y-110858327D01*
X152768327Y-110679698D01*
X152865000Y-110446309D01*
X152865000Y-109505750D01*
X152706250Y-109347000D01*
X151257000Y-109347000D01*
X151003000Y-109347000D01*
X149553750Y-109347000D01*
X149395000Y-109505750D01*
X146106863Y-109505750D01*
X146114768Y-109486713D01*
X146115231Y-108955617D01*
X145912418Y-108464771D01*
X145537204Y-108088902D01*
X145307911Y-107993691D01*
X149395000Y-107993691D01*
X149395000Y-108934250D01*
X149553750Y-109093000D01*
X151003000Y-109093000D01*
X151003000Y-107643750D01*
X151257000Y-107643750D01*
X151257000Y-109093000D01*
X152706250Y-109093000D01*
X152865000Y-108934250D01*
X152865000Y-107993691D01*
X152768327Y-107760302D01*
X152589699Y-107581673D01*
X152356310Y-107485000D01*
X151415750Y-107485000D01*
X151257000Y-107643750D01*
X151003000Y-107643750D01*
X150844250Y-107485000D01*
X149903690Y-107485000D01*
X149670301Y-107581673D01*
X149491673Y-107760302D01*
X149395000Y-107993691D01*
X145307911Y-107993691D01*
X145046713Y-107885232D01*
X144515617Y-107884769D01*
X144024771Y-108087582D01*
X143648902Y-108462796D01*
X143445232Y-108953287D01*
X143444769Y-109484383D01*
X141034770Y-109484383D01*
X141035231Y-108955617D01*
X140832418Y-108464771D01*
X140457204Y-108088902D01*
X139966713Y-107885232D01*
X139435617Y-107884769D01*
X138944771Y-108087582D01*
X138568902Y-108462796D01*
X138365232Y-108953287D01*
X138364769Y-109484383D01*
X135954770Y-109484383D01*
X135955231Y-108955617D01*
X135752418Y-108464771D01*
X135377204Y-108088902D01*
X134886713Y-107885232D01*
X134355617Y-107884769D01*
X133864771Y-108087582D01*
X133488902Y-108462796D01*
X133285232Y-108953287D01*
X133284769Y-109484383D01*
X133139000Y-109484383D01*
X133139000Y-101933331D01*
X133327273Y-101933331D01*
X133553236Y-102402663D01*
X133941604Y-102749797D01*
X134286671Y-102892716D01*
X134493000Y-102769374D01*
X134493000Y-101727000D01*
X134747000Y-101727000D01*
X134747000Y-102769374D01*
X134953329Y-102892716D01*
X135298396Y-102749797D01*
X135686764Y-102402663D01*
X135912727Y-101933331D01*
X135790206Y-101727000D01*
X134747000Y-101727000D01*
X134493000Y-101727000D01*
X133449794Y-101727000D01*
X133327273Y-101933331D01*
X133139000Y-101933331D01*
X133139000Y-101573846D01*
X138365000Y-101573846D01*
X138365000Y-101626154D01*
X138466621Y-102137036D01*
X138756012Y-102570142D01*
X139189118Y-102859533D01*
X139700000Y-102961154D01*
X140210882Y-102859533D01*
X140643988Y-102570142D01*
X140933379Y-102137036D01*
X141035000Y-101626154D01*
X141035000Y-101573846D01*
X143445000Y-101573846D01*
X143445000Y-101626154D01*
X143546621Y-102137036D01*
X143836012Y-102570142D01*
X144269118Y-102859533D01*
X144780000Y-102961154D01*
X145290882Y-102859533D01*
X145723988Y-102570142D01*
X146013379Y-102137036D01*
X146115000Y-101626154D01*
X146115000Y-101573846D01*
X146013379Y-101062964D01*
X145723988Y-100629858D01*
X145290882Y-100340467D01*
X144780000Y-100238846D01*
X144269118Y-100340467D01*
X143836012Y-100629858D01*
X143546621Y-101062964D01*
X143445000Y-101573846D01*
X141035000Y-101573846D01*
X140933379Y-101062964D01*
X140643988Y-100629858D01*
X140210882Y-100340467D01*
X139700000Y-100238846D01*
X139189118Y-100340467D01*
X138756012Y-100629858D01*
X138466621Y-101062964D01*
X138365000Y-101573846D01*
X133139000Y-101573846D01*
X133139000Y-101266669D01*
X133327273Y-101266669D01*
X133449794Y-101473000D01*
X134493000Y-101473000D01*
X134493000Y-100430626D01*
X134747000Y-100430626D01*
X134747000Y-101473000D01*
X135790206Y-101473000D01*
X135912727Y-101266669D01*
X135686764Y-100797337D01*
X135298396Y-100450203D01*
X134953329Y-100307284D01*
X134747000Y-100430626D01*
X134493000Y-100430626D01*
X134286671Y-100307284D01*
X133941604Y-100450203D01*
X133553236Y-100797337D01*
X133327273Y-101266669D01*
X133139000Y-101266669D01*
X133139000Y-99245167D01*
X141812838Y-99245167D01*
X141954883Y-99588943D01*
X142217673Y-99852192D01*
X142561201Y-99994838D01*
X142933167Y-99995162D01*
X143054569Y-99945000D01*
X150556928Y-99945000D01*
X150466044Y-99963078D01*
X149903170Y-100339179D01*
X149527069Y-100902053D01*
X149395000Y-101566009D01*
X149395000Y-101633991D01*
X149527069Y-102297947D01*
X149903170Y-102860821D01*
X150466044Y-103236922D01*
X151130000Y-103368991D01*
X151793956Y-103236922D01*
X152356830Y-102860821D01*
X152732931Y-102297947D01*
X152865000Y-101633991D01*
X152865000Y-101566009D01*
X152732931Y-100902053D01*
X152356830Y-100339179D01*
X151793956Y-99963078D01*
X151703072Y-99945000D01*
X153303420Y-99945000D01*
X157865000Y-104506579D01*
X157865000Y-105500221D01*
X157670853Y-105629946D01*
X157348946Y-106111715D01*
X157235907Y-106680000D01*
X157348946Y-107248285D01*
X157670853Y-107730054D01*
X157712452Y-107757850D01*
X157664683Y-107766838D01*
X157448559Y-107905910D01*
X157303569Y-108118110D01*
X157252560Y-108370000D01*
X157252560Y-110070000D01*
X157296838Y-110305317D01*
X157435910Y-110521441D01*
X157648110Y-110666431D01*
X157900000Y-110717440D01*
X159600000Y-110717440D01*
X159835317Y-110673162D01*
X160051441Y-110534090D01*
X160196431Y-110321890D01*
X160247440Y-110070000D01*
X160247440Y-108370000D01*
X160203162Y-108134683D01*
X160064090Y-107918559D01*
X159851890Y-107773569D01*
X159784459Y-107759914D01*
X159829147Y-107730054D01*
X160151054Y-107248285D01*
X160264093Y-106680000D01*
X160151054Y-106111715D01*
X159829147Y-105629946D01*
X159635000Y-105500221D01*
X159635000Y-104140005D01*
X159635001Y-104140000D01*
X159567633Y-103801326D01*
X159567633Y-103801325D01*
X159375790Y-103514210D01*
X159375787Y-103514208D01*
X154512744Y-98651164D01*
X154463117Y-98531057D01*
X154200327Y-98267808D01*
X153856799Y-98125162D01*
X153484833Y-98124838D01*
X153363431Y-98175000D01*
X149475000Y-98175000D01*
X149475000Y-97709432D01*
X149640054Y-97599147D01*
X149667850Y-97557548D01*
X149676838Y-97605317D01*
X149815910Y-97821441D01*
X150028110Y-97966431D01*
X150280000Y-98017440D01*
X151980000Y-98017440D01*
X152215317Y-97973162D01*
X152431441Y-97834090D01*
X152576431Y-97621890D01*
X152627440Y-97370000D01*
X152627440Y-96520000D01*
X157235907Y-96520000D01*
X157348946Y-97088285D01*
X157670853Y-97570054D01*
X157712452Y-97597850D01*
X157664683Y-97606838D01*
X157448559Y-97745910D01*
X157303569Y-97958110D01*
X157252560Y-98210000D01*
X157252560Y-99910000D01*
X157296838Y-100145317D01*
X157435910Y-100361441D01*
X157648110Y-100506431D01*
X157900000Y-100557440D01*
X159600000Y-100557440D01*
X159835317Y-100513162D01*
X160051441Y-100374090D01*
X160196431Y-100161890D01*
X160247440Y-99910000D01*
X160247440Y-98210000D01*
X160203162Y-97974683D01*
X160064090Y-97758559D01*
X159851890Y-97613569D01*
X159784459Y-97599914D01*
X159829147Y-97570054D01*
X160151054Y-97088285D01*
X160264093Y-96520000D01*
X160151054Y-95951715D01*
X159829147Y-95469946D01*
X159347378Y-95148039D01*
X158779093Y-95035000D01*
X158720907Y-95035000D01*
X158152622Y-95148039D01*
X157670853Y-95469946D01*
X157348946Y-95951715D01*
X157235907Y-96520000D01*
X152627440Y-96520000D01*
X152627440Y-95670000D01*
X152583162Y-95434683D01*
X152444090Y-95218559D01*
X152231890Y-95073569D01*
X151980000Y-95022560D01*
X150280000Y-95022560D01*
X150044683Y-95066838D01*
X149828559Y-95205910D01*
X149683569Y-95418110D01*
X149669914Y-95485541D01*
X149640054Y-95440853D01*
X149158285Y-95118946D01*
X148590000Y-95005907D01*
X148021715Y-95118946D01*
X147539946Y-95440853D01*
X147218039Y-95922622D01*
X147105000Y-96490907D01*
X147105000Y-96549093D01*
X147218039Y-97117378D01*
X147539946Y-97599147D01*
X147705000Y-97709432D01*
X147705000Y-98175000D01*
X143054822Y-98175000D01*
X142934799Y-98125162D01*
X142562833Y-98124838D01*
X142219057Y-98266883D01*
X141955808Y-98529673D01*
X141813162Y-98873201D01*
X141812838Y-99245167D01*
X133139000Y-99245167D01*
X133139000Y-98425000D01*
X129069000Y-98425000D01*
X125170000Y-98425000D01*
X125170000Y-96805750D01*
X125515000Y-96805750D01*
X125515000Y-97496310D01*
X125611673Y-97729699D01*
X125790302Y-97908327D01*
X126023691Y-98005000D01*
X126714250Y-98005000D01*
X126873000Y-97846250D01*
X126873000Y-96647000D01*
X127127000Y-96647000D01*
X127127000Y-97846250D01*
X127285750Y-98005000D01*
X127976309Y-98005000D01*
X128209698Y-97908327D01*
X128388327Y-97729699D01*
X128485000Y-97496310D01*
X128485000Y-96805750D01*
X128326250Y-96647000D01*
X127127000Y-96647000D01*
X126873000Y-96647000D01*
X125673750Y-96647000D01*
X125515000Y-96805750D01*
X125170000Y-96805750D01*
X125170000Y-95543690D01*
X125515000Y-95543690D01*
X125515000Y-96234250D01*
X125673750Y-96393000D01*
X126873000Y-96393000D01*
X126873000Y-95193750D01*
X127127000Y-95193750D01*
X127127000Y-96393000D01*
X128326250Y-96393000D01*
X128485000Y-96234250D01*
X128485000Y-95670000D01*
X131852560Y-95670000D01*
X131852560Y-97370000D01*
X131896838Y-97605317D01*
X132035910Y-97821441D01*
X132248110Y-97966431D01*
X132500000Y-98017440D01*
X134200000Y-98017440D01*
X134435317Y-97973162D01*
X134651441Y-97834090D01*
X134796431Y-97621890D01*
X134847440Y-97370000D01*
X134847440Y-96805750D01*
X138215000Y-96805750D01*
X138215000Y-97496309D01*
X138311673Y-97729698D01*
X138490301Y-97908327D01*
X138723690Y-98005000D01*
X139414250Y-98005000D01*
X139573000Y-97846250D01*
X139573000Y-96647000D01*
X138373750Y-96647000D01*
X138215000Y-96805750D01*
X134847440Y-96805750D01*
X134847440Y-95670000D01*
X134823674Y-95543691D01*
X138215000Y-95543691D01*
X138215000Y-96234250D01*
X138373750Y-96393000D01*
X139573000Y-96393000D01*
X139573000Y-95193750D01*
X139827000Y-95193750D01*
X139827000Y-96393000D01*
X139847000Y-96393000D01*
X139847000Y-96647000D01*
X139827000Y-96647000D01*
X139827000Y-97846250D01*
X139985750Y-98005000D01*
X140676310Y-98005000D01*
X140909699Y-97908327D01*
X141088327Y-97729698D01*
X141160597Y-97555223D01*
X141189946Y-97599147D01*
X141671715Y-97921054D01*
X142240000Y-98034093D01*
X142808285Y-97921054D01*
X143290054Y-97599147D01*
X143611961Y-97117378D01*
X143725000Y-96549093D01*
X143725000Y-96490907D01*
X143611961Y-95922622D01*
X143290054Y-95440853D01*
X142808285Y-95118946D01*
X142240000Y-95005907D01*
X141671715Y-95118946D01*
X141189946Y-95440853D01*
X141160597Y-95484777D01*
X141088327Y-95310302D01*
X140909699Y-95131673D01*
X140676310Y-95035000D01*
X139985750Y-95035000D01*
X139827000Y-95193750D01*
X139573000Y-95193750D01*
X139414250Y-95035000D01*
X138723690Y-95035000D01*
X138490301Y-95131673D01*
X138311673Y-95310302D01*
X138215000Y-95543691D01*
X134823674Y-95543691D01*
X134803162Y-95434683D01*
X134664090Y-95218559D01*
X134451890Y-95073569D01*
X134200000Y-95022560D01*
X132500000Y-95022560D01*
X132264683Y-95066838D01*
X132048559Y-95205910D01*
X131903569Y-95418110D01*
X131852560Y-95670000D01*
X128485000Y-95670000D01*
X128485000Y-95543690D01*
X128388327Y-95310301D01*
X128209698Y-95131673D01*
X127976309Y-95035000D01*
X127285750Y-95035000D01*
X127127000Y-95193750D01*
X126873000Y-95193750D01*
X126714250Y-95035000D01*
X126023691Y-95035000D01*
X125790302Y-95131673D01*
X125611673Y-95310301D01*
X125515000Y-95543690D01*
X125170000Y-95543690D01*
X125170000Y-94690000D01*
X160580000Y-94690000D01*
X160580000Y-111050000D01*
M02*
