G04 #@! TF.GenerationSoftware,KiCad,Pcbnew,5.0.1-33cea8e~68~ubuntu16.04.1*
G04 #@! TF.CreationDate,2018-12-21T13:37:05+01:00*
G04 #@! TF.ProjectId,EVSE-Easy-Test,455653452D456173792D546573742E6B,rev?*
G04 #@! TF.SameCoordinates,Original*
G04 #@! TF.FileFunction,Soldermask,Bot*
G04 #@! TF.FilePolarity,Negative*
%FSLAX46Y46*%
G04 Gerber Fmt 4.6, Leading zero omitted, Abs format (unit mm)*
G04 Created by KiCad (PCBNEW 5.0.1-33cea8e~68~ubuntu16.04.1) date Fr 21 Dez 2018 13:37:05 CET*
%MOMM*%
%LPD*%
G01*
G04 APERTURE LIST*
%ADD10C,0.100000*%
G04 APERTURE END LIST*
D10*
G36*
X44190256Y-76369298D02*
X44296579Y-76390447D01*
X44597042Y-76514903D01*
X44863852Y-76693180D01*
X44867454Y-76695587D01*
X45097413Y-76925546D01*
X45097415Y-76925549D01*
X45278097Y-77195958D01*
X45400667Y-77491867D01*
X45402553Y-77496422D01*
X45466000Y-77815389D01*
X45466000Y-78140611D01*
X45451844Y-78211778D01*
X45402553Y-78459579D01*
X45278097Y-78760042D01*
X45136382Y-78972133D01*
X45097413Y-79030454D01*
X44867454Y-79260413D01*
X44867451Y-79260415D01*
X44597042Y-79441097D01*
X44296579Y-79565553D01*
X44190256Y-79586702D01*
X43977611Y-79629000D01*
X43652389Y-79629000D01*
X43439744Y-79586702D01*
X43333421Y-79565553D01*
X43032958Y-79441097D01*
X42762549Y-79260415D01*
X42762546Y-79260413D01*
X42532587Y-79030454D01*
X42493618Y-78972133D01*
X42351903Y-78760042D01*
X42227447Y-78459579D01*
X42178156Y-78211778D01*
X42164000Y-78140611D01*
X42164000Y-77815389D01*
X42227447Y-77496422D01*
X42229334Y-77491867D01*
X42351903Y-77195958D01*
X42532585Y-76925549D01*
X42532587Y-76925546D01*
X42762546Y-76695587D01*
X42766148Y-76693180D01*
X43032958Y-76514903D01*
X43333421Y-76390447D01*
X43439744Y-76369298D01*
X43652389Y-76327000D01*
X43977611Y-76327000D01*
X44190256Y-76369298D01*
X44190256Y-76369298D01*
G37*
G36*
X107309256Y-76242298D02*
X107415579Y-76263447D01*
X107716042Y-76387903D01*
X107719849Y-76390447D01*
X107986454Y-76568587D01*
X108216413Y-76798546D01*
X108397098Y-77068960D01*
X108521553Y-77369422D01*
X108585000Y-77688389D01*
X108585000Y-78013611D01*
X108559738Y-78140609D01*
X108521553Y-78332579D01*
X108397097Y-78633042D01*
X108300070Y-78778253D01*
X108216413Y-78903454D01*
X107986454Y-79133413D01*
X107986451Y-79133415D01*
X107716042Y-79314097D01*
X107415579Y-79438553D01*
X107402789Y-79441097D01*
X107096611Y-79502000D01*
X106771389Y-79502000D01*
X106465211Y-79441097D01*
X106452421Y-79438553D01*
X106151958Y-79314097D01*
X105881549Y-79133415D01*
X105881546Y-79133413D01*
X105651587Y-78903454D01*
X105567930Y-78778253D01*
X105470903Y-78633042D01*
X105346447Y-78332579D01*
X105308262Y-78140609D01*
X105283000Y-78013611D01*
X105283000Y-77688389D01*
X105346447Y-77369422D01*
X105470902Y-77068960D01*
X105651587Y-76798546D01*
X105881546Y-76568587D01*
X106148151Y-76390447D01*
X106151958Y-76387903D01*
X106452421Y-76263447D01*
X106558744Y-76242298D01*
X106771389Y-76200000D01*
X107096611Y-76200000D01*
X107309256Y-76242298D01*
X107309256Y-76242298D01*
G37*
G36*
X102435665Y-77611622D02*
X102509222Y-77618867D01*
X102650786Y-77661810D01*
X102781252Y-77731546D01*
X102895606Y-77825394D01*
X102989454Y-77939748D01*
X103059190Y-78070214D01*
X103102133Y-78211778D01*
X103116633Y-78359000D01*
X103102133Y-78506222D01*
X103059190Y-78647786D01*
X102989454Y-78778252D01*
X102895606Y-78892606D01*
X102781252Y-78986454D01*
X102650786Y-79056190D01*
X102509222Y-79099133D01*
X102435665Y-79106378D01*
X102398888Y-79110000D01*
X102325112Y-79110000D01*
X102288335Y-79106378D01*
X102214778Y-79099133D01*
X102073214Y-79056190D01*
X101942748Y-78986454D01*
X101828394Y-78892606D01*
X101734546Y-78778252D01*
X101664810Y-78647786D01*
X101621867Y-78506222D01*
X101607367Y-78359000D01*
X101621867Y-78211778D01*
X101664810Y-78070214D01*
X101734546Y-77939748D01*
X101828394Y-77825394D01*
X101942748Y-77731546D01*
X102073214Y-77661810D01*
X102214778Y-77618867D01*
X102288335Y-77611622D01*
X102325112Y-77608000D01*
X102398888Y-77608000D01*
X102435665Y-77611622D01*
X102435665Y-77611622D01*
G37*
G36*
X94870600Y-77618867D02*
X94961059Y-77636860D01*
X95097732Y-77693472D01*
X95219079Y-77774554D01*
X95220738Y-77775662D01*
X95325338Y-77880262D01*
X95325340Y-77880265D01*
X95407528Y-78003268D01*
X95464140Y-78139941D01*
X95478429Y-78211778D01*
X95493000Y-78285031D01*
X95493000Y-78432969D01*
X95487707Y-78459578D01*
X95464140Y-78578059D01*
X95407528Y-78714732D01*
X95340305Y-78815338D01*
X95325338Y-78837738D01*
X95220738Y-78942338D01*
X95220735Y-78942340D01*
X95097732Y-79024528D01*
X94961059Y-79081140D01*
X94874004Y-79098456D01*
X94815969Y-79110000D01*
X94668031Y-79110000D01*
X94609996Y-79098456D01*
X94522941Y-79081140D01*
X94386268Y-79024528D01*
X94263265Y-78942340D01*
X94263262Y-78942338D01*
X94158662Y-78837738D01*
X94143695Y-78815338D01*
X94076472Y-78714732D01*
X94019860Y-78578059D01*
X93996293Y-78459578D01*
X93991000Y-78432969D01*
X93991000Y-78285031D01*
X94005571Y-78211778D01*
X94019860Y-78139941D01*
X94076472Y-78003268D01*
X94158660Y-77880265D01*
X94158662Y-77880262D01*
X94263262Y-77775662D01*
X94264921Y-77774554D01*
X94386268Y-77693472D01*
X94522941Y-77636860D01*
X94613400Y-77618867D01*
X94668031Y-77608000D01*
X94815969Y-77608000D01*
X94870600Y-77618867D01*
X94870600Y-77618867D01*
G37*
G36*
X91640665Y-77611622D02*
X91714222Y-77618867D01*
X91855786Y-77661810D01*
X91986252Y-77731546D01*
X92100606Y-77825394D01*
X92194454Y-77939748D01*
X92264190Y-78070214D01*
X92307133Y-78211778D01*
X92321633Y-78359000D01*
X92307133Y-78506222D01*
X92264190Y-78647786D01*
X92194454Y-78778252D01*
X92100606Y-78892606D01*
X91986252Y-78986454D01*
X91855786Y-79056190D01*
X91714222Y-79099133D01*
X91640665Y-79106378D01*
X91603888Y-79110000D01*
X91530112Y-79110000D01*
X91493335Y-79106378D01*
X91419778Y-79099133D01*
X91278214Y-79056190D01*
X91147748Y-78986454D01*
X91033394Y-78892606D01*
X90939546Y-78778252D01*
X90869810Y-78647786D01*
X90826867Y-78506222D01*
X90812367Y-78359000D01*
X90826867Y-78211778D01*
X90869810Y-78070214D01*
X90939546Y-77939748D01*
X91033394Y-77825394D01*
X91147748Y-77731546D01*
X91278214Y-77661810D01*
X91419778Y-77618867D01*
X91493335Y-77611622D01*
X91530112Y-77608000D01*
X91603888Y-77608000D01*
X91640665Y-77611622D01*
X91640665Y-77611622D01*
G37*
G36*
X48968665Y-77611622D02*
X49042222Y-77618867D01*
X49183786Y-77661810D01*
X49314252Y-77731546D01*
X49428606Y-77825394D01*
X49522454Y-77939748D01*
X49592190Y-78070214D01*
X49635133Y-78211778D01*
X49649633Y-78359000D01*
X49635133Y-78506222D01*
X49592190Y-78647786D01*
X49522454Y-78778252D01*
X49428606Y-78892606D01*
X49314252Y-78986454D01*
X49183786Y-79056190D01*
X49042222Y-79099133D01*
X48968665Y-79106378D01*
X48931888Y-79110000D01*
X48858112Y-79110000D01*
X48821335Y-79106378D01*
X48747778Y-79099133D01*
X48606214Y-79056190D01*
X48475748Y-78986454D01*
X48361394Y-78892606D01*
X48267546Y-78778252D01*
X48197810Y-78647786D01*
X48154867Y-78506222D01*
X48140367Y-78359000D01*
X48154867Y-78211778D01*
X48197810Y-78070214D01*
X48267546Y-77939748D01*
X48361394Y-77825394D01*
X48475748Y-77731546D01*
X48606214Y-77661810D01*
X48747778Y-77618867D01*
X48821335Y-77611622D01*
X48858112Y-77608000D01*
X48931888Y-77608000D01*
X48968665Y-77611622D01*
X48968665Y-77611622D01*
G37*
G36*
X56643600Y-77618867D02*
X56734059Y-77636860D01*
X56870732Y-77693472D01*
X56992079Y-77774554D01*
X56993738Y-77775662D01*
X57098338Y-77880262D01*
X57098340Y-77880265D01*
X57180528Y-78003268D01*
X57237140Y-78139941D01*
X57251429Y-78211778D01*
X57266000Y-78285031D01*
X57266000Y-78432969D01*
X57260707Y-78459578D01*
X57237140Y-78578059D01*
X57180528Y-78714732D01*
X57113305Y-78815338D01*
X57098338Y-78837738D01*
X56993738Y-78942338D01*
X56993735Y-78942340D01*
X56870732Y-79024528D01*
X56734059Y-79081140D01*
X56647004Y-79098456D01*
X56588969Y-79110000D01*
X56441031Y-79110000D01*
X56382996Y-79098456D01*
X56295941Y-79081140D01*
X56159268Y-79024528D01*
X56036265Y-78942340D01*
X56036262Y-78942338D01*
X55931662Y-78837738D01*
X55916695Y-78815338D01*
X55849472Y-78714732D01*
X55792860Y-78578059D01*
X55769293Y-78459578D01*
X55764000Y-78432969D01*
X55764000Y-78285031D01*
X55778571Y-78211778D01*
X55792860Y-78139941D01*
X55849472Y-78003268D01*
X55931660Y-77880265D01*
X55931662Y-77880262D01*
X56036262Y-77775662D01*
X56037921Y-77774554D01*
X56159268Y-77693472D01*
X56295941Y-77636860D01*
X56386400Y-77618867D01*
X56441031Y-77608000D01*
X56588969Y-77608000D01*
X56643600Y-77618867D01*
X56643600Y-77618867D01*
G37*
G36*
X84075600Y-77618867D02*
X84166059Y-77636860D01*
X84302732Y-77693472D01*
X84424079Y-77774554D01*
X84425738Y-77775662D01*
X84530338Y-77880262D01*
X84530340Y-77880265D01*
X84612528Y-78003268D01*
X84669140Y-78139941D01*
X84683429Y-78211778D01*
X84698000Y-78285031D01*
X84698000Y-78432969D01*
X84692707Y-78459578D01*
X84669140Y-78578059D01*
X84612528Y-78714732D01*
X84545305Y-78815338D01*
X84530338Y-78837738D01*
X84425738Y-78942338D01*
X84425735Y-78942340D01*
X84302732Y-79024528D01*
X84166059Y-79081140D01*
X84079004Y-79098456D01*
X84020969Y-79110000D01*
X83873031Y-79110000D01*
X83814996Y-79098456D01*
X83727941Y-79081140D01*
X83591268Y-79024528D01*
X83468265Y-78942340D01*
X83468262Y-78942338D01*
X83363662Y-78837738D01*
X83348695Y-78815338D01*
X83281472Y-78714732D01*
X83224860Y-78578059D01*
X83201293Y-78459578D01*
X83196000Y-78432969D01*
X83196000Y-78285031D01*
X83210571Y-78211778D01*
X83224860Y-78139941D01*
X83281472Y-78003268D01*
X83363660Y-77880265D01*
X83363662Y-77880262D01*
X83468262Y-77775662D01*
X83469921Y-77774554D01*
X83591268Y-77693472D01*
X83727941Y-77636860D01*
X83818400Y-77618867D01*
X83873031Y-77608000D01*
X84020969Y-77608000D01*
X84075600Y-77618867D01*
X84075600Y-77618867D01*
G37*
G36*
X69470600Y-77491867D02*
X69561059Y-77509860D01*
X69697732Y-77566472D01*
X69803075Y-77636860D01*
X69820738Y-77648662D01*
X69925338Y-77753262D01*
X69925340Y-77753265D01*
X70007528Y-77876268D01*
X70064140Y-78012941D01*
X70064273Y-78013611D01*
X70090378Y-78144847D01*
X70093000Y-78158033D01*
X70093000Y-78305967D01*
X70064140Y-78451059D01*
X70007528Y-78587732D01*
X69926446Y-78709079D01*
X69925338Y-78710738D01*
X69820738Y-78815338D01*
X69820735Y-78815340D01*
X69697732Y-78897528D01*
X69561059Y-78954140D01*
X69474004Y-78971456D01*
X69415969Y-78983000D01*
X69268031Y-78983000D01*
X69209996Y-78971456D01*
X69122941Y-78954140D01*
X68986268Y-78897528D01*
X68863265Y-78815340D01*
X68863262Y-78815338D01*
X68758662Y-78710738D01*
X68757554Y-78709079D01*
X68676472Y-78587732D01*
X68619860Y-78451059D01*
X68591000Y-78305967D01*
X68591000Y-78158033D01*
X68593623Y-78144847D01*
X68619727Y-78013611D01*
X68619860Y-78012941D01*
X68676472Y-77876268D01*
X68758660Y-77753265D01*
X68758662Y-77753262D01*
X68863262Y-77648662D01*
X68880925Y-77636860D01*
X68986268Y-77566472D01*
X69122941Y-77509860D01*
X69213400Y-77491867D01*
X69268031Y-77481000D01*
X69415969Y-77481000D01*
X69470600Y-77491867D01*
X69470600Y-77491867D01*
G37*
G36*
X61795665Y-77484622D02*
X61869222Y-77491867D01*
X62010786Y-77534810D01*
X62141252Y-77604546D01*
X62255606Y-77698394D01*
X62349454Y-77812748D01*
X62419190Y-77943214D01*
X62462133Y-78084778D01*
X62476633Y-78232000D01*
X62462133Y-78379222D01*
X62419190Y-78520786D01*
X62349454Y-78651252D01*
X62255606Y-78765606D01*
X62141252Y-78859454D01*
X62010786Y-78929190D01*
X61869222Y-78972133D01*
X61795665Y-78979378D01*
X61758888Y-78983000D01*
X61685112Y-78983000D01*
X61648335Y-78979378D01*
X61574778Y-78972133D01*
X61433214Y-78929190D01*
X61302748Y-78859454D01*
X61188394Y-78765606D01*
X61094546Y-78651252D01*
X61024810Y-78520786D01*
X60981867Y-78379222D01*
X60967367Y-78232000D01*
X60981867Y-78084778D01*
X61024810Y-77943214D01*
X61094546Y-77812748D01*
X61188394Y-77698394D01*
X61302748Y-77604546D01*
X61433214Y-77534810D01*
X61574778Y-77491867D01*
X61648335Y-77484622D01*
X61685112Y-77481000D01*
X61758888Y-77481000D01*
X61795665Y-77484622D01*
X61795665Y-77484622D01*
G37*
G36*
X76090143Y-75305481D02*
X76242049Y-75320442D01*
X76436959Y-75379567D01*
X76534415Y-75409130D01*
X76632690Y-75461660D01*
X76803858Y-75553151D01*
X77040029Y-75746971D01*
X77233849Y-75983142D01*
X77325340Y-76154310D01*
X77377870Y-76252585D01*
X77377870Y-76252586D01*
X77466558Y-76544951D01*
X77496504Y-76849000D01*
X77466558Y-77153049D01*
X77453541Y-77195960D01*
X77377870Y-77445415D01*
X77350606Y-77496421D01*
X77233849Y-77714858D01*
X77040029Y-77951029D01*
X76803858Y-78144849D01*
X76678639Y-78211780D01*
X76534415Y-78288870D01*
X76436959Y-78318433D01*
X76242049Y-78377558D01*
X76090143Y-78392519D01*
X76014191Y-78400000D01*
X74861809Y-78400000D01*
X74785857Y-78392519D01*
X74633951Y-78377558D01*
X74439041Y-78318433D01*
X74341585Y-78288870D01*
X74197361Y-78211780D01*
X74072142Y-78144849D01*
X73835971Y-77951029D01*
X73642151Y-77714858D01*
X73525394Y-77496421D01*
X73498130Y-77445415D01*
X73422459Y-77195960D01*
X73409442Y-77153049D01*
X73379496Y-76849000D01*
X73409442Y-76544951D01*
X73498130Y-76252586D01*
X73498130Y-76252585D01*
X73550660Y-76154310D01*
X73642151Y-75983142D01*
X73835971Y-75746971D01*
X74072142Y-75553151D01*
X74243310Y-75461660D01*
X74341585Y-75409130D01*
X74439041Y-75379567D01*
X74633951Y-75320442D01*
X74785857Y-75305481D01*
X74861809Y-75298000D01*
X76014191Y-75298000D01*
X76090143Y-75305481D01*
X76090143Y-75305481D01*
G37*
G36*
X97527034Y-70914257D02*
X97678940Y-70929218D01*
X97873850Y-70988343D01*
X97971306Y-71017906D01*
X97984119Y-71024755D01*
X98240749Y-71161927D01*
X98476920Y-71355747D01*
X98670740Y-71591918D01*
X98762231Y-71763086D01*
X98814761Y-71861361D01*
X98814761Y-71861362D01*
X98903449Y-72153727D01*
X98933395Y-72457776D01*
X98903449Y-72761825D01*
X98848601Y-72942634D01*
X98814761Y-73054191D01*
X98762231Y-73152466D01*
X98670740Y-73323634D01*
X98476920Y-73559805D01*
X98240749Y-73753625D01*
X98069581Y-73845116D01*
X97971306Y-73897646D01*
X97873850Y-73927209D01*
X97678940Y-73986334D01*
X97527034Y-74001295D01*
X97451082Y-74008776D01*
X97298700Y-74008776D01*
X97222748Y-74001295D01*
X97070842Y-73986334D01*
X96875932Y-73927209D01*
X96778476Y-73897646D01*
X96680201Y-73845116D01*
X96509033Y-73753625D01*
X96272862Y-73559805D01*
X96079042Y-73323634D01*
X95987551Y-73152466D01*
X95935021Y-73054191D01*
X95901181Y-72942634D01*
X95846333Y-72761825D01*
X95816387Y-72457776D01*
X95846333Y-72153727D01*
X95935021Y-71861362D01*
X95935021Y-71861361D01*
X95987551Y-71763086D01*
X96079042Y-71591918D01*
X96272862Y-71355747D01*
X96509033Y-71161927D01*
X96765663Y-71024755D01*
X96778476Y-71017906D01*
X96875932Y-70988343D01*
X97070842Y-70929218D01*
X97222748Y-70914257D01*
X97298700Y-70906776D01*
X97451082Y-70906776D01*
X97527034Y-70914257D01*
X97527034Y-70914257D01*
G37*
G36*
X93180109Y-74008776D02*
X90078109Y-74008776D01*
X90078109Y-70906776D01*
X93180109Y-70906776D01*
X93180109Y-74008776D01*
X93180109Y-74008776D01*
G37*
G36*
X54925109Y-73627776D02*
X51823109Y-73627776D01*
X51823109Y-70525776D01*
X54925109Y-70525776D01*
X54925109Y-73627776D01*
X54925109Y-73627776D01*
G37*
G36*
X59272034Y-70533257D02*
X59423940Y-70548218D01*
X59618850Y-70607343D01*
X59716306Y-70636906D01*
X59809863Y-70686914D01*
X59985749Y-70780927D01*
X60221920Y-70974747D01*
X60415740Y-71210918D01*
X60493153Y-71355747D01*
X60559761Y-71480361D01*
X60559761Y-71480362D01*
X60648449Y-71772727D01*
X60678395Y-72076776D01*
X60648449Y-72380825D01*
X60625106Y-72457776D01*
X60559761Y-72673191D01*
X60512386Y-72761823D01*
X60415740Y-72942634D01*
X60221920Y-73178805D01*
X59985749Y-73372625D01*
X59814581Y-73464116D01*
X59716306Y-73516646D01*
X59618850Y-73546209D01*
X59423940Y-73605334D01*
X59272034Y-73620295D01*
X59196082Y-73627776D01*
X59043700Y-73627776D01*
X58967748Y-73620295D01*
X58815842Y-73605334D01*
X58620932Y-73546209D01*
X58523476Y-73516646D01*
X58425201Y-73464116D01*
X58254033Y-73372625D01*
X58017862Y-73178805D01*
X57824042Y-72942634D01*
X57727396Y-72761823D01*
X57680021Y-72673191D01*
X57614676Y-72457776D01*
X57591333Y-72380825D01*
X57561387Y-72076776D01*
X57591333Y-71772727D01*
X57680021Y-71480362D01*
X57680021Y-71480361D01*
X57746629Y-71355747D01*
X57824042Y-71210918D01*
X58017862Y-70974747D01*
X58254033Y-70780927D01*
X58429919Y-70686914D01*
X58523476Y-70636906D01*
X58620932Y-70607343D01*
X58815842Y-70548218D01*
X58967748Y-70533257D01*
X59043700Y-70525776D01*
X59196082Y-70525776D01*
X59272034Y-70533257D01*
X59272034Y-70533257D01*
G37*
G36*
X86805258Y-68041366D02*
X86957164Y-68056327D01*
X87152074Y-68115452D01*
X87249530Y-68145015D01*
X87347805Y-68197545D01*
X87518973Y-68289036D01*
X87755144Y-68482856D01*
X87948964Y-68719027D01*
X88040455Y-68890195D01*
X88092985Y-68988470D01*
X88092985Y-68988471D01*
X88181673Y-69280836D01*
X88211619Y-69584885D01*
X88181673Y-69888934D01*
X88126825Y-70069743D01*
X88092985Y-70181300D01*
X88040455Y-70279575D01*
X87948964Y-70450743D01*
X87755144Y-70686914D01*
X87518973Y-70880734D01*
X87347805Y-70972225D01*
X87249530Y-71024755D01*
X87152074Y-71054318D01*
X86957164Y-71113443D01*
X86805258Y-71128404D01*
X86729306Y-71135885D01*
X86576924Y-71135885D01*
X86500972Y-71128404D01*
X86349066Y-71113443D01*
X86154156Y-71054318D01*
X86056700Y-71024755D01*
X85958425Y-70972225D01*
X85787257Y-70880734D01*
X85551086Y-70686914D01*
X85357266Y-70450743D01*
X85265775Y-70279575D01*
X85213245Y-70181300D01*
X85179405Y-70069743D01*
X85124557Y-69888934D01*
X85094611Y-69584885D01*
X85124557Y-69280836D01*
X85213245Y-68988471D01*
X85213245Y-68988470D01*
X85265775Y-68890195D01*
X85357266Y-68719027D01*
X85551086Y-68482856D01*
X85787257Y-68289036D01*
X85958425Y-68197545D01*
X86056700Y-68145015D01*
X86154156Y-68115452D01*
X86349066Y-68056327D01*
X86500972Y-68041366D01*
X86576924Y-68033885D01*
X86729306Y-68033885D01*
X86805258Y-68041366D01*
X86805258Y-68041366D01*
G37*
G36*
X102503028Y-68041366D02*
X102654934Y-68056327D01*
X102849844Y-68115452D01*
X102947300Y-68145015D01*
X103045575Y-68197545D01*
X103216743Y-68289036D01*
X103452914Y-68482856D01*
X103646734Y-68719027D01*
X103738225Y-68890195D01*
X103790755Y-68988470D01*
X103790755Y-68988471D01*
X103879443Y-69280836D01*
X103909389Y-69584885D01*
X103879443Y-69888934D01*
X103824595Y-70069743D01*
X103790755Y-70181300D01*
X103738225Y-70279575D01*
X103646734Y-70450743D01*
X103452914Y-70686914D01*
X103216743Y-70880734D01*
X103045575Y-70972225D01*
X102947300Y-71024755D01*
X102849844Y-71054318D01*
X102654934Y-71113443D01*
X102503028Y-71128404D01*
X102427076Y-71135885D01*
X102274694Y-71135885D01*
X102198742Y-71128404D01*
X102046836Y-71113443D01*
X101851926Y-71054318D01*
X101754470Y-71024755D01*
X101656195Y-70972225D01*
X101485027Y-70880734D01*
X101248856Y-70686914D01*
X101055036Y-70450743D01*
X100963545Y-70279575D01*
X100911015Y-70181300D01*
X100877175Y-70069743D01*
X100822327Y-69888934D01*
X100792381Y-69584885D01*
X100822327Y-69280836D01*
X100911015Y-68988471D01*
X100911015Y-68988470D01*
X100963545Y-68890195D01*
X101055036Y-68719027D01*
X101248856Y-68482856D01*
X101485027Y-68289036D01*
X101656195Y-68197545D01*
X101754470Y-68145015D01*
X101851926Y-68115452D01*
X102046836Y-68056327D01*
X102198742Y-68041366D01*
X102274694Y-68033885D01*
X102427076Y-68033885D01*
X102503028Y-68041366D01*
X102503028Y-68041366D01*
G37*
G36*
X76090143Y-67805481D02*
X76242049Y-67820442D01*
X76436959Y-67879567D01*
X76534415Y-67909130D01*
X76632690Y-67961660D01*
X76803858Y-68053151D01*
X77040029Y-68246971D01*
X77233849Y-68483142D01*
X77300304Y-68607470D01*
X77377870Y-68752585D01*
X77377870Y-68752586D01*
X77466558Y-69044951D01*
X77496504Y-69349000D01*
X77466558Y-69653049D01*
X77421890Y-69800299D01*
X77377870Y-69945415D01*
X77325340Y-70043690D01*
X77233849Y-70214858D01*
X77040029Y-70451029D01*
X76803858Y-70644849D01*
X76639981Y-70732443D01*
X76534415Y-70788870D01*
X76436959Y-70818433D01*
X76242049Y-70877558D01*
X76090143Y-70892519D01*
X76014191Y-70900000D01*
X74861809Y-70900000D01*
X74785857Y-70892519D01*
X74633951Y-70877558D01*
X74439041Y-70818433D01*
X74341585Y-70788870D01*
X74236019Y-70732443D01*
X74072142Y-70644849D01*
X73835971Y-70451029D01*
X73642151Y-70214858D01*
X73550660Y-70043690D01*
X73498130Y-69945415D01*
X73454110Y-69800299D01*
X73409442Y-69653049D01*
X73379496Y-69349000D01*
X73409442Y-69044951D01*
X73498130Y-68752586D01*
X73498130Y-68752585D01*
X73575696Y-68607470D01*
X73642151Y-68483142D01*
X73835971Y-68246971D01*
X74072142Y-68053151D01*
X74243310Y-67961660D01*
X74341585Y-67909130D01*
X74439041Y-67879567D01*
X74633951Y-67820442D01*
X74785857Y-67805481D01*
X74861809Y-67798000D01*
X76014191Y-67798000D01*
X76090143Y-67805481D01*
X76090143Y-67805481D01*
G37*
G36*
X48550258Y-67660366D02*
X48702164Y-67675327D01*
X48897074Y-67734452D01*
X48994530Y-67764015D01*
X49092805Y-67816545D01*
X49263973Y-67908036D01*
X49500144Y-68101856D01*
X49693964Y-68338027D01*
X49771530Y-68483142D01*
X49837985Y-68607470D01*
X49837985Y-68607471D01*
X49926673Y-68899836D01*
X49956619Y-69203885D01*
X49926673Y-69507934D01*
X49903330Y-69584885D01*
X49837985Y-69800300D01*
X49790610Y-69888932D01*
X49693964Y-70069743D01*
X49500144Y-70305914D01*
X49263973Y-70499734D01*
X49092805Y-70591225D01*
X48994530Y-70643755D01*
X48897074Y-70673318D01*
X48702164Y-70732443D01*
X48550258Y-70747404D01*
X48474306Y-70754885D01*
X48321924Y-70754885D01*
X48245972Y-70747404D01*
X48094066Y-70732443D01*
X47899156Y-70673318D01*
X47801700Y-70643755D01*
X47703425Y-70591225D01*
X47532257Y-70499734D01*
X47296086Y-70305914D01*
X47102266Y-70069743D01*
X47005620Y-69888932D01*
X46958245Y-69800300D01*
X46892900Y-69584885D01*
X46869557Y-69507934D01*
X46839611Y-69203885D01*
X46869557Y-68899836D01*
X46958245Y-68607471D01*
X46958245Y-68607470D01*
X47024700Y-68483142D01*
X47102266Y-68338027D01*
X47296086Y-68101856D01*
X47532257Y-67908036D01*
X47703425Y-67816545D01*
X47801700Y-67764015D01*
X47899156Y-67734452D01*
X48094066Y-67675327D01*
X48245972Y-67660366D01*
X48321924Y-67652885D01*
X48474306Y-67652885D01*
X48550258Y-67660366D01*
X48550258Y-67660366D01*
G37*
G36*
X64248028Y-67660366D02*
X64399934Y-67675327D01*
X64594844Y-67734452D01*
X64692300Y-67764015D01*
X64790575Y-67816545D01*
X64961743Y-67908036D01*
X65197914Y-68101856D01*
X65391734Y-68338027D01*
X65469300Y-68483142D01*
X65535755Y-68607470D01*
X65535755Y-68607471D01*
X65624443Y-68899836D01*
X65654389Y-69203885D01*
X65624443Y-69507934D01*
X65601100Y-69584885D01*
X65535755Y-69800300D01*
X65488380Y-69888932D01*
X65391734Y-70069743D01*
X65197914Y-70305914D01*
X64961743Y-70499734D01*
X64790575Y-70591225D01*
X64692300Y-70643755D01*
X64594844Y-70673318D01*
X64399934Y-70732443D01*
X64248028Y-70747404D01*
X64172076Y-70754885D01*
X64019694Y-70754885D01*
X63943742Y-70747404D01*
X63791836Y-70732443D01*
X63596926Y-70673318D01*
X63499470Y-70643755D01*
X63401195Y-70591225D01*
X63230027Y-70499734D01*
X62993856Y-70305914D01*
X62800036Y-70069743D01*
X62703390Y-69888932D01*
X62656015Y-69800300D01*
X62590670Y-69584885D01*
X62567327Y-69507934D01*
X62537381Y-69203885D01*
X62567327Y-68899836D01*
X62656015Y-68607471D01*
X62656015Y-68607470D01*
X62722470Y-68483142D01*
X62800036Y-68338027D01*
X62993856Y-68101856D01*
X63230027Y-67908036D01*
X63401195Y-67816545D01*
X63499470Y-67764015D01*
X63596926Y-67734452D01*
X63791836Y-67675327D01*
X63943742Y-67660366D01*
X64019694Y-67652885D01*
X64172076Y-67652885D01*
X64248028Y-67660366D01*
X64248028Y-67660366D01*
G37*
G36*
X105375919Y-63065372D02*
X105527825Y-63080333D01*
X105722735Y-63139458D01*
X105820191Y-63169021D01*
X105915847Y-63220151D01*
X106089634Y-63313042D01*
X106325805Y-63506862D01*
X106519625Y-63743033D01*
X106566618Y-63830951D01*
X106663646Y-64012476D01*
X106663646Y-64012477D01*
X106752334Y-64304842D01*
X106782280Y-64608891D01*
X106752334Y-64912940D01*
X106697486Y-65093749D01*
X106663646Y-65205306D01*
X106611116Y-65303581D01*
X106519625Y-65474749D01*
X106325805Y-65710920D01*
X106089634Y-65904740D01*
X105918466Y-65996231D01*
X105820191Y-66048761D01*
X105760064Y-66067000D01*
X105527825Y-66137449D01*
X105375919Y-66152410D01*
X105299967Y-66159891D01*
X105147585Y-66159891D01*
X105071633Y-66152410D01*
X104919727Y-66137449D01*
X104687488Y-66067000D01*
X104627361Y-66048761D01*
X104529086Y-65996231D01*
X104357918Y-65904740D01*
X104121747Y-65710920D01*
X103927927Y-65474749D01*
X103836436Y-65303581D01*
X103783906Y-65205306D01*
X103750066Y-65093749D01*
X103695218Y-64912940D01*
X103665272Y-64608891D01*
X103695218Y-64304842D01*
X103783906Y-64012477D01*
X103783906Y-64012476D01*
X103880934Y-63830951D01*
X103927927Y-63743033D01*
X104121747Y-63506862D01*
X104357918Y-63313042D01*
X104531705Y-63220151D01*
X104627361Y-63169021D01*
X104724817Y-63139458D01*
X104919727Y-63080333D01*
X105071633Y-63065372D01*
X105147585Y-63057891D01*
X105299967Y-63057891D01*
X105375919Y-63065372D01*
X105375919Y-63065372D01*
G37*
G36*
X83932367Y-63065372D02*
X84084273Y-63080333D01*
X84279183Y-63139458D01*
X84376639Y-63169021D01*
X84472295Y-63220151D01*
X84646082Y-63313042D01*
X84882253Y-63506862D01*
X85076073Y-63743033D01*
X85123066Y-63830951D01*
X85220094Y-64012476D01*
X85220094Y-64012477D01*
X85308782Y-64304842D01*
X85338728Y-64608891D01*
X85308782Y-64912940D01*
X85253934Y-65093749D01*
X85220094Y-65205306D01*
X85167564Y-65303581D01*
X85076073Y-65474749D01*
X84882253Y-65710920D01*
X84646082Y-65904740D01*
X84474914Y-65996231D01*
X84376639Y-66048761D01*
X84316512Y-66067000D01*
X84084273Y-66137449D01*
X83932367Y-66152410D01*
X83856415Y-66159891D01*
X83704033Y-66159891D01*
X83628081Y-66152410D01*
X83476175Y-66137449D01*
X83243936Y-66067000D01*
X83183809Y-66048761D01*
X83085534Y-65996231D01*
X82914366Y-65904740D01*
X82678195Y-65710920D01*
X82484375Y-65474749D01*
X82392884Y-65303581D01*
X82340354Y-65205306D01*
X82306514Y-65093749D01*
X82251666Y-64912940D01*
X82221720Y-64608891D01*
X82251666Y-64304842D01*
X82340354Y-64012477D01*
X82340354Y-64012476D01*
X82437382Y-63830951D01*
X82484375Y-63743033D01*
X82678195Y-63506862D01*
X82914366Y-63313042D01*
X83088153Y-63220151D01*
X83183809Y-63169021D01*
X83281265Y-63139458D01*
X83476175Y-63080333D01*
X83628081Y-63065372D01*
X83704033Y-63057891D01*
X83856415Y-63057891D01*
X83932367Y-63065372D01*
X83932367Y-63065372D01*
G37*
G36*
X91874143Y-62972481D02*
X92026049Y-62987442D01*
X92220959Y-63046567D01*
X92318415Y-63076130D01*
X92411456Y-63125862D01*
X92587858Y-63220151D01*
X92824029Y-63413971D01*
X93017849Y-63650142D01*
X93067499Y-63743031D01*
X93161870Y-63919585D01*
X93161870Y-63919586D01*
X93250558Y-64211951D01*
X93280504Y-64516000D01*
X93250558Y-64820049D01*
X93195710Y-65000858D01*
X93161870Y-65112415D01*
X93112219Y-65205305D01*
X93017849Y-65381858D01*
X92824029Y-65618029D01*
X92587858Y-65811849D01*
X92416690Y-65903340D01*
X92318415Y-65955870D01*
X92220959Y-65985433D01*
X92026049Y-66044558D01*
X91874143Y-66059519D01*
X91798191Y-66067000D01*
X91645809Y-66067000D01*
X91569857Y-66059519D01*
X91417951Y-66044558D01*
X91223041Y-65985433D01*
X91125585Y-65955870D01*
X91027310Y-65903340D01*
X90856142Y-65811849D01*
X90619971Y-65618029D01*
X90426151Y-65381858D01*
X90331781Y-65205305D01*
X90282130Y-65112415D01*
X90248290Y-65000858D01*
X90193442Y-64820049D01*
X90163496Y-64516000D01*
X90193442Y-64211951D01*
X90282130Y-63919586D01*
X90282130Y-63919585D01*
X90376501Y-63743031D01*
X90426151Y-63650142D01*
X90619971Y-63413971D01*
X90856142Y-63220151D01*
X91032544Y-63125862D01*
X91125585Y-63076130D01*
X91223041Y-63046567D01*
X91417951Y-62987442D01*
X91569857Y-62972481D01*
X91645809Y-62965000D01*
X91798191Y-62965000D01*
X91874143Y-62972481D01*
X91874143Y-62972481D01*
G37*
G36*
X67120919Y-62684372D02*
X67272825Y-62699333D01*
X67467735Y-62758458D01*
X67565191Y-62788021D01*
X67660847Y-62839151D01*
X67834634Y-62932042D01*
X68070805Y-63125862D01*
X68264625Y-63362033D01*
X68292386Y-63413971D01*
X68408646Y-63631476D01*
X68414308Y-63650142D01*
X68497334Y-63923842D01*
X68527280Y-64227891D01*
X68497334Y-64531940D01*
X68473991Y-64608891D01*
X68408646Y-64824306D01*
X68361271Y-64912938D01*
X68264625Y-65093749D01*
X68070805Y-65329920D01*
X67834634Y-65523740D01*
X67663466Y-65615231D01*
X67565191Y-65667761D01*
X67505064Y-65686000D01*
X67272825Y-65756449D01*
X67120919Y-65771410D01*
X67044967Y-65778891D01*
X66892585Y-65778891D01*
X66816633Y-65771410D01*
X66664727Y-65756449D01*
X66432488Y-65686000D01*
X66372361Y-65667761D01*
X66274086Y-65615231D01*
X66102918Y-65523740D01*
X65866747Y-65329920D01*
X65672927Y-65093749D01*
X65576281Y-64912938D01*
X65528906Y-64824306D01*
X65463561Y-64608891D01*
X65440218Y-64531940D01*
X65410272Y-64227891D01*
X65440218Y-63923842D01*
X65523244Y-63650142D01*
X65528906Y-63631476D01*
X65645166Y-63413971D01*
X65672927Y-63362033D01*
X65866747Y-63125862D01*
X66102918Y-62932042D01*
X66276705Y-62839151D01*
X66372361Y-62788021D01*
X66469817Y-62758458D01*
X66664727Y-62699333D01*
X66816633Y-62684372D01*
X66892585Y-62676891D01*
X67044967Y-62676891D01*
X67120919Y-62684372D01*
X67120919Y-62684372D01*
G37*
G36*
X45677367Y-62684372D02*
X45829273Y-62699333D01*
X46024183Y-62758458D01*
X46121639Y-62788021D01*
X46217295Y-62839151D01*
X46391082Y-62932042D01*
X46627253Y-63125862D01*
X46821073Y-63362033D01*
X46848834Y-63413971D01*
X46965094Y-63631476D01*
X46970756Y-63650142D01*
X47053782Y-63923842D01*
X47083728Y-64227891D01*
X47053782Y-64531940D01*
X47030439Y-64608891D01*
X46965094Y-64824306D01*
X46917719Y-64912938D01*
X46821073Y-65093749D01*
X46627253Y-65329920D01*
X46391082Y-65523740D01*
X46219914Y-65615231D01*
X46121639Y-65667761D01*
X46061512Y-65686000D01*
X45829273Y-65756449D01*
X45677367Y-65771410D01*
X45601415Y-65778891D01*
X45449033Y-65778891D01*
X45373081Y-65771410D01*
X45221175Y-65756449D01*
X44988936Y-65686000D01*
X44928809Y-65667761D01*
X44830534Y-65615231D01*
X44659366Y-65523740D01*
X44423195Y-65329920D01*
X44229375Y-65093749D01*
X44132729Y-64912938D01*
X44085354Y-64824306D01*
X44020009Y-64608891D01*
X43996666Y-64531940D01*
X43966720Y-64227891D01*
X43996666Y-63923842D01*
X44079692Y-63650142D01*
X44085354Y-63631476D01*
X44201614Y-63413971D01*
X44229375Y-63362033D01*
X44423195Y-63125862D01*
X44659366Y-62932042D01*
X44833153Y-62839151D01*
X44928809Y-62788021D01*
X45026265Y-62758458D01*
X45221175Y-62699333D01*
X45373081Y-62684372D01*
X45449033Y-62676891D01*
X45601415Y-62676891D01*
X45677367Y-62684372D01*
X45677367Y-62684372D01*
G37*
G36*
X53619143Y-62591481D02*
X53771049Y-62606442D01*
X53965959Y-62665567D01*
X54063415Y-62695130D01*
X54161690Y-62747660D01*
X54332858Y-62839151D01*
X54569029Y-63032971D01*
X54762849Y-63269142D01*
X54832794Y-63400000D01*
X54906870Y-63538585D01*
X54906870Y-63538586D01*
X54995558Y-63830951D01*
X55025504Y-64135000D01*
X54995558Y-64439049D01*
X54944037Y-64608891D01*
X54906870Y-64731415D01*
X54859495Y-64820047D01*
X54762849Y-65000858D01*
X54569029Y-65237029D01*
X54332858Y-65430849D01*
X54161690Y-65522340D01*
X54063415Y-65574870D01*
X53965959Y-65604433D01*
X53771049Y-65663558D01*
X53619143Y-65678519D01*
X53543191Y-65686000D01*
X53390809Y-65686000D01*
X53314857Y-65678519D01*
X53162951Y-65663558D01*
X52968041Y-65604433D01*
X52870585Y-65574870D01*
X52772310Y-65522340D01*
X52601142Y-65430849D01*
X52364971Y-65237029D01*
X52171151Y-65000858D01*
X52074505Y-64820047D01*
X52027130Y-64731415D01*
X51989963Y-64608891D01*
X51938442Y-64439049D01*
X51908496Y-64135000D01*
X51938442Y-63830951D01*
X52027130Y-63538586D01*
X52027130Y-63538585D01*
X52101206Y-63400000D01*
X52171151Y-63269142D01*
X52364971Y-63032971D01*
X52601142Y-62839151D01*
X52772310Y-62747660D01*
X52870585Y-62695130D01*
X52968041Y-62665567D01*
X53162951Y-62606442D01*
X53314857Y-62591481D01*
X53390809Y-62584000D01*
X53543191Y-62584000D01*
X53619143Y-62591481D01*
X53619143Y-62591481D01*
G37*
G36*
X76064743Y-60302979D02*
X76242049Y-60320442D01*
X76436959Y-60379567D01*
X76534415Y-60409130D01*
X76632690Y-60461660D01*
X76803858Y-60553151D01*
X77040029Y-60746971D01*
X77233849Y-60983142D01*
X77325340Y-61154310D01*
X77377870Y-61252585D01*
X77377870Y-61252586D01*
X77466558Y-61544951D01*
X77496504Y-61849000D01*
X77466558Y-62153049D01*
X77407433Y-62347959D01*
X77377870Y-62445415D01*
X77325340Y-62543690D01*
X77233849Y-62714858D01*
X77040029Y-62951029D01*
X76803858Y-63144849D01*
X76662978Y-63220151D01*
X76534415Y-63288870D01*
X76454730Y-63313042D01*
X76242049Y-63377558D01*
X76090143Y-63392519D01*
X76014191Y-63400000D01*
X74861809Y-63400000D01*
X74785857Y-63392519D01*
X74633951Y-63377558D01*
X74421270Y-63313042D01*
X74341585Y-63288870D01*
X74213022Y-63220151D01*
X74072142Y-63144849D01*
X73835971Y-62951029D01*
X73642151Y-62714858D01*
X73550660Y-62543690D01*
X73498130Y-62445415D01*
X73468567Y-62347959D01*
X73409442Y-62153049D01*
X73379496Y-61849000D01*
X73409442Y-61544951D01*
X73498130Y-61252586D01*
X73498130Y-61252585D01*
X73550660Y-61154310D01*
X73642151Y-60983142D01*
X73835971Y-60746971D01*
X74072142Y-60553151D01*
X74243310Y-60461660D01*
X74341585Y-60409130D01*
X74439041Y-60379567D01*
X74633951Y-60320442D01*
X74811257Y-60302979D01*
X74861809Y-60298000D01*
X76014191Y-60298000D01*
X76064743Y-60302979D01*
X76064743Y-60302979D01*
G37*
G36*
X97434143Y-57412481D02*
X97586049Y-57427442D01*
X97780959Y-57486567D01*
X97878415Y-57516130D01*
X97974071Y-57567260D01*
X98147858Y-57660151D01*
X98384029Y-57853971D01*
X98577849Y-58090142D01*
X98624842Y-58178060D01*
X98721870Y-58359585D01*
X98721870Y-58359586D01*
X98810558Y-58651951D01*
X98840504Y-58956000D01*
X98810558Y-59260049D01*
X98755710Y-59440858D01*
X98721870Y-59552415D01*
X98669340Y-59650690D01*
X98577849Y-59821858D01*
X98384029Y-60058029D01*
X98147858Y-60251849D01*
X97976690Y-60343340D01*
X97878415Y-60395870D01*
X97834702Y-60409130D01*
X97586049Y-60484558D01*
X97434143Y-60499519D01*
X97358191Y-60507000D01*
X97205809Y-60507000D01*
X97129857Y-60499519D01*
X96977951Y-60484558D01*
X96729298Y-60409130D01*
X96685585Y-60395870D01*
X96587310Y-60343340D01*
X96416142Y-60251849D01*
X96179971Y-60058029D01*
X95986151Y-59821858D01*
X95894660Y-59650690D01*
X95842130Y-59552415D01*
X95808290Y-59440858D01*
X95753442Y-59260049D01*
X95723496Y-58956000D01*
X95753442Y-58651951D01*
X95842130Y-58359586D01*
X95842130Y-58359585D01*
X95939158Y-58178060D01*
X95986151Y-58090142D01*
X96179971Y-57853971D01*
X96416142Y-57660151D01*
X96589929Y-57567260D01*
X96685585Y-57516130D01*
X96783041Y-57486567D01*
X96977951Y-57427442D01*
X97129857Y-57412481D01*
X97205809Y-57405000D01*
X97358191Y-57405000D01*
X97434143Y-57412481D01*
X97434143Y-57412481D01*
G37*
G36*
X105375919Y-57319590D02*
X105527825Y-57334551D01*
X105722735Y-57393676D01*
X105820191Y-57423239D01*
X105913232Y-57472971D01*
X106089634Y-57567260D01*
X106325805Y-57761080D01*
X106519625Y-57997251D01*
X106569275Y-58090140D01*
X106663646Y-58266694D01*
X106663646Y-58266695D01*
X106752334Y-58559060D01*
X106782280Y-58863109D01*
X106752334Y-59167158D01*
X106697486Y-59347967D01*
X106663646Y-59459524D01*
X106613995Y-59552414D01*
X106519625Y-59728967D01*
X106325805Y-59965138D01*
X106089634Y-60158958D01*
X105918466Y-60250449D01*
X105820191Y-60302979D01*
X105722735Y-60332542D01*
X105527825Y-60391667D01*
X105375919Y-60406628D01*
X105299967Y-60414109D01*
X105147585Y-60414109D01*
X105071633Y-60406628D01*
X104919727Y-60391667D01*
X104724817Y-60332542D01*
X104627361Y-60302979D01*
X104529086Y-60250449D01*
X104357918Y-60158958D01*
X104121747Y-59965138D01*
X103927927Y-59728967D01*
X103833557Y-59552414D01*
X103783906Y-59459524D01*
X103750066Y-59347967D01*
X103695218Y-59167158D01*
X103665272Y-58863109D01*
X103695218Y-58559060D01*
X103783906Y-58266695D01*
X103783906Y-58266694D01*
X103878277Y-58090140D01*
X103927927Y-57997251D01*
X104121747Y-57761080D01*
X104357918Y-57567260D01*
X104534320Y-57472971D01*
X104627361Y-57423239D01*
X104724817Y-57393676D01*
X104919727Y-57334551D01*
X105071633Y-57319590D01*
X105147585Y-57312109D01*
X105299967Y-57312109D01*
X105375919Y-57319590D01*
X105375919Y-57319590D01*
G37*
G36*
X83932367Y-57319590D02*
X84084273Y-57334551D01*
X84279183Y-57393676D01*
X84376639Y-57423239D01*
X84469680Y-57472971D01*
X84646082Y-57567260D01*
X84882253Y-57761080D01*
X85076073Y-57997251D01*
X85125723Y-58090140D01*
X85220094Y-58266694D01*
X85220094Y-58266695D01*
X85308782Y-58559060D01*
X85338728Y-58863109D01*
X85308782Y-59167158D01*
X85253934Y-59347967D01*
X85220094Y-59459524D01*
X85170443Y-59552414D01*
X85076073Y-59728967D01*
X84882253Y-59965138D01*
X84646082Y-60158958D01*
X84474914Y-60250449D01*
X84376639Y-60302979D01*
X84279183Y-60332542D01*
X84084273Y-60391667D01*
X83932367Y-60406628D01*
X83856415Y-60414109D01*
X83704033Y-60414109D01*
X83628081Y-60406628D01*
X83476175Y-60391667D01*
X83281265Y-60332542D01*
X83183809Y-60302979D01*
X83085534Y-60250449D01*
X82914366Y-60158958D01*
X82678195Y-59965138D01*
X82484375Y-59728967D01*
X82390005Y-59552414D01*
X82340354Y-59459524D01*
X82306514Y-59347967D01*
X82251666Y-59167158D01*
X82221720Y-58863109D01*
X82251666Y-58559060D01*
X82340354Y-58266695D01*
X82340354Y-58266694D01*
X82434725Y-58090140D01*
X82484375Y-57997251D01*
X82678195Y-57761080D01*
X82914366Y-57567260D01*
X83090768Y-57472971D01*
X83183809Y-57423239D01*
X83281265Y-57393676D01*
X83476175Y-57334551D01*
X83628081Y-57319590D01*
X83704033Y-57312109D01*
X83856415Y-57312109D01*
X83932367Y-57319590D01*
X83932367Y-57319590D01*
G37*
G36*
X59179143Y-57031481D02*
X59331049Y-57046442D01*
X59525959Y-57105567D01*
X59623415Y-57135130D01*
X59719071Y-57186260D01*
X59892858Y-57279151D01*
X60129029Y-57472971D01*
X60322849Y-57709142D01*
X60350610Y-57761080D01*
X60466870Y-57978585D01*
X60472532Y-57997251D01*
X60555558Y-58270951D01*
X60585504Y-58575000D01*
X60555558Y-58879049D01*
X60532215Y-58956000D01*
X60466870Y-59171415D01*
X60419495Y-59260047D01*
X60322849Y-59440858D01*
X60129029Y-59677029D01*
X59892858Y-59870849D01*
X59721690Y-59962340D01*
X59623415Y-60014870D01*
X59563288Y-60033109D01*
X59331049Y-60103558D01*
X59179143Y-60118519D01*
X59103191Y-60126000D01*
X58950809Y-60126000D01*
X58874857Y-60118519D01*
X58722951Y-60103558D01*
X58490712Y-60033109D01*
X58430585Y-60014870D01*
X58332310Y-59962340D01*
X58161142Y-59870849D01*
X57924971Y-59677029D01*
X57731151Y-59440858D01*
X57634505Y-59260047D01*
X57587130Y-59171415D01*
X57521785Y-58956000D01*
X57498442Y-58879049D01*
X57468496Y-58575000D01*
X57498442Y-58270951D01*
X57581468Y-57997251D01*
X57587130Y-57978585D01*
X57703390Y-57761080D01*
X57731151Y-57709142D01*
X57924971Y-57472971D01*
X58161142Y-57279151D01*
X58334929Y-57186260D01*
X58430585Y-57135130D01*
X58528041Y-57105567D01*
X58722951Y-57046442D01*
X58874857Y-57031481D01*
X58950809Y-57024000D01*
X59103191Y-57024000D01*
X59179143Y-57031481D01*
X59179143Y-57031481D01*
G37*
G36*
X45677367Y-56938590D02*
X45829273Y-56953551D01*
X46024183Y-57012676D01*
X46121639Y-57042239D01*
X46219914Y-57094769D01*
X46391082Y-57186260D01*
X46627253Y-57380080D01*
X46821073Y-57616251D01*
X46870723Y-57709140D01*
X46965094Y-57885694D01*
X46965094Y-57885695D01*
X47053782Y-58178060D01*
X47083728Y-58482109D01*
X47053782Y-58786158D01*
X47002261Y-58956000D01*
X46965094Y-59078524D01*
X46917719Y-59167156D01*
X46821073Y-59347967D01*
X46627253Y-59584138D01*
X46391082Y-59777958D01*
X46219914Y-59869449D01*
X46121639Y-59921979D01*
X46024183Y-59951542D01*
X45829273Y-60010667D01*
X45677367Y-60025628D01*
X45601415Y-60033109D01*
X45449033Y-60033109D01*
X45373081Y-60025628D01*
X45221175Y-60010667D01*
X45026265Y-59951542D01*
X44928809Y-59921979D01*
X44830534Y-59869449D01*
X44659366Y-59777958D01*
X44423195Y-59584138D01*
X44229375Y-59347967D01*
X44132729Y-59167156D01*
X44085354Y-59078524D01*
X44048187Y-58956000D01*
X43996666Y-58786158D01*
X43966720Y-58482109D01*
X43996666Y-58178060D01*
X44085354Y-57885695D01*
X44085354Y-57885694D01*
X44179725Y-57709140D01*
X44229375Y-57616251D01*
X44423195Y-57380080D01*
X44659366Y-57186260D01*
X44830534Y-57094769D01*
X44928809Y-57042239D01*
X45026265Y-57012676D01*
X45221175Y-56953551D01*
X45373081Y-56938590D01*
X45449033Y-56931109D01*
X45601415Y-56931109D01*
X45677367Y-56938590D01*
X45677367Y-56938590D01*
G37*
G36*
X67120919Y-56938590D02*
X67272825Y-56953551D01*
X67467735Y-57012676D01*
X67565191Y-57042239D01*
X67663466Y-57094769D01*
X67834634Y-57186260D01*
X68070805Y-57380080D01*
X68264625Y-57616251D01*
X68314275Y-57709140D01*
X68408646Y-57885694D01*
X68408646Y-57885695D01*
X68497334Y-58178060D01*
X68527280Y-58482109D01*
X68497334Y-58786158D01*
X68445813Y-58956000D01*
X68408646Y-59078524D01*
X68361271Y-59167156D01*
X68264625Y-59347967D01*
X68070805Y-59584138D01*
X67834634Y-59777958D01*
X67663466Y-59869449D01*
X67565191Y-59921979D01*
X67467735Y-59951542D01*
X67272825Y-60010667D01*
X67120919Y-60025628D01*
X67044967Y-60033109D01*
X66892585Y-60033109D01*
X66816633Y-60025628D01*
X66664727Y-60010667D01*
X66469817Y-59951542D01*
X66372361Y-59921979D01*
X66274086Y-59869449D01*
X66102918Y-59777958D01*
X65866747Y-59584138D01*
X65672927Y-59347967D01*
X65576281Y-59167156D01*
X65528906Y-59078524D01*
X65491739Y-58956000D01*
X65440218Y-58786158D01*
X65410272Y-58482109D01*
X65440218Y-58178060D01*
X65528906Y-57885695D01*
X65528906Y-57885694D01*
X65623277Y-57709140D01*
X65672927Y-57616251D01*
X65866747Y-57380080D01*
X66102918Y-57186260D01*
X66274086Y-57094769D01*
X66372361Y-57042239D01*
X66469817Y-57012676D01*
X66664727Y-56953551D01*
X66816633Y-56938590D01*
X66892585Y-56931109D01*
X67044967Y-56931109D01*
X67120919Y-56938590D01*
X67120919Y-56938590D01*
G37*
G36*
X102503028Y-52343596D02*
X102654934Y-52358557D01*
X102849844Y-52417682D01*
X102947300Y-52447245D01*
X102960113Y-52454094D01*
X103216743Y-52591266D01*
X103452914Y-52785086D01*
X103646734Y-53021257D01*
X103738225Y-53192425D01*
X103790755Y-53290700D01*
X103790755Y-53290701D01*
X103879443Y-53583066D01*
X103909389Y-53887115D01*
X103879443Y-54191164D01*
X103824595Y-54371973D01*
X103790755Y-54483530D01*
X103738225Y-54581805D01*
X103646734Y-54752973D01*
X103452914Y-54989144D01*
X103216743Y-55182964D01*
X103045575Y-55274455D01*
X102947300Y-55326985D01*
X102849844Y-55356548D01*
X102654934Y-55415673D01*
X102503028Y-55430634D01*
X102427076Y-55438115D01*
X102274694Y-55438115D01*
X102198742Y-55430634D01*
X102046836Y-55415673D01*
X101851926Y-55356548D01*
X101754470Y-55326985D01*
X101656195Y-55274455D01*
X101485027Y-55182964D01*
X101248856Y-54989144D01*
X101055036Y-54752973D01*
X100963545Y-54581805D01*
X100911015Y-54483530D01*
X100877175Y-54371973D01*
X100822327Y-54191164D01*
X100792381Y-53887115D01*
X100822327Y-53583066D01*
X100911015Y-53290701D01*
X100911015Y-53290700D01*
X100963545Y-53192425D01*
X101055036Y-53021257D01*
X101248856Y-52785086D01*
X101485027Y-52591266D01*
X101741657Y-52454094D01*
X101754470Y-52447245D01*
X101851926Y-52417682D01*
X102046836Y-52358557D01*
X102198742Y-52343596D01*
X102274694Y-52336115D01*
X102427076Y-52336115D01*
X102503028Y-52343596D01*
X102503028Y-52343596D01*
G37*
G36*
X86805258Y-52343596D02*
X86957164Y-52358557D01*
X87152074Y-52417682D01*
X87249530Y-52447245D01*
X87262343Y-52454094D01*
X87518973Y-52591266D01*
X87755144Y-52785086D01*
X87948964Y-53021257D01*
X88040455Y-53192425D01*
X88092985Y-53290700D01*
X88092985Y-53290701D01*
X88181673Y-53583066D01*
X88211619Y-53887115D01*
X88181673Y-54191164D01*
X88126825Y-54371973D01*
X88092985Y-54483530D01*
X88040455Y-54581805D01*
X87948964Y-54752973D01*
X87755144Y-54989144D01*
X87518973Y-55182964D01*
X87347805Y-55274455D01*
X87249530Y-55326985D01*
X87152074Y-55356548D01*
X86957164Y-55415673D01*
X86805258Y-55430634D01*
X86729306Y-55438115D01*
X86576924Y-55438115D01*
X86500972Y-55430634D01*
X86349066Y-55415673D01*
X86154156Y-55356548D01*
X86056700Y-55326985D01*
X85958425Y-55274455D01*
X85787257Y-55182964D01*
X85551086Y-54989144D01*
X85357266Y-54752973D01*
X85265775Y-54581805D01*
X85213245Y-54483530D01*
X85179405Y-54371973D01*
X85124557Y-54191164D01*
X85094611Y-53887115D01*
X85124557Y-53583066D01*
X85213245Y-53290701D01*
X85213245Y-53290700D01*
X85265775Y-53192425D01*
X85357266Y-53021257D01*
X85551086Y-52785086D01*
X85787257Y-52591266D01*
X86043887Y-52454094D01*
X86056700Y-52447245D01*
X86154156Y-52417682D01*
X86349066Y-52358557D01*
X86500972Y-52343596D01*
X86576924Y-52336115D01*
X86729306Y-52336115D01*
X86805258Y-52343596D01*
X86805258Y-52343596D01*
G37*
G36*
X48550258Y-51962596D02*
X48702164Y-51977557D01*
X48897074Y-52036682D01*
X48994530Y-52066245D01*
X49007343Y-52073094D01*
X49263973Y-52210266D01*
X49500144Y-52404086D01*
X49693964Y-52640257D01*
X49771377Y-52785086D01*
X49837985Y-52909700D01*
X49837985Y-52909701D01*
X49926673Y-53202066D01*
X49956619Y-53506115D01*
X49926673Y-53810164D01*
X49903330Y-53887115D01*
X49837985Y-54102530D01*
X49790610Y-54191162D01*
X49693964Y-54371973D01*
X49500144Y-54608144D01*
X49263973Y-54801964D01*
X49092805Y-54893455D01*
X48994530Y-54945985D01*
X48897074Y-54975548D01*
X48702164Y-55034673D01*
X48550258Y-55049634D01*
X48474306Y-55057115D01*
X48321924Y-55057115D01*
X48245972Y-55049634D01*
X48094066Y-55034673D01*
X47899156Y-54975548D01*
X47801700Y-54945985D01*
X47703425Y-54893455D01*
X47532257Y-54801964D01*
X47296086Y-54608144D01*
X47102266Y-54371973D01*
X47005620Y-54191162D01*
X46958245Y-54102530D01*
X46892900Y-53887115D01*
X46869557Y-53810164D01*
X46839611Y-53506115D01*
X46869557Y-53202066D01*
X46958245Y-52909701D01*
X46958245Y-52909700D01*
X47024853Y-52785086D01*
X47102266Y-52640257D01*
X47296086Y-52404086D01*
X47532257Y-52210266D01*
X47788887Y-52073094D01*
X47801700Y-52066245D01*
X47899156Y-52036682D01*
X48094066Y-51977557D01*
X48245972Y-51962596D01*
X48321924Y-51955115D01*
X48474306Y-51955115D01*
X48550258Y-51962596D01*
X48550258Y-51962596D01*
G37*
G36*
X64248028Y-51962596D02*
X64399934Y-51977557D01*
X64594844Y-52036682D01*
X64692300Y-52066245D01*
X64705113Y-52073094D01*
X64961743Y-52210266D01*
X65197914Y-52404086D01*
X65391734Y-52640257D01*
X65469147Y-52785086D01*
X65535755Y-52909700D01*
X65535755Y-52909701D01*
X65624443Y-53202066D01*
X65654389Y-53506115D01*
X65624443Y-53810164D01*
X65601100Y-53887115D01*
X65535755Y-54102530D01*
X65488380Y-54191162D01*
X65391734Y-54371973D01*
X65197914Y-54608144D01*
X64961743Y-54801964D01*
X64790575Y-54893455D01*
X64692300Y-54945985D01*
X64594844Y-54975548D01*
X64399934Y-55034673D01*
X64248028Y-55049634D01*
X64172076Y-55057115D01*
X64019694Y-55057115D01*
X63943742Y-55049634D01*
X63791836Y-55034673D01*
X63596926Y-54975548D01*
X63499470Y-54945985D01*
X63401195Y-54893455D01*
X63230027Y-54801964D01*
X62993856Y-54608144D01*
X62800036Y-54371973D01*
X62703390Y-54191162D01*
X62656015Y-54102530D01*
X62590670Y-53887115D01*
X62567327Y-53810164D01*
X62537381Y-53506115D01*
X62567327Y-53202066D01*
X62656015Y-52909701D01*
X62656015Y-52909700D01*
X62722623Y-52785086D01*
X62800036Y-52640257D01*
X62993856Y-52404086D01*
X63230027Y-52210266D01*
X63486657Y-52073094D01*
X63499470Y-52066245D01*
X63596926Y-52036682D01*
X63791836Y-51977557D01*
X63943742Y-51962596D01*
X64019694Y-51955115D01*
X64172076Y-51955115D01*
X64248028Y-51962596D01*
X64248028Y-51962596D01*
G37*
G36*
X97527034Y-49470705D02*
X97678940Y-49485666D01*
X97873850Y-49544791D01*
X97971306Y-49574354D01*
X98069581Y-49626884D01*
X98240749Y-49718375D01*
X98476920Y-49912195D01*
X98670740Y-50148366D01*
X98762231Y-50319534D01*
X98814761Y-50417809D01*
X98814761Y-50417810D01*
X98903449Y-50710175D01*
X98933395Y-51014224D01*
X98903449Y-51318273D01*
X98848601Y-51499082D01*
X98814761Y-51610639D01*
X98762231Y-51708914D01*
X98670740Y-51880082D01*
X98476920Y-52116253D01*
X98240749Y-52310073D01*
X98069581Y-52401564D01*
X97971306Y-52454094D01*
X97873850Y-52483657D01*
X97678940Y-52542782D01*
X97527034Y-52557743D01*
X97451082Y-52565224D01*
X97298700Y-52565224D01*
X97222748Y-52557743D01*
X97070842Y-52542782D01*
X96875932Y-52483657D01*
X96778476Y-52454094D01*
X96680201Y-52401564D01*
X96509033Y-52310073D01*
X96272862Y-52116253D01*
X96079042Y-51880082D01*
X95987551Y-51708914D01*
X95935021Y-51610639D01*
X95901181Y-51499082D01*
X95846333Y-51318273D01*
X95816387Y-51014224D01*
X95846333Y-50710175D01*
X95935021Y-50417810D01*
X95935021Y-50417809D01*
X95987551Y-50319534D01*
X96079042Y-50148366D01*
X96272862Y-49912195D01*
X96509033Y-49718375D01*
X96680201Y-49626884D01*
X96778476Y-49574354D01*
X96875932Y-49544791D01*
X97070842Y-49485666D01*
X97222748Y-49470705D01*
X97298700Y-49463224D01*
X97451082Y-49463224D01*
X97527034Y-49470705D01*
X97527034Y-49470705D01*
G37*
G36*
X91781252Y-49470705D02*
X91933158Y-49485666D01*
X92128068Y-49544791D01*
X92225524Y-49574354D01*
X92323799Y-49626884D01*
X92494967Y-49718375D01*
X92731138Y-49912195D01*
X92924958Y-50148366D01*
X93016449Y-50319534D01*
X93068979Y-50417809D01*
X93068979Y-50417810D01*
X93157667Y-50710175D01*
X93187613Y-51014224D01*
X93157667Y-51318273D01*
X93102819Y-51499082D01*
X93068979Y-51610639D01*
X93016449Y-51708914D01*
X92924958Y-51880082D01*
X92731138Y-52116253D01*
X92494967Y-52310073D01*
X92323799Y-52401564D01*
X92225524Y-52454094D01*
X92128068Y-52483657D01*
X91933158Y-52542782D01*
X91781252Y-52557743D01*
X91705300Y-52565224D01*
X91552918Y-52565224D01*
X91476966Y-52557743D01*
X91325060Y-52542782D01*
X91130150Y-52483657D01*
X91032694Y-52454094D01*
X90934419Y-52401564D01*
X90763251Y-52310073D01*
X90527080Y-52116253D01*
X90333260Y-51880082D01*
X90241769Y-51708914D01*
X90189239Y-51610639D01*
X90155399Y-51499082D01*
X90100551Y-51318273D01*
X90070605Y-51014224D01*
X90100551Y-50710175D01*
X90189239Y-50417810D01*
X90189239Y-50417809D01*
X90241769Y-50319534D01*
X90333260Y-50148366D01*
X90527080Y-49912195D01*
X90763251Y-49718375D01*
X90934419Y-49626884D01*
X91032694Y-49574354D01*
X91130150Y-49544791D01*
X91325060Y-49485666D01*
X91476966Y-49470705D01*
X91552918Y-49463224D01*
X91705300Y-49463224D01*
X91781252Y-49470705D01*
X91781252Y-49470705D01*
G37*
G36*
X53526252Y-49089705D02*
X53678158Y-49104666D01*
X53873068Y-49163791D01*
X53970524Y-49193354D01*
X54068799Y-49245884D01*
X54239967Y-49337375D01*
X54476138Y-49531195D01*
X54669958Y-49767366D01*
X54747371Y-49912195D01*
X54813979Y-50036809D01*
X54813979Y-50036810D01*
X54902667Y-50329175D01*
X54932613Y-50633224D01*
X54902667Y-50937273D01*
X54879324Y-51014224D01*
X54813979Y-51229639D01*
X54766604Y-51318271D01*
X54669958Y-51499082D01*
X54476138Y-51735253D01*
X54239967Y-51929073D01*
X54068799Y-52020564D01*
X53970524Y-52073094D01*
X53873068Y-52102657D01*
X53678158Y-52161782D01*
X53526252Y-52176743D01*
X53450300Y-52184224D01*
X53297918Y-52184224D01*
X53221966Y-52176743D01*
X53070060Y-52161782D01*
X52875150Y-52102657D01*
X52777694Y-52073094D01*
X52679419Y-52020564D01*
X52508251Y-51929073D01*
X52272080Y-51735253D01*
X52078260Y-51499082D01*
X51981614Y-51318271D01*
X51934239Y-51229639D01*
X51868894Y-51014224D01*
X51845551Y-50937273D01*
X51815605Y-50633224D01*
X51845551Y-50329175D01*
X51934239Y-50036810D01*
X51934239Y-50036809D01*
X52000847Y-49912195D01*
X52078260Y-49767366D01*
X52272080Y-49531195D01*
X52508251Y-49337375D01*
X52679419Y-49245884D01*
X52777694Y-49193354D01*
X52875150Y-49163791D01*
X53070060Y-49104666D01*
X53221966Y-49089705D01*
X53297918Y-49082224D01*
X53450300Y-49082224D01*
X53526252Y-49089705D01*
X53526252Y-49089705D01*
G37*
G36*
X59272034Y-49089705D02*
X59423940Y-49104666D01*
X59618850Y-49163791D01*
X59716306Y-49193354D01*
X59814581Y-49245884D01*
X59985749Y-49337375D01*
X60221920Y-49531195D01*
X60415740Y-49767366D01*
X60493153Y-49912195D01*
X60559761Y-50036809D01*
X60559761Y-50036810D01*
X60648449Y-50329175D01*
X60678395Y-50633224D01*
X60648449Y-50937273D01*
X60625106Y-51014224D01*
X60559761Y-51229639D01*
X60512386Y-51318271D01*
X60415740Y-51499082D01*
X60221920Y-51735253D01*
X59985749Y-51929073D01*
X59814581Y-52020564D01*
X59716306Y-52073094D01*
X59618850Y-52102657D01*
X59423940Y-52161782D01*
X59272034Y-52176743D01*
X59196082Y-52184224D01*
X59043700Y-52184224D01*
X58967748Y-52176743D01*
X58815842Y-52161782D01*
X58620932Y-52102657D01*
X58523476Y-52073094D01*
X58425201Y-52020564D01*
X58254033Y-51929073D01*
X58017862Y-51735253D01*
X57824042Y-51499082D01*
X57727396Y-51318271D01*
X57680021Y-51229639D01*
X57614676Y-51014224D01*
X57591333Y-50937273D01*
X57561387Y-50633224D01*
X57591333Y-50329175D01*
X57680021Y-50036810D01*
X57680021Y-50036809D01*
X57746629Y-49912195D01*
X57824042Y-49767366D01*
X58017862Y-49531195D01*
X58254033Y-49337375D01*
X58425201Y-49245884D01*
X58523476Y-49193354D01*
X58620932Y-49163791D01*
X58815842Y-49104666D01*
X58967748Y-49089705D01*
X59043700Y-49082224D01*
X59196082Y-49082224D01*
X59272034Y-49089705D01*
X59272034Y-49089705D01*
G37*
G36*
X79884600Y-46757867D02*
X79975059Y-46775860D01*
X80111732Y-46832472D01*
X80168715Y-46870547D01*
X80234738Y-46914662D01*
X80339338Y-47019262D01*
X80339340Y-47019265D01*
X80421528Y-47142268D01*
X80478140Y-47278941D01*
X80507000Y-47424033D01*
X80507000Y-47571967D01*
X80478140Y-47717059D01*
X80421528Y-47853732D01*
X80340446Y-47975079D01*
X80339338Y-47976738D01*
X80234738Y-48081338D01*
X80234735Y-48081340D01*
X80111732Y-48163528D01*
X79975059Y-48220140D01*
X79888004Y-48237456D01*
X79829969Y-48249000D01*
X79682031Y-48249000D01*
X79623996Y-48237456D01*
X79536941Y-48220140D01*
X79400268Y-48163528D01*
X79277265Y-48081340D01*
X79277262Y-48081338D01*
X79172662Y-47976738D01*
X79171554Y-47975079D01*
X79090472Y-47853732D01*
X79033860Y-47717059D01*
X79005000Y-47571967D01*
X79005000Y-47424033D01*
X79033860Y-47278941D01*
X79090472Y-47142268D01*
X79172660Y-47019265D01*
X79172662Y-47019262D01*
X79277262Y-46914662D01*
X79343285Y-46870547D01*
X79400268Y-46832472D01*
X79536941Y-46775860D01*
X79627400Y-46757867D01*
X79682031Y-46747000D01*
X79829969Y-46747000D01*
X79884600Y-46757867D01*
X79884600Y-46757867D01*
G37*
G36*
X72209665Y-46750622D02*
X72283222Y-46757867D01*
X72424786Y-46800810D01*
X72555252Y-46870546D01*
X72669606Y-46964394D01*
X72763454Y-47078748D01*
X72833190Y-47209214D01*
X72876133Y-47350778D01*
X72890633Y-47498000D01*
X72876133Y-47645222D01*
X72833190Y-47786786D01*
X72763454Y-47917252D01*
X72669606Y-48031606D01*
X72555252Y-48125454D01*
X72424786Y-48195190D01*
X72283222Y-48238133D01*
X72209665Y-48245378D01*
X72172888Y-48249000D01*
X72099112Y-48249000D01*
X72062335Y-48245378D01*
X71988778Y-48238133D01*
X71847214Y-48195190D01*
X71716748Y-48125454D01*
X71602394Y-48031606D01*
X71508546Y-47917252D01*
X71438810Y-47786786D01*
X71395867Y-47645222D01*
X71381367Y-47498000D01*
X71395867Y-47350778D01*
X71438810Y-47209214D01*
X71508546Y-47078748D01*
X71602394Y-46964394D01*
X71716748Y-46870546D01*
X71847214Y-46800810D01*
X71988778Y-46757867D01*
X72062335Y-46750622D01*
X72099112Y-46747000D01*
X72172888Y-46747000D01*
X72209665Y-46750622D01*
X72209665Y-46750622D01*
G37*
G36*
X107563256Y-42587298D02*
X107669579Y-42608447D01*
X107970042Y-42732903D01*
X107990346Y-42746470D01*
X108240454Y-42913587D01*
X108470413Y-43143546D01*
X108470415Y-43143549D01*
X108638929Y-43395747D01*
X108651098Y-43413960D01*
X108661474Y-43439011D01*
X108756234Y-43667780D01*
X108775553Y-43714422D01*
X108839000Y-44033389D01*
X108839000Y-44358611D01*
X108819318Y-44457556D01*
X108775553Y-44677579D01*
X108712433Y-44829963D01*
X108651098Y-44978040D01*
X108470413Y-45248454D01*
X108240454Y-45478413D01*
X108240451Y-45478415D01*
X107970042Y-45659097D01*
X107669579Y-45783553D01*
X107563256Y-45804702D01*
X107350611Y-45847000D01*
X107025389Y-45847000D01*
X106812744Y-45804702D01*
X106706421Y-45783553D01*
X106405958Y-45659097D01*
X106135549Y-45478415D01*
X106135546Y-45478413D01*
X105905587Y-45248454D01*
X105724902Y-44978040D01*
X105663567Y-44829963D01*
X105600447Y-44677579D01*
X105556682Y-44457556D01*
X105537000Y-44358611D01*
X105537000Y-44033389D01*
X105600447Y-43714422D01*
X105619767Y-43667780D01*
X105714526Y-43439011D01*
X105724902Y-43413960D01*
X105737072Y-43395747D01*
X105905585Y-43143549D01*
X105905587Y-43143546D01*
X106135546Y-42913587D01*
X106385654Y-42746470D01*
X106405958Y-42732903D01*
X106706421Y-42608447D01*
X106812744Y-42587298D01*
X107025389Y-42545000D01*
X107350611Y-42545000D01*
X107563256Y-42587298D01*
X107563256Y-42587298D01*
G37*
G36*
X44190256Y-42333298D02*
X44296579Y-42354447D01*
X44597042Y-42478903D01*
X44695963Y-42545000D01*
X44867454Y-42659587D01*
X45097413Y-42889546D01*
X45097415Y-42889549D01*
X45278097Y-43159958D01*
X45393685Y-43439011D01*
X45402553Y-43460422D01*
X45466000Y-43779389D01*
X45466000Y-44104611D01*
X45427585Y-44297733D01*
X45402553Y-44423579D01*
X45278097Y-44724042D01*
X45108379Y-44978042D01*
X45097413Y-44994454D01*
X44867454Y-45224413D01*
X44867451Y-45224415D01*
X44597042Y-45405097D01*
X44296579Y-45529553D01*
X44190256Y-45550702D01*
X43977611Y-45593000D01*
X43652389Y-45593000D01*
X43439744Y-45550702D01*
X43333421Y-45529553D01*
X43032958Y-45405097D01*
X42762549Y-45224415D01*
X42762546Y-45224413D01*
X42532587Y-44994454D01*
X42521621Y-44978042D01*
X42351903Y-44724042D01*
X42227447Y-44423579D01*
X42202415Y-44297733D01*
X42164000Y-44104611D01*
X42164000Y-43779389D01*
X42227447Y-43460422D01*
X42236316Y-43439011D01*
X42351903Y-43159958D01*
X42532585Y-42889549D01*
X42532587Y-42889546D01*
X42762546Y-42659587D01*
X42934037Y-42545000D01*
X43032958Y-42478903D01*
X43333421Y-42354447D01*
X43439744Y-42333298D01*
X43652389Y-42291000D01*
X43977611Y-42291000D01*
X44190256Y-42333298D01*
X44190256Y-42333298D01*
G37*
G36*
X85214180Y-42670662D02*
X85315635Y-42680654D01*
X85532600Y-42746470D01*
X85532602Y-42746471D01*
X85532605Y-42746472D01*
X85732556Y-42853347D01*
X85907818Y-42997182D01*
X86051653Y-43172444D01*
X86158528Y-43372395D01*
X86158529Y-43372398D01*
X86158530Y-43372400D01*
X86224346Y-43589365D01*
X86246569Y-43815000D01*
X86224346Y-44040635D01*
X86165612Y-44234253D01*
X86158528Y-44257605D01*
X86051653Y-44457556D01*
X85907818Y-44632818D01*
X85732556Y-44776653D01*
X85532605Y-44883528D01*
X85532602Y-44883529D01*
X85532600Y-44883530D01*
X85315635Y-44949346D01*
X85214180Y-44959338D01*
X85146545Y-44966000D01*
X85033455Y-44966000D01*
X84965820Y-44959338D01*
X84864365Y-44949346D01*
X84647400Y-44883530D01*
X84647398Y-44883529D01*
X84647395Y-44883528D01*
X84447444Y-44776653D01*
X84272182Y-44632818D01*
X84128347Y-44457556D01*
X84021472Y-44257605D01*
X84014388Y-44234253D01*
X83955654Y-44040635D01*
X83933431Y-43815000D01*
X83955654Y-43589365D01*
X84021470Y-43372400D01*
X84021471Y-43372398D01*
X84021472Y-43372395D01*
X84128347Y-43172444D01*
X84272182Y-42997182D01*
X84447444Y-42853347D01*
X84647395Y-42746472D01*
X84647398Y-42746471D01*
X84647400Y-42746470D01*
X84864365Y-42680654D01*
X84965820Y-42670662D01*
X85033455Y-42664000D01*
X85146545Y-42664000D01*
X85214180Y-42670662D01*
X85214180Y-42670662D01*
G37*
G36*
X93861000Y-44966000D02*
X91559000Y-44966000D01*
X91559000Y-42664000D01*
X93861000Y-42664000D01*
X93861000Y-44966000D01*
X93861000Y-44966000D01*
G37*
G36*
X100469000Y-44843000D02*
X98667000Y-44843000D01*
X98667000Y-43041000D01*
X100469000Y-43041000D01*
X100469000Y-44843000D01*
X100469000Y-44843000D01*
G37*
G36*
X102218442Y-43047518D02*
X102284627Y-43054037D01*
X102353294Y-43074867D01*
X102454467Y-43105557D01*
X102556246Y-43159960D01*
X102610991Y-43189222D01*
X102646729Y-43218552D01*
X102748186Y-43301814D01*
X102825274Y-43395747D01*
X102860778Y-43439009D01*
X102860779Y-43439011D01*
X102944443Y-43595533D01*
X102961616Y-43652147D01*
X102995963Y-43765373D01*
X103013359Y-43942000D01*
X102995963Y-44118627D01*
X102983092Y-44161056D01*
X102944443Y-44288467D01*
X102905538Y-44361252D01*
X102860778Y-44444991D01*
X102850467Y-44457555D01*
X102748186Y-44582186D01*
X102678725Y-44639190D01*
X102610991Y-44694778D01*
X102610989Y-44694779D01*
X102454467Y-44778443D01*
X102397853Y-44795616D01*
X102284627Y-44829963D01*
X102218442Y-44836482D01*
X102152260Y-44843000D01*
X102063740Y-44843000D01*
X101997558Y-44836482D01*
X101931373Y-44829963D01*
X101818147Y-44795616D01*
X101761533Y-44778443D01*
X101605011Y-44694779D01*
X101605009Y-44694778D01*
X101537275Y-44639190D01*
X101467814Y-44582186D01*
X101365533Y-44457555D01*
X101355222Y-44444991D01*
X101310462Y-44361252D01*
X101271557Y-44288467D01*
X101232908Y-44161056D01*
X101220037Y-44118627D01*
X101202641Y-43942000D01*
X101220037Y-43765373D01*
X101254384Y-43652147D01*
X101271557Y-43595533D01*
X101355221Y-43439011D01*
X101355222Y-43439009D01*
X101390726Y-43395747D01*
X101467814Y-43301814D01*
X101569271Y-43218552D01*
X101605009Y-43189222D01*
X101659754Y-43159960D01*
X101761533Y-43105557D01*
X101862706Y-43074867D01*
X101931373Y-43054037D01*
X101997557Y-43047519D01*
X102063740Y-43041000D01*
X102152260Y-43041000D01*
X102218442Y-43047518D01*
X102218442Y-43047518D01*
G37*
G36*
X60017665Y-43194622D02*
X60091222Y-43201867D01*
X60232786Y-43244810D01*
X60363252Y-43314546D01*
X60477606Y-43408394D01*
X60571454Y-43522748D01*
X60641190Y-43653214D01*
X60684133Y-43794778D01*
X60698633Y-43942000D01*
X60684133Y-44089222D01*
X60641190Y-44230786D01*
X60571454Y-44361252D01*
X60477606Y-44475606D01*
X60363252Y-44569454D01*
X60232786Y-44639190D01*
X60091222Y-44682133D01*
X60017665Y-44689378D01*
X59980888Y-44693000D01*
X59907112Y-44693000D01*
X59870335Y-44689378D01*
X59796778Y-44682133D01*
X59655214Y-44639190D01*
X59524748Y-44569454D01*
X59410394Y-44475606D01*
X59316546Y-44361252D01*
X59246810Y-44230786D01*
X59203867Y-44089222D01*
X59189367Y-43942000D01*
X59203867Y-43794778D01*
X59246810Y-43653214D01*
X59316546Y-43522748D01*
X59410394Y-43408394D01*
X59524748Y-43314546D01*
X59655214Y-43244810D01*
X59796778Y-43201867D01*
X59870335Y-43194622D01*
X59907112Y-43191000D01*
X59980888Y-43191000D01*
X60017665Y-43194622D01*
X60017665Y-43194622D01*
G37*
G36*
X67692600Y-43201867D02*
X67783059Y-43219860D01*
X67919732Y-43276472D01*
X68041079Y-43357554D01*
X68042738Y-43358662D01*
X68147338Y-43463262D01*
X68147340Y-43463265D01*
X68229528Y-43586268D01*
X68286140Y-43722941D01*
X68294580Y-43765373D01*
X68315000Y-43868031D01*
X68315000Y-44015969D01*
X68303456Y-44074004D01*
X68286140Y-44161059D01*
X68229528Y-44297732D01*
X68162305Y-44398338D01*
X68147338Y-44420738D01*
X68042738Y-44525338D01*
X68042735Y-44525340D01*
X67919732Y-44607528D01*
X67783059Y-44664140D01*
X67715500Y-44677578D01*
X67637969Y-44693000D01*
X67490031Y-44693000D01*
X67412500Y-44677578D01*
X67344941Y-44664140D01*
X67208268Y-44607528D01*
X67085265Y-44525340D01*
X67085262Y-44525338D01*
X66980662Y-44420738D01*
X66965695Y-44398338D01*
X66898472Y-44297732D01*
X66841860Y-44161059D01*
X66824544Y-44074004D01*
X66813000Y-44015969D01*
X66813000Y-43868031D01*
X66833420Y-43765373D01*
X66841860Y-43722941D01*
X66898472Y-43586268D01*
X66980660Y-43463265D01*
X66980662Y-43463262D01*
X67085262Y-43358662D01*
X67086921Y-43357554D01*
X67208268Y-43276472D01*
X67344941Y-43219860D01*
X67435400Y-43201867D01*
X67490031Y-43191000D01*
X67637969Y-43191000D01*
X67692600Y-43201867D01*
X67692600Y-43201867D01*
G37*
G36*
X48587665Y-43194622D02*
X48661222Y-43201867D01*
X48802786Y-43244810D01*
X48933252Y-43314546D01*
X49047606Y-43408394D01*
X49141454Y-43522748D01*
X49211190Y-43653214D01*
X49254133Y-43794778D01*
X49268633Y-43942000D01*
X49254133Y-44089222D01*
X49211190Y-44230786D01*
X49141454Y-44361252D01*
X49047606Y-44475606D01*
X48933252Y-44569454D01*
X48802786Y-44639190D01*
X48661222Y-44682133D01*
X48587665Y-44689378D01*
X48550888Y-44693000D01*
X48477112Y-44693000D01*
X48440335Y-44689378D01*
X48366778Y-44682133D01*
X48225214Y-44639190D01*
X48094748Y-44569454D01*
X47980394Y-44475606D01*
X47886546Y-44361252D01*
X47816810Y-44230786D01*
X47773867Y-44089222D01*
X47759367Y-43942000D01*
X47773867Y-43794778D01*
X47816810Y-43653214D01*
X47886546Y-43522748D01*
X47980394Y-43408394D01*
X48094748Y-43314546D01*
X48225214Y-43244810D01*
X48366778Y-43201867D01*
X48440335Y-43194622D01*
X48477112Y-43191000D01*
X48550888Y-43191000D01*
X48587665Y-43194622D01*
X48587665Y-43194622D01*
G37*
G36*
X56262600Y-43201867D02*
X56353059Y-43219860D01*
X56489732Y-43276472D01*
X56611079Y-43357554D01*
X56612738Y-43358662D01*
X56717338Y-43463262D01*
X56717340Y-43463265D01*
X56799528Y-43586268D01*
X56856140Y-43722941D01*
X56864580Y-43765373D01*
X56885000Y-43868031D01*
X56885000Y-44015969D01*
X56873456Y-44074004D01*
X56856140Y-44161059D01*
X56799528Y-44297732D01*
X56732305Y-44398338D01*
X56717338Y-44420738D01*
X56612738Y-44525338D01*
X56612735Y-44525340D01*
X56489732Y-44607528D01*
X56353059Y-44664140D01*
X56285500Y-44677578D01*
X56207969Y-44693000D01*
X56060031Y-44693000D01*
X55982500Y-44677578D01*
X55914941Y-44664140D01*
X55778268Y-44607528D01*
X55655265Y-44525340D01*
X55655262Y-44525338D01*
X55550662Y-44420738D01*
X55535695Y-44398338D01*
X55468472Y-44297732D01*
X55411860Y-44161059D01*
X55394544Y-44074004D01*
X55383000Y-44015969D01*
X55383000Y-43868031D01*
X55403420Y-43765373D01*
X55411860Y-43722941D01*
X55468472Y-43586268D01*
X55550660Y-43463265D01*
X55550662Y-43463262D01*
X55655262Y-43358662D01*
X55656921Y-43357554D01*
X55778268Y-43276472D01*
X55914941Y-43219860D01*
X56005400Y-43201867D01*
X56060031Y-43191000D01*
X56207969Y-43191000D01*
X56262600Y-43201867D01*
X56262600Y-43201867D01*
G37*
G36*
X79956665Y-43067622D02*
X80030222Y-43074867D01*
X80171786Y-43117810D01*
X80302252Y-43187546D01*
X80416606Y-43281394D01*
X80510454Y-43395748D01*
X80580190Y-43526214D01*
X80623133Y-43667778D01*
X80637633Y-43815000D01*
X80623133Y-43962222D01*
X80580190Y-44103786D01*
X80510454Y-44234252D01*
X80416606Y-44348606D01*
X80302252Y-44442454D01*
X80171786Y-44512190D01*
X80030222Y-44555133D01*
X79956665Y-44562378D01*
X79919888Y-44566000D01*
X79846112Y-44566000D01*
X79809335Y-44562378D01*
X79735778Y-44555133D01*
X79594214Y-44512190D01*
X79463748Y-44442454D01*
X79349394Y-44348606D01*
X79255546Y-44234252D01*
X79185810Y-44103786D01*
X79142867Y-43962222D01*
X79128367Y-43815000D01*
X79142867Y-43667778D01*
X79185810Y-43526214D01*
X79255546Y-43395748D01*
X79349394Y-43281394D01*
X79463748Y-43187546D01*
X79594214Y-43117810D01*
X79735778Y-43074867D01*
X79809335Y-43067622D01*
X79846112Y-43064000D01*
X79919888Y-43064000D01*
X79956665Y-43067622D01*
X79956665Y-43067622D01*
G37*
G36*
X72391600Y-43074867D02*
X72482059Y-43092860D01*
X72618732Y-43149472D01*
X72724075Y-43219860D01*
X72741738Y-43231662D01*
X72846338Y-43336262D01*
X72846340Y-43336265D01*
X72928528Y-43459268D01*
X72985140Y-43595941D01*
X72996532Y-43653214D01*
X73010402Y-43722941D01*
X73014000Y-43741033D01*
X73014000Y-43888967D01*
X72985140Y-44034059D01*
X72928528Y-44170732D01*
X72870485Y-44257600D01*
X72846338Y-44293738D01*
X72741738Y-44398338D01*
X72741735Y-44398340D01*
X72618732Y-44480528D01*
X72482059Y-44537140D01*
X72395004Y-44554456D01*
X72336969Y-44566000D01*
X72189031Y-44566000D01*
X72130996Y-44554456D01*
X72043941Y-44537140D01*
X71907268Y-44480528D01*
X71784265Y-44398340D01*
X71784262Y-44398338D01*
X71679662Y-44293738D01*
X71655515Y-44257600D01*
X71597472Y-44170732D01*
X71540860Y-44034059D01*
X71512000Y-43888967D01*
X71512000Y-43741033D01*
X71515599Y-43722941D01*
X71529468Y-43653214D01*
X71540860Y-43595941D01*
X71597472Y-43459268D01*
X71679660Y-43336265D01*
X71679662Y-43336262D01*
X71784262Y-43231662D01*
X71801925Y-43219860D01*
X71907268Y-43149472D01*
X72043941Y-43092860D01*
X72134400Y-43074867D01*
X72189031Y-43064000D01*
X72336969Y-43064000D01*
X72391600Y-43074867D01*
X72391600Y-43074867D01*
G37*
M02*
