G04 #@! TF.GenerationSoftware,KiCad,Pcbnew,5.0.1-33cea8e~68~ubuntu16.04.1*
G04 #@! TF.CreationDate,2018-12-21T13:37:05+01:00*
G04 #@! TF.ProjectId,EVSE-Easy-Test,455653452D456173792D546573742E6B,rev?*
G04 #@! TF.SameCoordinates,Original*
G04 #@! TF.FileFunction,Copper,L2,Bot,Signal*
G04 #@! TF.FilePolarity,Positive*
%FSLAX46Y46*%
G04 Gerber Fmt 4.6, Leading zero omitted, Abs format (unit mm)*
G04 Created by KiCad (PCBNEW 5.0.1-33cea8e~68~ubuntu16.04.1) date Fr 21 Dez 2018 13:37:05 CET*
%MOMM*%
%LPD*%
G01*
G04 APERTURE LIST*
G04 #@! TA.AperFunction,NonConductor*
%ADD10C,0.250000*%
G04 #@! TD*
G04 #@! TA.AperFunction,ComponentPad*
%ADD11O,3.000000X3.000000*%
G04 #@! TD*
G04 #@! TA.AperFunction,ComponentPad*
%ADD12R,3.000000X3.000000*%
G04 #@! TD*
G04 #@! TA.AperFunction,ComponentPad*
%ADD13R,2.200000X2.200000*%
G04 #@! TD*
G04 #@! TA.AperFunction,ComponentPad*
%ADD14O,2.200000X2.200000*%
G04 #@! TD*
G04 #@! TA.AperFunction,ComponentPad*
%ADD15R,1.700000X1.700000*%
G04 #@! TD*
G04 #@! TA.AperFunction,ComponentPad*
%ADD16O,1.700000X1.700000*%
G04 #@! TD*
G04 #@! TA.AperFunction,ComponentPad*
%ADD17C,1.400000*%
G04 #@! TD*
G04 #@! TA.AperFunction,ComponentPad*
%ADD18O,1.400000X1.400000*%
G04 #@! TD*
G04 #@! TA.AperFunction,ComponentPad*
%ADD19O,4.000000X3.000000*%
G04 #@! TD*
G04 #@! TA.AperFunction,ViaPad*
%ADD20C,0.800000*%
G04 #@! TD*
G04 #@! TA.AperFunction,Conductor*
%ADD21C,0.400000*%
G04 #@! TD*
G04 #@! TA.AperFunction,Conductor*
%ADD22C,0.254000*%
G04 #@! TD*
G04 APERTURE END LIST*
D10*
X83168190Y-51377571D02*
X82834857Y-51377571D01*
X82692000Y-51901380D02*
X83168190Y-51901380D01*
X83168190Y-50901380D01*
X82692000Y-50901380D01*
X82406285Y-50901380D02*
X82072952Y-51901380D01*
X81739619Y-50901380D01*
X81453904Y-51853761D02*
X81311047Y-51901380D01*
X81072952Y-51901380D01*
X80977714Y-51853761D01*
X80930095Y-51806142D01*
X80882476Y-51710904D01*
X80882476Y-51615666D01*
X80930095Y-51520428D01*
X80977714Y-51472809D01*
X81072952Y-51425190D01*
X81263428Y-51377571D01*
X81358666Y-51329952D01*
X81406285Y-51282333D01*
X81453904Y-51187095D01*
X81453904Y-51091857D01*
X81406285Y-50996619D01*
X81358666Y-50949000D01*
X81263428Y-50901380D01*
X81025333Y-50901380D01*
X80882476Y-50949000D01*
X80453904Y-51377571D02*
X80120571Y-51377571D01*
X79977714Y-51901380D02*
X80453904Y-51901380D01*
X80453904Y-50901380D01*
X79977714Y-50901380D01*
X78787238Y-51377571D02*
X78453904Y-51377571D01*
X78311047Y-51901380D02*
X78787238Y-51901380D01*
X78787238Y-50901380D01*
X78311047Y-50901380D01*
X77453904Y-51901380D02*
X77453904Y-51377571D01*
X77501523Y-51282333D01*
X77596761Y-51234714D01*
X77787238Y-51234714D01*
X77882476Y-51282333D01*
X77453904Y-51853761D02*
X77549142Y-51901380D01*
X77787238Y-51901380D01*
X77882476Y-51853761D01*
X77930095Y-51758523D01*
X77930095Y-51663285D01*
X77882476Y-51568047D01*
X77787238Y-51520428D01*
X77549142Y-51520428D01*
X77453904Y-51472809D01*
X77025333Y-51853761D02*
X76930095Y-51901380D01*
X76739619Y-51901380D01*
X76644380Y-51853761D01*
X76596761Y-51758523D01*
X76596761Y-51710904D01*
X76644380Y-51615666D01*
X76739619Y-51568047D01*
X76882476Y-51568047D01*
X76977714Y-51520428D01*
X77025333Y-51425190D01*
X77025333Y-51377571D01*
X76977714Y-51282333D01*
X76882476Y-51234714D01*
X76739619Y-51234714D01*
X76644380Y-51282333D01*
X76263428Y-51234714D02*
X76025333Y-51901380D01*
X75787238Y-51234714D02*
X76025333Y-51901380D01*
X76120571Y-52139476D01*
X76168190Y-52187095D01*
X76263428Y-52234714D01*
X74787238Y-50901380D02*
X74215809Y-50901380D01*
X74501523Y-51901380D02*
X74501523Y-50901380D01*
X73501523Y-51853761D02*
X73596761Y-51901380D01*
X73787238Y-51901380D01*
X73882476Y-51853761D01*
X73930095Y-51758523D01*
X73930095Y-51377571D01*
X73882476Y-51282333D01*
X73787238Y-51234714D01*
X73596761Y-51234714D01*
X73501523Y-51282333D01*
X73453904Y-51377571D01*
X73453904Y-51472809D01*
X73930095Y-51568047D01*
X73072952Y-51853761D02*
X72977714Y-51901380D01*
X72787238Y-51901380D01*
X72692000Y-51853761D01*
X72644380Y-51758523D01*
X72644380Y-51710904D01*
X72692000Y-51615666D01*
X72787238Y-51568047D01*
X72930095Y-51568047D01*
X73025333Y-51520428D01*
X73072952Y-51425190D01*
X73072952Y-51377571D01*
X73025333Y-51282333D01*
X72930095Y-51234714D01*
X72787238Y-51234714D01*
X72692000Y-51282333D01*
X72358666Y-51234714D02*
X71977714Y-51234714D01*
X72215809Y-50901380D02*
X72215809Y-51758523D01*
X72168190Y-51853761D01*
X72072952Y-51901380D01*
X71977714Y-51901380D01*
X70977714Y-51234714D02*
X70739619Y-51901380D01*
X70501523Y-51234714D01*
X69930095Y-50901380D02*
X69834857Y-50901380D01*
X69739619Y-50949000D01*
X69692000Y-50996619D01*
X69644380Y-51091857D01*
X69596761Y-51282333D01*
X69596761Y-51520428D01*
X69644380Y-51710904D01*
X69692000Y-51806142D01*
X69739619Y-51853761D01*
X69834857Y-51901380D01*
X69930095Y-51901380D01*
X70025333Y-51853761D01*
X70072952Y-51806142D01*
X70120571Y-51710904D01*
X70168190Y-51520428D01*
X70168190Y-51282333D01*
X70120571Y-51091857D01*
X70072952Y-50996619D01*
X70025333Y-50949000D01*
X69930095Y-50901380D01*
X69168190Y-51806142D02*
X69120571Y-51853761D01*
X69168190Y-51901380D01*
X69215809Y-51853761D01*
X69168190Y-51806142D01*
X69168190Y-51901380D01*
X68168190Y-51901380D02*
X68739619Y-51901380D01*
X68453904Y-51901380D02*
X68453904Y-50901380D01*
X68549142Y-51044238D01*
X68644380Y-51139476D01*
X68739619Y-51187095D01*
X82430095Y-53651380D02*
X82430095Y-52651380D01*
X82096761Y-53365666D01*
X81763428Y-52651380D01*
X81763428Y-53651380D01*
X80858666Y-53651380D02*
X80858666Y-53127571D01*
X80906285Y-53032333D01*
X81001523Y-52984714D01*
X81192000Y-52984714D01*
X81287238Y-53032333D01*
X80858666Y-53603761D02*
X80953904Y-53651380D01*
X81192000Y-53651380D01*
X81287238Y-53603761D01*
X81334857Y-53508523D01*
X81334857Y-53413285D01*
X81287238Y-53318047D01*
X81192000Y-53270428D01*
X80953904Y-53270428D01*
X80858666Y-53222809D01*
X80525333Y-52984714D02*
X80144380Y-52984714D01*
X80382476Y-52651380D02*
X80382476Y-53508523D01*
X80334857Y-53603761D01*
X80239619Y-53651380D01*
X80144380Y-53651380D01*
X79811047Y-53651380D02*
X79811047Y-52651380D01*
X79382476Y-53651380D02*
X79382476Y-53127571D01*
X79430095Y-53032333D01*
X79525333Y-52984714D01*
X79668190Y-52984714D01*
X79763428Y-53032333D01*
X79811047Y-53079952D01*
X78906285Y-53651380D02*
X78906285Y-52984714D01*
X78906285Y-52651380D02*
X78953904Y-52699000D01*
X78906285Y-52746619D01*
X78858666Y-52699000D01*
X78906285Y-52651380D01*
X78906285Y-52746619D01*
X78001523Y-53651380D02*
X78001523Y-53127571D01*
X78049142Y-53032333D01*
X78144380Y-52984714D01*
X78334857Y-52984714D01*
X78430095Y-53032333D01*
X78001523Y-53603761D02*
X78096761Y-53651380D01*
X78334857Y-53651380D01*
X78430095Y-53603761D01*
X78477714Y-53508523D01*
X78477714Y-53413285D01*
X78430095Y-53318047D01*
X78334857Y-53270428D01*
X78096761Y-53270428D01*
X78001523Y-53222809D01*
X77572952Y-53603761D02*
X77477714Y-53651380D01*
X77287238Y-53651380D01*
X77192000Y-53603761D01*
X77144380Y-53508523D01*
X77144380Y-53460904D01*
X77192000Y-53365666D01*
X77287238Y-53318047D01*
X77430095Y-53318047D01*
X77525333Y-53270428D01*
X77572952Y-53175190D01*
X77572952Y-53127571D01*
X77525333Y-53032333D01*
X77430095Y-52984714D01*
X77287238Y-52984714D01*
X77192000Y-53032333D01*
X75953904Y-53651380D02*
X75953904Y-52651380D01*
X75715809Y-52651380D01*
X75572952Y-52699000D01*
X75477714Y-52794238D01*
X75430095Y-52889476D01*
X75382476Y-53079952D01*
X75382476Y-53222809D01*
X75430095Y-53413285D01*
X75477714Y-53508523D01*
X75572952Y-53603761D01*
X75715809Y-53651380D01*
X75953904Y-53651380D01*
X74525333Y-53651380D02*
X74525333Y-53127571D01*
X74572952Y-53032333D01*
X74668190Y-52984714D01*
X74858666Y-52984714D01*
X74953904Y-53032333D01*
X74525333Y-53603761D02*
X74620571Y-53651380D01*
X74858666Y-53651380D01*
X74953904Y-53603761D01*
X75001523Y-53508523D01*
X75001523Y-53413285D01*
X74953904Y-53318047D01*
X74858666Y-53270428D01*
X74620571Y-53270428D01*
X74525333Y-53222809D01*
X73906285Y-53651380D02*
X74001523Y-53603761D01*
X74049142Y-53508523D01*
X74049142Y-52651380D01*
X73525333Y-53651380D02*
X73525333Y-52651380D01*
X73096761Y-53651380D02*
X73096761Y-53127571D01*
X73144380Y-53032333D01*
X73239619Y-52984714D01*
X73382476Y-52984714D01*
X73477714Y-53032333D01*
X73525333Y-53079952D01*
X72239619Y-53603761D02*
X72334857Y-53651380D01*
X72525333Y-53651380D01*
X72620571Y-53603761D01*
X72668190Y-53508523D01*
X72668190Y-53127571D01*
X72620571Y-53032333D01*
X72525333Y-52984714D01*
X72334857Y-52984714D01*
X72239619Y-53032333D01*
X72192000Y-53127571D01*
X72192000Y-53222809D01*
X72668190Y-53318047D01*
X71763428Y-53651380D02*
X71763428Y-52984714D01*
X71763428Y-52651380D02*
X71811047Y-52699000D01*
X71763428Y-52746619D01*
X71715809Y-52699000D01*
X71763428Y-52651380D01*
X71763428Y-52746619D01*
X71287238Y-53651380D02*
X71287238Y-52984714D01*
X71287238Y-53079952D02*
X71239619Y-53032333D01*
X71144380Y-52984714D01*
X71001523Y-52984714D01*
X70906285Y-53032333D01*
X70858666Y-53127571D01*
X70858666Y-53651380D01*
X70858666Y-53127571D02*
X70811047Y-53032333D01*
X70715809Y-52984714D01*
X70572952Y-52984714D01*
X70477714Y-53032333D01*
X70430095Y-53127571D01*
X70430095Y-53651380D01*
X69572952Y-53603761D02*
X69668190Y-53651380D01*
X69858666Y-53651380D01*
X69953904Y-53603761D01*
X70001523Y-53508523D01*
X70001523Y-53127571D01*
X69953904Y-53032333D01*
X69858666Y-52984714D01*
X69668190Y-52984714D01*
X69572952Y-53032333D01*
X69525333Y-53127571D01*
X69525333Y-53222809D01*
X70001523Y-53318047D01*
X69096761Y-53651380D02*
X69096761Y-52984714D01*
X69096761Y-53175190D02*
X69049142Y-53079952D01*
X69001523Y-53032333D01*
X68906285Y-52984714D01*
X68811047Y-52984714D01*
D11*
G04 #@! TO.P,SW1,14*
G04 #@! TO.N,N/C*
X59027000Y-58575000D03*
G04 #@! TO.P,SW1,13*
G04 #@! TO.N,PP*
X53467000Y-64135000D03*
G04 #@! TO.P,SW1,6*
G04 #@! TO.N,Net-(R1-Pad2)*
X53374109Y-50633224D03*
G04 #@! TO.P,SW1,5*
G04 #@! TO.N,Net-(R2-Pad2)*
X48398115Y-53506115D03*
G04 #@! TO.P,SW1,4*
G04 #@! TO.N,Net-(R4-Pad2)*
X45525224Y-58482109D03*
G04 #@! TO.P,SW1,3*
G04 #@! TO.N,Net-(R5-Pad2)*
X45525224Y-64227891D03*
G04 #@! TO.P,SW1,2*
G04 #@! TO.N,Net-(R8-Pad2)*
X48398115Y-69203885D03*
D12*
G04 #@! TO.P,SW1,1*
G04 #@! TO.N,N/C*
X53374109Y-72076776D03*
D11*
G04 #@! TO.P,SW1,12*
X59119891Y-72076776D03*
G04 #@! TO.P,SW1,11*
X64095885Y-69203885D03*
G04 #@! TO.P,SW1,10*
X66968776Y-64227891D03*
G04 #@! TO.P,SW1,9*
X66968776Y-58482109D03*
G04 #@! TO.P,SW1,8*
X64095885Y-53506115D03*
G04 #@! TO.P,SW1,7*
X59119891Y-50633224D03*
G04 #@! TD*
G04 #@! TO.P,SW2,7*
G04 #@! TO.N,Net-(R7-Pad2)*
X97374891Y-51014224D03*
G04 #@! TO.P,SW2,8*
G04 #@! TO.N,N/C*
X102350885Y-53887115D03*
G04 #@! TO.P,SW2,9*
X105223776Y-58863109D03*
G04 #@! TO.P,SW2,10*
G04 #@! TO.N,Net-(R7-Pad2)*
X105223776Y-64608891D03*
G04 #@! TO.P,SW2,11*
G04 #@! TO.N,Net-(R3-Pad2)*
X102350885Y-69584885D03*
G04 #@! TO.P,SW2,12*
G04 #@! TO.N,N/C*
X97374891Y-72457776D03*
D12*
G04 #@! TO.P,SW2,1*
G04 #@! TO.N,Net-(D1-Pad2)*
X91629109Y-72457776D03*
D11*
G04 #@! TO.P,SW2,2*
G04 #@! TO.N,N/C*
X86653115Y-69584885D03*
G04 #@! TO.P,SW2,3*
G04 #@! TO.N,Net-(D1-Pad1)*
X83780224Y-64608891D03*
G04 #@! TO.P,SW2,4*
X83780224Y-58863109D03*
G04 #@! TO.P,SW2,5*
X86653115Y-53887115D03*
G04 #@! TO.P,SW2,6*
G04 #@! TO.N,PE*
X91629109Y-51014224D03*
G04 #@! TO.P,SW2,13*
G04 #@! TO.N,CP*
X91722000Y-64516000D03*
G04 #@! TO.P,SW2,14*
G04 #@! TO.N,Net-(D1-Pad2)*
X97282000Y-58956000D03*
G04 #@! TD*
D13*
G04 #@! TO.P,D1,1*
G04 #@! TO.N,Net-(D1-Pad1)*
X92710000Y-43815000D03*
D14*
G04 #@! TO.P,D1,2*
G04 #@! TO.N,Net-(D1-Pad2)*
X85090000Y-43815000D03*
G04 #@! TD*
D15*
G04 #@! TO.P,J2,1*
G04 #@! TO.N,PE*
X99568000Y-43942000D03*
D16*
G04 #@! TO.P,J2,2*
G04 #@! TO.N,CP*
X102108000Y-43942000D03*
G04 #@! TD*
D17*
G04 #@! TO.P,R1,1*
G04 #@! TO.N,PE*
X67564000Y-43942000D03*
D18*
G04 #@! TO.P,R1,2*
G04 #@! TO.N,Net-(R1-Pad2)*
X59944000Y-43942000D03*
G04 #@! TD*
D17*
G04 #@! TO.P,R2,1*
G04 #@! TO.N,PE*
X56134000Y-43942000D03*
D18*
G04 #@! TO.P,R2,2*
G04 #@! TO.N,Net-(R2-Pad2)*
X48514000Y-43942000D03*
G04 #@! TD*
D17*
G04 #@! TO.P,R3,1*
G04 #@! TO.N,PE*
X94742000Y-78359000D03*
D18*
G04 #@! TO.P,R3,2*
G04 #@! TO.N,Net-(R3-Pad2)*
X102362000Y-78359000D03*
G04 #@! TD*
G04 #@! TO.P,R4,2*
G04 #@! TO.N,Net-(R4-Pad2)*
X72136000Y-47498000D03*
D17*
G04 #@! TO.P,R4,1*
G04 #@! TO.N,PE*
X79756000Y-47498000D03*
G04 #@! TD*
G04 #@! TO.P,R5,1*
G04 #@! TO.N,PE*
X56515000Y-78359000D03*
D18*
G04 #@! TO.P,R5,2*
G04 #@! TO.N,Net-(R5-Pad2)*
X48895000Y-78359000D03*
G04 #@! TD*
G04 #@! TO.P,R6,2*
G04 #@! TO.N,Net-(D1-Pad2)*
X79883000Y-43815000D03*
D17*
G04 #@! TO.P,R6,1*
G04 #@! TO.N,PE*
X72263000Y-43815000D03*
G04 #@! TD*
D18*
G04 #@! TO.P,R7,2*
G04 #@! TO.N,Net-(R7-Pad2)*
X91567000Y-78359000D03*
D17*
G04 #@! TO.P,R7,1*
G04 #@! TO.N,PE*
X83947000Y-78359000D03*
G04 #@! TD*
D18*
G04 #@! TO.P,R8,2*
G04 #@! TO.N,Net-(R8-Pad2)*
X61722000Y-78232000D03*
D17*
G04 #@! TO.P,R8,1*
G04 #@! TO.N,PE*
X69342000Y-78232000D03*
G04 #@! TD*
D19*
G04 #@! TO.P,J1,1*
G04 #@! TO.N,PE*
X75438000Y-76849000D03*
G04 #@! TO.P,J1,2*
G04 #@! TO.N,CP*
X75438000Y-69349000D03*
G04 #@! TO.P,J1,3*
G04 #@! TO.N,PP*
X75438000Y-61849000D03*
G04 #@! TD*
D20*
G04 #@! TO.N,PE*
X99695000Y-61722000D03*
X95123000Y-63119000D03*
X96139000Y-55372000D03*
X90043000Y-68453000D03*
X99441000Y-68580000D03*
X89535000Y-59055000D03*
X93853000Y-46990000D03*
X102489000Y-46990000D03*
X99441000Y-76835000D03*
X84074000Y-73914000D03*
X84074000Y-49403000D03*
X79883000Y-55372000D03*
X53848000Y-53848000D03*
X62992000Y-57150000D03*
X50165000Y-60706000D03*
X58928000Y-66675000D03*
X48514000Y-73914000D03*
X52324000Y-47117000D03*
X69342000Y-73152000D03*
G04 #@! TD*
D21*
G04 #@! TO.N,Net-(D1-Pad2)*
X85090000Y-45370634D02*
X89027000Y-49307634D01*
X85090000Y-43815000D02*
X85090000Y-45370634D01*
X89027000Y-49307634D02*
X89027000Y-52197000D01*
X94286001Y-57456001D02*
X95782001Y-57456001D01*
X95782001Y-57456001D02*
X97282000Y-58956000D01*
X89027000Y-52197000D02*
X94286001Y-57456001D01*
G04 #@! TD*
D22*
G04 #@! TO.N,PE*
G36*
X109907000Y-80697000D02*
X41223000Y-80697000D01*
X41223000Y-77533431D01*
X41580000Y-77533431D01*
X41580000Y-78422569D01*
X41920259Y-79244026D01*
X42548974Y-79872741D01*
X43370431Y-80213000D01*
X44259569Y-80213000D01*
X45081026Y-79872741D01*
X45709741Y-79244026D01*
X46050000Y-78422569D01*
X46050000Y-78359000D01*
X47533846Y-78359000D01*
X47637458Y-78879891D01*
X47932519Y-79321481D01*
X48374109Y-79616542D01*
X48763515Y-79694000D01*
X49026485Y-79694000D01*
X49415891Y-79616542D01*
X49857481Y-79321481D01*
X49875659Y-79294275D01*
X55759331Y-79294275D01*
X55821169Y-79530042D01*
X56322122Y-79706419D01*
X56852440Y-79677664D01*
X57208831Y-79530042D01*
X57270669Y-79294275D01*
X56515000Y-78538605D01*
X55759331Y-79294275D01*
X49875659Y-79294275D01*
X50152542Y-78879891D01*
X50256154Y-78359000D01*
X50217789Y-78166122D01*
X55167581Y-78166122D01*
X55196336Y-78696440D01*
X55343958Y-79052831D01*
X55579725Y-79114669D01*
X56335395Y-78359000D01*
X56694605Y-78359000D01*
X57450275Y-79114669D01*
X57686042Y-79052831D01*
X57862419Y-78551878D01*
X57845075Y-78232000D01*
X60360846Y-78232000D01*
X60464458Y-78752891D01*
X60759519Y-79194481D01*
X61201109Y-79489542D01*
X61590515Y-79567000D01*
X61853485Y-79567000D01*
X62242891Y-79489542D01*
X62684481Y-79194481D01*
X62702659Y-79167275D01*
X68586331Y-79167275D01*
X68648169Y-79403042D01*
X69149122Y-79579419D01*
X69679440Y-79550664D01*
X70035831Y-79403042D01*
X70064358Y-79294275D01*
X83191331Y-79294275D01*
X83253169Y-79530042D01*
X83754122Y-79706419D01*
X84284440Y-79677664D01*
X84640831Y-79530042D01*
X84702669Y-79294275D01*
X83947000Y-78538605D01*
X83191331Y-79294275D01*
X70064358Y-79294275D01*
X70097669Y-79167275D01*
X69342000Y-78411605D01*
X68586331Y-79167275D01*
X62702659Y-79167275D01*
X62979542Y-78752891D01*
X63083154Y-78232000D01*
X63044789Y-78039122D01*
X67994581Y-78039122D01*
X68023336Y-78569440D01*
X68170958Y-78925831D01*
X68406725Y-78987669D01*
X69162395Y-78232000D01*
X69521605Y-78232000D01*
X70277275Y-78987669D01*
X70513042Y-78925831D01*
X70689419Y-78424878D01*
X70660664Y-77894560D01*
X70513042Y-77538169D01*
X70277275Y-77476331D01*
X69521605Y-78232000D01*
X69162395Y-78232000D01*
X68406725Y-77476331D01*
X68170958Y-77538169D01*
X67994581Y-78039122D01*
X63044789Y-78039122D01*
X62979542Y-77711109D01*
X62702660Y-77296725D01*
X68586331Y-77296725D01*
X69342000Y-78052395D01*
X70086561Y-77307833D01*
X72852887Y-77307833D01*
X72916916Y-77548696D01*
X73338524Y-78268870D01*
X74003638Y-78772882D01*
X74811000Y-78984000D01*
X75311000Y-78984000D01*
X75311000Y-76976000D01*
X75565000Y-76976000D01*
X75565000Y-78984000D01*
X76065000Y-78984000D01*
X76872362Y-78772882D01*
X77537476Y-78268870D01*
X77597627Y-78166122D01*
X82599581Y-78166122D01*
X82628336Y-78696440D01*
X82775958Y-79052831D01*
X83011725Y-79114669D01*
X83767395Y-78359000D01*
X84126605Y-78359000D01*
X84882275Y-79114669D01*
X85118042Y-79052831D01*
X85294419Y-78551878D01*
X85283961Y-78359000D01*
X90205846Y-78359000D01*
X90309458Y-78879891D01*
X90604519Y-79321481D01*
X91046109Y-79616542D01*
X91435515Y-79694000D01*
X91698485Y-79694000D01*
X92087891Y-79616542D01*
X92529481Y-79321481D01*
X92547659Y-79294275D01*
X93986331Y-79294275D01*
X94048169Y-79530042D01*
X94549122Y-79706419D01*
X95079440Y-79677664D01*
X95435831Y-79530042D01*
X95497669Y-79294275D01*
X94742000Y-78538605D01*
X93986331Y-79294275D01*
X92547659Y-79294275D01*
X92824542Y-78879891D01*
X92928154Y-78359000D01*
X92889789Y-78166122D01*
X93394581Y-78166122D01*
X93423336Y-78696440D01*
X93570958Y-79052831D01*
X93806725Y-79114669D01*
X94562395Y-78359000D01*
X94921605Y-78359000D01*
X95677275Y-79114669D01*
X95913042Y-79052831D01*
X96089419Y-78551878D01*
X96078961Y-78359000D01*
X101000846Y-78359000D01*
X101104458Y-78879891D01*
X101399519Y-79321481D01*
X101841109Y-79616542D01*
X102230515Y-79694000D01*
X102493485Y-79694000D01*
X102882891Y-79616542D01*
X103324481Y-79321481D01*
X103619542Y-78879891D01*
X103723154Y-78359000D01*
X103619542Y-77838109D01*
X103331104Y-77406431D01*
X104699000Y-77406431D01*
X104699000Y-78295569D01*
X105039259Y-79117026D01*
X105667974Y-79745741D01*
X106489431Y-80086000D01*
X107378569Y-80086000D01*
X108200026Y-79745741D01*
X108828741Y-79117026D01*
X109169000Y-78295569D01*
X109169000Y-77406431D01*
X108828741Y-76584974D01*
X108200026Y-75956259D01*
X107378569Y-75616000D01*
X106489431Y-75616000D01*
X105667974Y-75956259D01*
X105039259Y-76584974D01*
X104699000Y-77406431D01*
X103331104Y-77406431D01*
X103324481Y-77396519D01*
X102882891Y-77101458D01*
X102493485Y-77024000D01*
X102230515Y-77024000D01*
X101841109Y-77101458D01*
X101399519Y-77396519D01*
X101104458Y-77838109D01*
X101000846Y-78359000D01*
X96078961Y-78359000D01*
X96060664Y-78021560D01*
X95913042Y-77665169D01*
X95677275Y-77603331D01*
X94921605Y-78359000D01*
X94562395Y-78359000D01*
X93806725Y-77603331D01*
X93570958Y-77665169D01*
X93394581Y-78166122D01*
X92889789Y-78166122D01*
X92824542Y-77838109D01*
X92547660Y-77423725D01*
X93986331Y-77423725D01*
X94742000Y-78179395D01*
X95497669Y-77423725D01*
X95435831Y-77187958D01*
X94934878Y-77011581D01*
X94404560Y-77040336D01*
X94048169Y-77187958D01*
X93986331Y-77423725D01*
X92547660Y-77423725D01*
X92529481Y-77396519D01*
X92087891Y-77101458D01*
X91698485Y-77024000D01*
X91435515Y-77024000D01*
X91046109Y-77101458D01*
X90604519Y-77396519D01*
X90309458Y-77838109D01*
X90205846Y-78359000D01*
X85283961Y-78359000D01*
X85265664Y-78021560D01*
X85118042Y-77665169D01*
X84882275Y-77603331D01*
X84126605Y-78359000D01*
X83767395Y-78359000D01*
X83011725Y-77603331D01*
X82775958Y-77665169D01*
X82599581Y-78166122D01*
X77597627Y-78166122D01*
X77959084Y-77548696D01*
X77992305Y-77423725D01*
X83191331Y-77423725D01*
X83947000Y-78179395D01*
X84702669Y-77423725D01*
X84640831Y-77187958D01*
X84139878Y-77011581D01*
X83609560Y-77040336D01*
X83253169Y-77187958D01*
X83191331Y-77423725D01*
X77992305Y-77423725D01*
X78023113Y-77307833D01*
X77910165Y-76976000D01*
X75565000Y-76976000D01*
X75311000Y-76976000D01*
X72965835Y-76976000D01*
X72852887Y-77307833D01*
X70086561Y-77307833D01*
X70097669Y-77296725D01*
X70035831Y-77060958D01*
X69534878Y-76884581D01*
X69004560Y-76913336D01*
X68648169Y-77060958D01*
X68586331Y-77296725D01*
X62702660Y-77296725D01*
X62684481Y-77269519D01*
X62242891Y-76974458D01*
X61853485Y-76897000D01*
X61590515Y-76897000D01*
X61201109Y-76974458D01*
X60759519Y-77269519D01*
X60464458Y-77711109D01*
X60360846Y-78232000D01*
X57845075Y-78232000D01*
X57833664Y-78021560D01*
X57686042Y-77665169D01*
X57450275Y-77603331D01*
X56694605Y-78359000D01*
X56335395Y-78359000D01*
X55579725Y-77603331D01*
X55343958Y-77665169D01*
X55167581Y-78166122D01*
X50217789Y-78166122D01*
X50152542Y-77838109D01*
X49875660Y-77423725D01*
X55759331Y-77423725D01*
X56515000Y-78179395D01*
X57270669Y-77423725D01*
X57208831Y-77187958D01*
X56707878Y-77011581D01*
X56177560Y-77040336D01*
X55821169Y-77187958D01*
X55759331Y-77423725D01*
X49875660Y-77423725D01*
X49857481Y-77396519D01*
X49415891Y-77101458D01*
X49026485Y-77024000D01*
X48763515Y-77024000D01*
X48374109Y-77101458D01*
X47932519Y-77396519D01*
X47637458Y-77838109D01*
X47533846Y-78359000D01*
X46050000Y-78359000D01*
X46050000Y-77533431D01*
X45709741Y-76711974D01*
X45387934Y-76390167D01*
X72852887Y-76390167D01*
X72965835Y-76722000D01*
X75311000Y-76722000D01*
X75311000Y-74714000D01*
X75565000Y-74714000D01*
X75565000Y-76722000D01*
X77910165Y-76722000D01*
X78023113Y-76390167D01*
X77959084Y-76149304D01*
X77537476Y-75429130D01*
X76872362Y-74925118D01*
X76065000Y-74714000D01*
X75565000Y-74714000D01*
X75311000Y-74714000D01*
X74811000Y-74714000D01*
X74003638Y-74925118D01*
X73338524Y-75429130D01*
X72916916Y-76149304D01*
X72852887Y-76390167D01*
X45387934Y-76390167D01*
X45081026Y-76083259D01*
X44259569Y-75743000D01*
X43370431Y-75743000D01*
X42548974Y-76083259D01*
X41920259Y-76711974D01*
X41580000Y-77533431D01*
X41223000Y-77533431D01*
X41223000Y-69203885D01*
X46221288Y-69203885D01*
X46386989Y-70036921D01*
X46858866Y-70743134D01*
X47565079Y-71215011D01*
X48187836Y-71338885D01*
X48608394Y-71338885D01*
X49231151Y-71215011D01*
X49937364Y-70743134D01*
X50048520Y-70576776D01*
X51226669Y-70576776D01*
X51226669Y-73576776D01*
X51275952Y-73824541D01*
X51416300Y-74034585D01*
X51626344Y-74174933D01*
X51874109Y-74224216D01*
X54874109Y-74224216D01*
X55121874Y-74174933D01*
X55331918Y-74034585D01*
X55472266Y-73824541D01*
X55521549Y-73576776D01*
X55521549Y-72076776D01*
X56943064Y-72076776D01*
X57108765Y-72909812D01*
X57580642Y-73616025D01*
X58286855Y-74087902D01*
X58909612Y-74211776D01*
X59330170Y-74211776D01*
X59952927Y-74087902D01*
X60659140Y-73616025D01*
X61131017Y-72909812D01*
X61296718Y-72076776D01*
X61131017Y-71243740D01*
X60659140Y-70537527D01*
X59952927Y-70065650D01*
X59330170Y-69941776D01*
X58909612Y-69941776D01*
X58286855Y-70065650D01*
X57580642Y-70537527D01*
X57108765Y-71243740D01*
X56943064Y-72076776D01*
X55521549Y-72076776D01*
X55521549Y-70576776D01*
X55472266Y-70329011D01*
X55331918Y-70118967D01*
X55121874Y-69978619D01*
X54874109Y-69929336D01*
X51874109Y-69929336D01*
X51626344Y-69978619D01*
X51416300Y-70118967D01*
X51275952Y-70329011D01*
X51226669Y-70576776D01*
X50048520Y-70576776D01*
X50409241Y-70036921D01*
X50574942Y-69203885D01*
X61919058Y-69203885D01*
X62084759Y-70036921D01*
X62556636Y-70743134D01*
X63262849Y-71215011D01*
X63885606Y-71338885D01*
X64306164Y-71338885D01*
X64928921Y-71215011D01*
X65635134Y-70743134D01*
X66107011Y-70036921D01*
X66243846Y-69349000D01*
X72761173Y-69349000D01*
X72926874Y-70182036D01*
X73398751Y-70888249D01*
X74104964Y-71360126D01*
X74727721Y-71484000D01*
X76148279Y-71484000D01*
X76771036Y-71360126D01*
X77477249Y-70888249D01*
X77949126Y-70182036D01*
X78067906Y-69584885D01*
X84476288Y-69584885D01*
X84641989Y-70417921D01*
X85113866Y-71124134D01*
X85820079Y-71596011D01*
X86442836Y-71719885D01*
X86863394Y-71719885D01*
X87486151Y-71596011D01*
X88192364Y-71124134D01*
X88303520Y-70957776D01*
X89481669Y-70957776D01*
X89481669Y-73957776D01*
X89530952Y-74205541D01*
X89671300Y-74415585D01*
X89881344Y-74555933D01*
X90129109Y-74605216D01*
X93129109Y-74605216D01*
X93376874Y-74555933D01*
X93586918Y-74415585D01*
X93727266Y-74205541D01*
X93776549Y-73957776D01*
X93776549Y-72457776D01*
X95198064Y-72457776D01*
X95363765Y-73290812D01*
X95835642Y-73997025D01*
X96541855Y-74468902D01*
X97164612Y-74592776D01*
X97585170Y-74592776D01*
X98207927Y-74468902D01*
X98914140Y-73997025D01*
X99386017Y-73290812D01*
X99551718Y-72457776D01*
X99386017Y-71624740D01*
X98914140Y-70918527D01*
X98207927Y-70446650D01*
X97585170Y-70322776D01*
X97164612Y-70322776D01*
X96541855Y-70446650D01*
X95835642Y-70918527D01*
X95363765Y-71624740D01*
X95198064Y-72457776D01*
X93776549Y-72457776D01*
X93776549Y-70957776D01*
X93727266Y-70710011D01*
X93586918Y-70499967D01*
X93376874Y-70359619D01*
X93129109Y-70310336D01*
X90129109Y-70310336D01*
X89881344Y-70359619D01*
X89671300Y-70499967D01*
X89530952Y-70710011D01*
X89481669Y-70957776D01*
X88303520Y-70957776D01*
X88664241Y-70417921D01*
X88829942Y-69584885D01*
X100174058Y-69584885D01*
X100339759Y-70417921D01*
X100811636Y-71124134D01*
X101517849Y-71596011D01*
X102140606Y-71719885D01*
X102561164Y-71719885D01*
X103183921Y-71596011D01*
X103890134Y-71124134D01*
X104362011Y-70417921D01*
X104527712Y-69584885D01*
X104362011Y-68751849D01*
X103890134Y-68045636D01*
X103183921Y-67573759D01*
X102561164Y-67449885D01*
X102140606Y-67449885D01*
X101517849Y-67573759D01*
X100811636Y-68045636D01*
X100339759Y-68751849D01*
X100174058Y-69584885D01*
X88829942Y-69584885D01*
X88664241Y-68751849D01*
X88192364Y-68045636D01*
X87486151Y-67573759D01*
X86863394Y-67449885D01*
X86442836Y-67449885D01*
X85820079Y-67573759D01*
X85113866Y-68045636D01*
X84641989Y-68751849D01*
X84476288Y-69584885D01*
X78067906Y-69584885D01*
X78114827Y-69349000D01*
X77949126Y-68515964D01*
X77477249Y-67809751D01*
X76771036Y-67337874D01*
X76148279Y-67214000D01*
X74727721Y-67214000D01*
X74104964Y-67337874D01*
X73398751Y-67809751D01*
X72926874Y-68515964D01*
X72761173Y-69349000D01*
X66243846Y-69349000D01*
X66272712Y-69203885D01*
X66107011Y-68370849D01*
X65635134Y-67664636D01*
X64928921Y-67192759D01*
X64306164Y-67068885D01*
X63885606Y-67068885D01*
X63262849Y-67192759D01*
X62556636Y-67664636D01*
X62084759Y-68370849D01*
X61919058Y-69203885D01*
X50574942Y-69203885D01*
X50409241Y-68370849D01*
X49937364Y-67664636D01*
X49231151Y-67192759D01*
X48608394Y-67068885D01*
X48187836Y-67068885D01*
X47565079Y-67192759D01*
X46858866Y-67664636D01*
X46386989Y-68370849D01*
X46221288Y-69203885D01*
X41223000Y-69203885D01*
X41223000Y-64227891D01*
X43348397Y-64227891D01*
X43514098Y-65060927D01*
X43985975Y-65767140D01*
X44692188Y-66239017D01*
X45314945Y-66362891D01*
X45735503Y-66362891D01*
X46358260Y-66239017D01*
X47064473Y-65767140D01*
X47536350Y-65060927D01*
X47702051Y-64227891D01*
X47683574Y-64135000D01*
X51290173Y-64135000D01*
X51455874Y-64968036D01*
X51927751Y-65674249D01*
X52633964Y-66146126D01*
X53256721Y-66270000D01*
X53677279Y-66270000D01*
X54300036Y-66146126D01*
X55006249Y-65674249D01*
X55478126Y-64968036D01*
X55625349Y-64227891D01*
X64791949Y-64227891D01*
X64957650Y-65060927D01*
X65429527Y-65767140D01*
X66135740Y-66239017D01*
X66758497Y-66362891D01*
X67179055Y-66362891D01*
X67801812Y-66239017D01*
X68508025Y-65767140D01*
X68979902Y-65060927D01*
X69069817Y-64608891D01*
X81603397Y-64608891D01*
X81769098Y-65441927D01*
X82240975Y-66148140D01*
X82947188Y-66620017D01*
X83569945Y-66743891D01*
X83990503Y-66743891D01*
X84613260Y-66620017D01*
X85319473Y-66148140D01*
X85791350Y-65441927D01*
X85957051Y-64608891D01*
X85938574Y-64516000D01*
X89545173Y-64516000D01*
X89710874Y-65349036D01*
X90182751Y-66055249D01*
X90888964Y-66527126D01*
X91511721Y-66651000D01*
X91932279Y-66651000D01*
X92555036Y-66527126D01*
X93261249Y-66055249D01*
X93733126Y-65349036D01*
X93880349Y-64608891D01*
X103046949Y-64608891D01*
X103212650Y-65441927D01*
X103684527Y-66148140D01*
X104390740Y-66620017D01*
X105013497Y-66743891D01*
X105434055Y-66743891D01*
X106056812Y-66620017D01*
X106763025Y-66148140D01*
X107234902Y-65441927D01*
X107400603Y-64608891D01*
X107234902Y-63775855D01*
X106763025Y-63069642D01*
X106056812Y-62597765D01*
X105434055Y-62473891D01*
X105013497Y-62473891D01*
X104390740Y-62597765D01*
X103684527Y-63069642D01*
X103212650Y-63775855D01*
X103046949Y-64608891D01*
X93880349Y-64608891D01*
X93898827Y-64516000D01*
X93733126Y-63682964D01*
X93261249Y-62976751D01*
X92555036Y-62504874D01*
X91932279Y-62381000D01*
X91511721Y-62381000D01*
X90888964Y-62504874D01*
X90182751Y-62976751D01*
X89710874Y-63682964D01*
X89545173Y-64516000D01*
X85938574Y-64516000D01*
X85791350Y-63775855D01*
X85319473Y-63069642D01*
X84613260Y-62597765D01*
X83990503Y-62473891D01*
X83569945Y-62473891D01*
X82947188Y-62597765D01*
X82240975Y-63069642D01*
X81769098Y-63775855D01*
X81603397Y-64608891D01*
X69069817Y-64608891D01*
X69145603Y-64227891D01*
X68979902Y-63394855D01*
X68508025Y-62688642D01*
X67801812Y-62216765D01*
X67179055Y-62092891D01*
X66758497Y-62092891D01*
X66135740Y-62216765D01*
X65429527Y-62688642D01*
X64957650Y-63394855D01*
X64791949Y-64227891D01*
X55625349Y-64227891D01*
X55643827Y-64135000D01*
X55478126Y-63301964D01*
X55006249Y-62595751D01*
X54300036Y-62123874D01*
X53677279Y-62000000D01*
X53256721Y-62000000D01*
X52633964Y-62123874D01*
X51927751Y-62595751D01*
X51455874Y-63301964D01*
X51290173Y-64135000D01*
X47683574Y-64135000D01*
X47536350Y-63394855D01*
X47064473Y-62688642D01*
X46358260Y-62216765D01*
X45735503Y-62092891D01*
X45314945Y-62092891D01*
X44692188Y-62216765D01*
X43985975Y-62688642D01*
X43514098Y-63394855D01*
X43348397Y-64227891D01*
X41223000Y-64227891D01*
X41223000Y-61849000D01*
X72761173Y-61849000D01*
X72926874Y-62682036D01*
X73398751Y-63388249D01*
X74104964Y-63860126D01*
X74727721Y-63984000D01*
X76148279Y-63984000D01*
X76771036Y-63860126D01*
X77477249Y-63388249D01*
X77949126Y-62682036D01*
X78114827Y-61849000D01*
X77949126Y-61015964D01*
X77477249Y-60309751D01*
X76771036Y-59837874D01*
X76148279Y-59714000D01*
X74727721Y-59714000D01*
X74104964Y-59837874D01*
X73398751Y-60309751D01*
X72926874Y-61015964D01*
X72761173Y-61849000D01*
X41223000Y-61849000D01*
X41223000Y-58482109D01*
X43348397Y-58482109D01*
X43514098Y-59315145D01*
X43985975Y-60021358D01*
X44692188Y-60493235D01*
X45314945Y-60617109D01*
X45735503Y-60617109D01*
X46358260Y-60493235D01*
X47064473Y-60021358D01*
X47536350Y-59315145D01*
X47683573Y-58575000D01*
X56850173Y-58575000D01*
X57015874Y-59408036D01*
X57487751Y-60114249D01*
X58193964Y-60586126D01*
X58816721Y-60710000D01*
X59237279Y-60710000D01*
X59860036Y-60586126D01*
X60566249Y-60114249D01*
X61038126Y-59408036D01*
X61203827Y-58575000D01*
X61185350Y-58482109D01*
X64791949Y-58482109D01*
X64957650Y-59315145D01*
X65429527Y-60021358D01*
X66135740Y-60493235D01*
X66758497Y-60617109D01*
X67179055Y-60617109D01*
X67801812Y-60493235D01*
X68508025Y-60021358D01*
X68979902Y-59315145D01*
X69069817Y-58863109D01*
X81603397Y-58863109D01*
X81769098Y-59696145D01*
X82240975Y-60402358D01*
X82947188Y-60874235D01*
X83569945Y-60998109D01*
X83990503Y-60998109D01*
X84613260Y-60874235D01*
X85319473Y-60402358D01*
X85791350Y-59696145D01*
X85957051Y-58863109D01*
X85791350Y-58030073D01*
X85319473Y-57323860D01*
X84613260Y-56851983D01*
X83990503Y-56728109D01*
X83569945Y-56728109D01*
X82947188Y-56851983D01*
X82240975Y-57323860D01*
X81769098Y-58030073D01*
X81603397Y-58863109D01*
X69069817Y-58863109D01*
X69145603Y-58482109D01*
X68979902Y-57649073D01*
X68508025Y-56942860D01*
X67801812Y-56470983D01*
X67179055Y-56347109D01*
X66758497Y-56347109D01*
X66135740Y-56470983D01*
X65429527Y-56942860D01*
X64957650Y-57649073D01*
X64791949Y-58482109D01*
X61185350Y-58482109D01*
X61038126Y-57741964D01*
X60566249Y-57035751D01*
X59860036Y-56563874D01*
X59237279Y-56440000D01*
X58816721Y-56440000D01*
X58193964Y-56563874D01*
X57487751Y-57035751D01*
X57015874Y-57741964D01*
X56850173Y-58575000D01*
X47683573Y-58575000D01*
X47702051Y-58482109D01*
X47536350Y-57649073D01*
X47064473Y-56942860D01*
X46358260Y-56470983D01*
X45735503Y-56347109D01*
X45314945Y-56347109D01*
X44692188Y-56470983D01*
X43985975Y-56942860D01*
X43514098Y-57649073D01*
X43348397Y-58482109D01*
X41223000Y-58482109D01*
X41223000Y-53506115D01*
X46221288Y-53506115D01*
X46386989Y-54339151D01*
X46858866Y-55045364D01*
X47565079Y-55517241D01*
X48187836Y-55641115D01*
X48608394Y-55641115D01*
X49231151Y-55517241D01*
X49937364Y-55045364D01*
X50409241Y-54339151D01*
X50574942Y-53506115D01*
X61919058Y-53506115D01*
X62084759Y-54339151D01*
X62556636Y-55045364D01*
X63262849Y-55517241D01*
X63885606Y-55641115D01*
X64306164Y-55641115D01*
X64928921Y-55517241D01*
X65635134Y-55045364D01*
X66107011Y-54339151D01*
X66272712Y-53506115D01*
X66107011Y-52673079D01*
X65635134Y-51966866D01*
X64928921Y-51494989D01*
X64306164Y-51371115D01*
X63885606Y-51371115D01*
X63262849Y-51494989D01*
X62556636Y-51966866D01*
X62084759Y-52673079D01*
X61919058Y-53506115D01*
X50574942Y-53506115D01*
X50409241Y-52673079D01*
X49937364Y-51966866D01*
X49231151Y-51494989D01*
X48608394Y-51371115D01*
X48187836Y-51371115D01*
X47565079Y-51494989D01*
X46858866Y-51966866D01*
X46386989Y-52673079D01*
X46221288Y-53506115D01*
X41223000Y-53506115D01*
X41223000Y-50633224D01*
X51197282Y-50633224D01*
X51362983Y-51466260D01*
X51834860Y-52172473D01*
X52541073Y-52644350D01*
X53163830Y-52768224D01*
X53584388Y-52768224D01*
X54207145Y-52644350D01*
X54913358Y-52172473D01*
X55385235Y-51466260D01*
X55550936Y-50633224D01*
X56943064Y-50633224D01*
X57108765Y-51466260D01*
X57580642Y-52172473D01*
X58286855Y-52644350D01*
X58909612Y-52768224D01*
X59330170Y-52768224D01*
X59952927Y-52644350D01*
X60659140Y-52172473D01*
X61131017Y-51466260D01*
X61296718Y-50633224D01*
X61177028Y-50031500D01*
X67217715Y-50031500D01*
X67217715Y-54801500D01*
X84166286Y-54801500D01*
X84166286Y-50031500D01*
X67217715Y-50031500D01*
X61177028Y-50031500D01*
X61131017Y-49800188D01*
X60659140Y-49093975D01*
X59952927Y-48622098D01*
X59330170Y-48498224D01*
X58909612Y-48498224D01*
X58286855Y-48622098D01*
X57580642Y-49093975D01*
X57108765Y-49800188D01*
X56943064Y-50633224D01*
X55550936Y-50633224D01*
X55385235Y-49800188D01*
X54913358Y-49093975D01*
X54207145Y-48622098D01*
X53584388Y-48498224D01*
X53163830Y-48498224D01*
X52541073Y-48622098D01*
X51834860Y-49093975D01*
X51362983Y-49800188D01*
X51197282Y-50633224D01*
X41223000Y-50633224D01*
X41223000Y-47498000D01*
X70774846Y-47498000D01*
X70878458Y-48018891D01*
X71173519Y-48460481D01*
X71615109Y-48755542D01*
X72004515Y-48833000D01*
X72267485Y-48833000D01*
X72656891Y-48755542D01*
X73098481Y-48460481D01*
X73116659Y-48433275D01*
X79000331Y-48433275D01*
X79062169Y-48669042D01*
X79563122Y-48845419D01*
X80093440Y-48816664D01*
X80449831Y-48669042D01*
X80511669Y-48433275D01*
X79756000Y-47677605D01*
X79000331Y-48433275D01*
X73116659Y-48433275D01*
X73393542Y-48018891D01*
X73497154Y-47498000D01*
X73458789Y-47305122D01*
X78408581Y-47305122D01*
X78437336Y-47835440D01*
X78584958Y-48191831D01*
X78820725Y-48253669D01*
X79576395Y-47498000D01*
X79935605Y-47498000D01*
X80691275Y-48253669D01*
X80927042Y-48191831D01*
X81103419Y-47690878D01*
X81074664Y-47160560D01*
X80927042Y-46804169D01*
X80691275Y-46742331D01*
X79935605Y-47498000D01*
X79576395Y-47498000D01*
X78820725Y-46742331D01*
X78584958Y-46804169D01*
X78408581Y-47305122D01*
X73458789Y-47305122D01*
X73393542Y-46977109D01*
X73116660Y-46562725D01*
X79000331Y-46562725D01*
X79756000Y-47318395D01*
X80511669Y-46562725D01*
X80449831Y-46326958D01*
X79948878Y-46150581D01*
X79418560Y-46179336D01*
X79062169Y-46326958D01*
X79000331Y-46562725D01*
X73116660Y-46562725D01*
X73098481Y-46535519D01*
X72656891Y-46240458D01*
X72267485Y-46163000D01*
X72004515Y-46163000D01*
X71615109Y-46240458D01*
X71173519Y-46535519D01*
X70878458Y-46977109D01*
X70774846Y-47498000D01*
X41223000Y-47498000D01*
X41223000Y-43497431D01*
X41580000Y-43497431D01*
X41580000Y-44386569D01*
X41920259Y-45208026D01*
X42548974Y-45836741D01*
X43370431Y-46177000D01*
X44259569Y-46177000D01*
X45081026Y-45836741D01*
X45709741Y-45208026D01*
X46050000Y-44386569D01*
X46050000Y-43942000D01*
X47152846Y-43942000D01*
X47256458Y-44462891D01*
X47551519Y-44904481D01*
X47993109Y-45199542D01*
X48382515Y-45277000D01*
X48645485Y-45277000D01*
X49034891Y-45199542D01*
X49476481Y-44904481D01*
X49494659Y-44877275D01*
X55378331Y-44877275D01*
X55440169Y-45113042D01*
X55941122Y-45289419D01*
X56471440Y-45260664D01*
X56827831Y-45113042D01*
X56889669Y-44877275D01*
X56134000Y-44121605D01*
X55378331Y-44877275D01*
X49494659Y-44877275D01*
X49771542Y-44462891D01*
X49875154Y-43942000D01*
X49836789Y-43749122D01*
X54786581Y-43749122D01*
X54815336Y-44279440D01*
X54962958Y-44635831D01*
X55198725Y-44697669D01*
X55954395Y-43942000D01*
X56313605Y-43942000D01*
X57069275Y-44697669D01*
X57305042Y-44635831D01*
X57481419Y-44134878D01*
X57470961Y-43942000D01*
X58582846Y-43942000D01*
X58686458Y-44462891D01*
X58981519Y-44904481D01*
X59423109Y-45199542D01*
X59812515Y-45277000D01*
X60075485Y-45277000D01*
X60464891Y-45199542D01*
X60906481Y-44904481D01*
X60924659Y-44877275D01*
X66808331Y-44877275D01*
X66870169Y-45113042D01*
X67371122Y-45289419D01*
X67901440Y-45260664D01*
X68257831Y-45113042D01*
X68319669Y-44877275D01*
X68192670Y-44750275D01*
X71507331Y-44750275D01*
X71569169Y-44986042D01*
X72070122Y-45162419D01*
X72600440Y-45133664D01*
X72956831Y-44986042D01*
X73018669Y-44750275D01*
X72263000Y-43994605D01*
X71507331Y-44750275D01*
X68192670Y-44750275D01*
X67564000Y-44121605D01*
X66808331Y-44877275D01*
X60924659Y-44877275D01*
X61201542Y-44462891D01*
X61305154Y-43942000D01*
X61266789Y-43749122D01*
X66216581Y-43749122D01*
X66245336Y-44279440D01*
X66392958Y-44635831D01*
X66628725Y-44697669D01*
X67384395Y-43942000D01*
X67743605Y-43942000D01*
X68499275Y-44697669D01*
X68735042Y-44635831D01*
X68911419Y-44134878D01*
X68883617Y-43622122D01*
X70915581Y-43622122D01*
X70944336Y-44152440D01*
X71091958Y-44508831D01*
X71327725Y-44570669D01*
X72083395Y-43815000D01*
X72442605Y-43815000D01*
X73198275Y-44570669D01*
X73434042Y-44508831D01*
X73610419Y-44007878D01*
X73599961Y-43815000D01*
X78521846Y-43815000D01*
X78625458Y-44335891D01*
X78920519Y-44777481D01*
X79362109Y-45072542D01*
X79751515Y-45150000D01*
X80014485Y-45150000D01*
X80403891Y-45072542D01*
X80845481Y-44777481D01*
X81140542Y-44335891D01*
X81244154Y-43815000D01*
X83321010Y-43815000D01*
X83455666Y-44491963D01*
X83839135Y-45065865D01*
X84245284Y-45337245D01*
X84238643Y-45370634D01*
X84303448Y-45696434D01*
X84411092Y-45857534D01*
X84488000Y-45972635D01*
X84557718Y-46019219D01*
X88192000Y-49653502D01*
X88192001Y-52114762D01*
X88175643Y-52197000D01*
X88211284Y-52376182D01*
X88192364Y-52347866D01*
X87486151Y-51875989D01*
X86863394Y-51752115D01*
X86442836Y-51752115D01*
X85820079Y-51875989D01*
X85113866Y-52347866D01*
X84641989Y-53054079D01*
X84476288Y-53887115D01*
X84641989Y-54720151D01*
X85113866Y-55426364D01*
X85820079Y-55898241D01*
X86442836Y-56022115D01*
X86863394Y-56022115D01*
X87486151Y-55898241D01*
X88192364Y-55426364D01*
X88664241Y-54720151D01*
X88829942Y-53887115D01*
X88664241Y-53054079D01*
X88585766Y-52936633D01*
X93637416Y-57988284D01*
X93684000Y-58058002D01*
X93960200Y-58242553D01*
X94203764Y-58291001D01*
X94286001Y-58307359D01*
X94368238Y-58291001D01*
X95237449Y-58291001D01*
X95105173Y-58956000D01*
X95270874Y-59789036D01*
X95742751Y-60495249D01*
X96448964Y-60967126D01*
X97071721Y-61091000D01*
X97492279Y-61091000D01*
X98115036Y-60967126D01*
X98821249Y-60495249D01*
X99293126Y-59789036D01*
X99458827Y-58956000D01*
X99440350Y-58863109D01*
X103046949Y-58863109D01*
X103212650Y-59696145D01*
X103684527Y-60402358D01*
X104390740Y-60874235D01*
X105013497Y-60998109D01*
X105434055Y-60998109D01*
X106056812Y-60874235D01*
X106763025Y-60402358D01*
X107234902Y-59696145D01*
X107400603Y-58863109D01*
X107234902Y-58030073D01*
X106763025Y-57323860D01*
X106056812Y-56851983D01*
X105434055Y-56728109D01*
X105013497Y-56728109D01*
X104390740Y-56851983D01*
X103684527Y-57323860D01*
X103212650Y-58030073D01*
X103046949Y-58863109D01*
X99440350Y-58863109D01*
X99293126Y-58122964D01*
X98821249Y-57416751D01*
X98115036Y-56944874D01*
X97492279Y-56821000D01*
X97071721Y-56821000D01*
X96451280Y-56944413D01*
X96430588Y-56923721D01*
X96384002Y-56854000D01*
X96107802Y-56669449D01*
X95864238Y-56621001D01*
X95864234Y-56621001D01*
X95782001Y-56604644D01*
X95699768Y-56621001D01*
X94631869Y-56621001D01*
X91897983Y-53887115D01*
X100174058Y-53887115D01*
X100339759Y-54720151D01*
X100811636Y-55426364D01*
X101517849Y-55898241D01*
X102140606Y-56022115D01*
X102561164Y-56022115D01*
X103183921Y-55898241D01*
X103890134Y-55426364D01*
X104362011Y-54720151D01*
X104527712Y-53887115D01*
X104362011Y-53054079D01*
X103890134Y-52347866D01*
X103183921Y-51875989D01*
X102561164Y-51752115D01*
X102140606Y-51752115D01*
X101517849Y-51875989D01*
X100811636Y-52347866D01*
X100339759Y-53054079D01*
X100174058Y-53887115D01*
X91897983Y-53887115D01*
X91063373Y-53052506D01*
X91170275Y-53099344D01*
X91502109Y-52986700D01*
X91502109Y-51141224D01*
X91756109Y-51141224D01*
X91756109Y-52986700D01*
X92087943Y-53099344D01*
X92850957Y-52765036D01*
X93427956Y-52164182D01*
X93714222Y-51473057D01*
X93601274Y-51141224D01*
X91756109Y-51141224D01*
X91502109Y-51141224D01*
X91482109Y-51141224D01*
X91482109Y-51014224D01*
X95198064Y-51014224D01*
X95363765Y-51847260D01*
X95835642Y-52553473D01*
X96541855Y-53025350D01*
X97164612Y-53149224D01*
X97585170Y-53149224D01*
X98207927Y-53025350D01*
X98914140Y-52553473D01*
X99386017Y-51847260D01*
X99551718Y-51014224D01*
X99386017Y-50181188D01*
X98914140Y-49474975D01*
X98207927Y-49003098D01*
X97585170Y-48879224D01*
X97164612Y-48879224D01*
X96541855Y-49003098D01*
X95835642Y-49474975D01*
X95363765Y-50181188D01*
X95198064Y-51014224D01*
X91482109Y-51014224D01*
X91482109Y-50887224D01*
X91502109Y-50887224D01*
X91502109Y-49041748D01*
X91756109Y-49041748D01*
X91756109Y-50887224D01*
X93601274Y-50887224D01*
X93714222Y-50555391D01*
X93427956Y-49864266D01*
X92850957Y-49263412D01*
X92087943Y-48929104D01*
X91756109Y-49041748D01*
X91502109Y-49041748D01*
X91170275Y-48929104D01*
X90407261Y-49263412D01*
X89862000Y-49831216D01*
X89862000Y-49389871D01*
X89878358Y-49307634D01*
X89813552Y-48981833D01*
X89629001Y-48705633D01*
X89559283Y-48659049D01*
X86116209Y-45215976D01*
X86340865Y-45065865D01*
X86724334Y-44491963D01*
X86858990Y-43815000D01*
X86724334Y-43138037D01*
X86441670Y-42715000D01*
X90962560Y-42715000D01*
X90962560Y-44915000D01*
X91011843Y-45162765D01*
X91152191Y-45372809D01*
X91362235Y-45513157D01*
X91610000Y-45562440D01*
X93810000Y-45562440D01*
X94057765Y-45513157D01*
X94267809Y-45372809D01*
X94408157Y-45162765D01*
X94457440Y-44915000D01*
X94457440Y-44227750D01*
X98083000Y-44227750D01*
X98083000Y-44918309D01*
X98179673Y-45151698D01*
X98358301Y-45330327D01*
X98591690Y-45427000D01*
X99282250Y-45427000D01*
X99441000Y-45268250D01*
X99441000Y-44069000D01*
X98241750Y-44069000D01*
X98083000Y-44227750D01*
X94457440Y-44227750D01*
X94457440Y-42965691D01*
X98083000Y-42965691D01*
X98083000Y-43656250D01*
X98241750Y-43815000D01*
X99441000Y-43815000D01*
X99441000Y-42615750D01*
X99695000Y-42615750D01*
X99695000Y-43815000D01*
X99715000Y-43815000D01*
X99715000Y-44069000D01*
X99695000Y-44069000D01*
X99695000Y-45268250D01*
X99853750Y-45427000D01*
X100544310Y-45427000D01*
X100777699Y-45330327D01*
X100956327Y-45151698D01*
X101022904Y-44990967D01*
X101037375Y-45012625D01*
X101528582Y-45340839D01*
X101961744Y-45427000D01*
X102254256Y-45427000D01*
X102687418Y-45340839D01*
X103178625Y-45012625D01*
X103506839Y-44521418D01*
X103622092Y-43942000D01*
X103584186Y-43751431D01*
X104953000Y-43751431D01*
X104953000Y-44640569D01*
X105293259Y-45462026D01*
X105921974Y-46090741D01*
X106743431Y-46431000D01*
X107632569Y-46431000D01*
X108454026Y-46090741D01*
X109082741Y-45462026D01*
X109423000Y-44640569D01*
X109423000Y-43751431D01*
X109082741Y-42929974D01*
X108454026Y-42301259D01*
X107632569Y-41961000D01*
X106743431Y-41961000D01*
X105921974Y-42301259D01*
X105293259Y-42929974D01*
X104953000Y-43751431D01*
X103584186Y-43751431D01*
X103506839Y-43362582D01*
X103178625Y-42871375D01*
X102687418Y-42543161D01*
X102254256Y-42457000D01*
X101961744Y-42457000D01*
X101528582Y-42543161D01*
X101037375Y-42871375D01*
X101022904Y-42893033D01*
X100956327Y-42732302D01*
X100777699Y-42553673D01*
X100544310Y-42457000D01*
X99853750Y-42457000D01*
X99695000Y-42615750D01*
X99441000Y-42615750D01*
X99282250Y-42457000D01*
X98591690Y-42457000D01*
X98358301Y-42553673D01*
X98179673Y-42732302D01*
X98083000Y-42965691D01*
X94457440Y-42965691D01*
X94457440Y-42715000D01*
X94408157Y-42467235D01*
X94267809Y-42257191D01*
X94057765Y-42116843D01*
X93810000Y-42067560D01*
X91610000Y-42067560D01*
X91362235Y-42116843D01*
X91152191Y-42257191D01*
X91011843Y-42467235D01*
X90962560Y-42715000D01*
X86441670Y-42715000D01*
X86340865Y-42564135D01*
X85766963Y-42180666D01*
X85260880Y-42080000D01*
X84919120Y-42080000D01*
X84413037Y-42180666D01*
X83839135Y-42564135D01*
X83455666Y-43138037D01*
X83321010Y-43815000D01*
X81244154Y-43815000D01*
X81140542Y-43294109D01*
X80845481Y-42852519D01*
X80403891Y-42557458D01*
X80014485Y-42480000D01*
X79751515Y-42480000D01*
X79362109Y-42557458D01*
X78920519Y-42852519D01*
X78625458Y-43294109D01*
X78521846Y-43815000D01*
X73599961Y-43815000D01*
X73581664Y-43477560D01*
X73434042Y-43121169D01*
X73198275Y-43059331D01*
X72442605Y-43815000D01*
X72083395Y-43815000D01*
X71327725Y-43059331D01*
X71091958Y-43121169D01*
X70915581Y-43622122D01*
X68883617Y-43622122D01*
X68882664Y-43604560D01*
X68735042Y-43248169D01*
X68499275Y-43186331D01*
X67743605Y-43942000D01*
X67384395Y-43942000D01*
X66628725Y-43186331D01*
X66392958Y-43248169D01*
X66216581Y-43749122D01*
X61266789Y-43749122D01*
X61201542Y-43421109D01*
X60924660Y-43006725D01*
X66808331Y-43006725D01*
X67564000Y-43762395D01*
X68319669Y-43006725D01*
X68286359Y-42879725D01*
X71507331Y-42879725D01*
X72263000Y-43635395D01*
X73018669Y-42879725D01*
X72956831Y-42643958D01*
X72455878Y-42467581D01*
X71925560Y-42496336D01*
X71569169Y-42643958D01*
X71507331Y-42879725D01*
X68286359Y-42879725D01*
X68257831Y-42770958D01*
X67756878Y-42594581D01*
X67226560Y-42623336D01*
X66870169Y-42770958D01*
X66808331Y-43006725D01*
X60924660Y-43006725D01*
X60906481Y-42979519D01*
X60464891Y-42684458D01*
X60075485Y-42607000D01*
X59812515Y-42607000D01*
X59423109Y-42684458D01*
X58981519Y-42979519D01*
X58686458Y-43421109D01*
X58582846Y-43942000D01*
X57470961Y-43942000D01*
X57452664Y-43604560D01*
X57305042Y-43248169D01*
X57069275Y-43186331D01*
X56313605Y-43942000D01*
X55954395Y-43942000D01*
X55198725Y-43186331D01*
X54962958Y-43248169D01*
X54786581Y-43749122D01*
X49836789Y-43749122D01*
X49771542Y-43421109D01*
X49494660Y-43006725D01*
X55378331Y-43006725D01*
X56134000Y-43762395D01*
X56889669Y-43006725D01*
X56827831Y-42770958D01*
X56326878Y-42594581D01*
X55796560Y-42623336D01*
X55440169Y-42770958D01*
X55378331Y-43006725D01*
X49494660Y-43006725D01*
X49476481Y-42979519D01*
X49034891Y-42684458D01*
X48645485Y-42607000D01*
X48382515Y-42607000D01*
X47993109Y-42684458D01*
X47551519Y-42979519D01*
X47256458Y-43421109D01*
X47152846Y-43942000D01*
X46050000Y-43942000D01*
X46050000Y-43497431D01*
X45709741Y-42675974D01*
X45081026Y-42047259D01*
X44259569Y-41707000D01*
X43370431Y-41707000D01*
X42548974Y-42047259D01*
X41920259Y-42675974D01*
X41580000Y-43497431D01*
X41223000Y-43497431D01*
X41223000Y-41223000D01*
X109907001Y-41223000D01*
X109907000Y-80697000D01*
X109907000Y-80697000D01*
G37*
X109907000Y-80697000D02*
X41223000Y-80697000D01*
X41223000Y-77533431D01*
X41580000Y-77533431D01*
X41580000Y-78422569D01*
X41920259Y-79244026D01*
X42548974Y-79872741D01*
X43370431Y-80213000D01*
X44259569Y-80213000D01*
X45081026Y-79872741D01*
X45709741Y-79244026D01*
X46050000Y-78422569D01*
X46050000Y-78359000D01*
X47533846Y-78359000D01*
X47637458Y-78879891D01*
X47932519Y-79321481D01*
X48374109Y-79616542D01*
X48763515Y-79694000D01*
X49026485Y-79694000D01*
X49415891Y-79616542D01*
X49857481Y-79321481D01*
X49875659Y-79294275D01*
X55759331Y-79294275D01*
X55821169Y-79530042D01*
X56322122Y-79706419D01*
X56852440Y-79677664D01*
X57208831Y-79530042D01*
X57270669Y-79294275D01*
X56515000Y-78538605D01*
X55759331Y-79294275D01*
X49875659Y-79294275D01*
X50152542Y-78879891D01*
X50256154Y-78359000D01*
X50217789Y-78166122D01*
X55167581Y-78166122D01*
X55196336Y-78696440D01*
X55343958Y-79052831D01*
X55579725Y-79114669D01*
X56335395Y-78359000D01*
X56694605Y-78359000D01*
X57450275Y-79114669D01*
X57686042Y-79052831D01*
X57862419Y-78551878D01*
X57845075Y-78232000D01*
X60360846Y-78232000D01*
X60464458Y-78752891D01*
X60759519Y-79194481D01*
X61201109Y-79489542D01*
X61590515Y-79567000D01*
X61853485Y-79567000D01*
X62242891Y-79489542D01*
X62684481Y-79194481D01*
X62702659Y-79167275D01*
X68586331Y-79167275D01*
X68648169Y-79403042D01*
X69149122Y-79579419D01*
X69679440Y-79550664D01*
X70035831Y-79403042D01*
X70064358Y-79294275D01*
X83191331Y-79294275D01*
X83253169Y-79530042D01*
X83754122Y-79706419D01*
X84284440Y-79677664D01*
X84640831Y-79530042D01*
X84702669Y-79294275D01*
X83947000Y-78538605D01*
X83191331Y-79294275D01*
X70064358Y-79294275D01*
X70097669Y-79167275D01*
X69342000Y-78411605D01*
X68586331Y-79167275D01*
X62702659Y-79167275D01*
X62979542Y-78752891D01*
X63083154Y-78232000D01*
X63044789Y-78039122D01*
X67994581Y-78039122D01*
X68023336Y-78569440D01*
X68170958Y-78925831D01*
X68406725Y-78987669D01*
X69162395Y-78232000D01*
X69521605Y-78232000D01*
X70277275Y-78987669D01*
X70513042Y-78925831D01*
X70689419Y-78424878D01*
X70660664Y-77894560D01*
X70513042Y-77538169D01*
X70277275Y-77476331D01*
X69521605Y-78232000D01*
X69162395Y-78232000D01*
X68406725Y-77476331D01*
X68170958Y-77538169D01*
X67994581Y-78039122D01*
X63044789Y-78039122D01*
X62979542Y-77711109D01*
X62702660Y-77296725D01*
X68586331Y-77296725D01*
X69342000Y-78052395D01*
X70086561Y-77307833D01*
X72852887Y-77307833D01*
X72916916Y-77548696D01*
X73338524Y-78268870D01*
X74003638Y-78772882D01*
X74811000Y-78984000D01*
X75311000Y-78984000D01*
X75311000Y-76976000D01*
X75565000Y-76976000D01*
X75565000Y-78984000D01*
X76065000Y-78984000D01*
X76872362Y-78772882D01*
X77537476Y-78268870D01*
X77597627Y-78166122D01*
X82599581Y-78166122D01*
X82628336Y-78696440D01*
X82775958Y-79052831D01*
X83011725Y-79114669D01*
X83767395Y-78359000D01*
X84126605Y-78359000D01*
X84882275Y-79114669D01*
X85118042Y-79052831D01*
X85294419Y-78551878D01*
X85283961Y-78359000D01*
X90205846Y-78359000D01*
X90309458Y-78879891D01*
X90604519Y-79321481D01*
X91046109Y-79616542D01*
X91435515Y-79694000D01*
X91698485Y-79694000D01*
X92087891Y-79616542D01*
X92529481Y-79321481D01*
X92547659Y-79294275D01*
X93986331Y-79294275D01*
X94048169Y-79530042D01*
X94549122Y-79706419D01*
X95079440Y-79677664D01*
X95435831Y-79530042D01*
X95497669Y-79294275D01*
X94742000Y-78538605D01*
X93986331Y-79294275D01*
X92547659Y-79294275D01*
X92824542Y-78879891D01*
X92928154Y-78359000D01*
X92889789Y-78166122D01*
X93394581Y-78166122D01*
X93423336Y-78696440D01*
X93570958Y-79052831D01*
X93806725Y-79114669D01*
X94562395Y-78359000D01*
X94921605Y-78359000D01*
X95677275Y-79114669D01*
X95913042Y-79052831D01*
X96089419Y-78551878D01*
X96078961Y-78359000D01*
X101000846Y-78359000D01*
X101104458Y-78879891D01*
X101399519Y-79321481D01*
X101841109Y-79616542D01*
X102230515Y-79694000D01*
X102493485Y-79694000D01*
X102882891Y-79616542D01*
X103324481Y-79321481D01*
X103619542Y-78879891D01*
X103723154Y-78359000D01*
X103619542Y-77838109D01*
X103331104Y-77406431D01*
X104699000Y-77406431D01*
X104699000Y-78295569D01*
X105039259Y-79117026D01*
X105667974Y-79745741D01*
X106489431Y-80086000D01*
X107378569Y-80086000D01*
X108200026Y-79745741D01*
X108828741Y-79117026D01*
X109169000Y-78295569D01*
X109169000Y-77406431D01*
X108828741Y-76584974D01*
X108200026Y-75956259D01*
X107378569Y-75616000D01*
X106489431Y-75616000D01*
X105667974Y-75956259D01*
X105039259Y-76584974D01*
X104699000Y-77406431D01*
X103331104Y-77406431D01*
X103324481Y-77396519D01*
X102882891Y-77101458D01*
X102493485Y-77024000D01*
X102230515Y-77024000D01*
X101841109Y-77101458D01*
X101399519Y-77396519D01*
X101104458Y-77838109D01*
X101000846Y-78359000D01*
X96078961Y-78359000D01*
X96060664Y-78021560D01*
X95913042Y-77665169D01*
X95677275Y-77603331D01*
X94921605Y-78359000D01*
X94562395Y-78359000D01*
X93806725Y-77603331D01*
X93570958Y-77665169D01*
X93394581Y-78166122D01*
X92889789Y-78166122D01*
X92824542Y-77838109D01*
X92547660Y-77423725D01*
X93986331Y-77423725D01*
X94742000Y-78179395D01*
X95497669Y-77423725D01*
X95435831Y-77187958D01*
X94934878Y-77011581D01*
X94404560Y-77040336D01*
X94048169Y-77187958D01*
X93986331Y-77423725D01*
X92547660Y-77423725D01*
X92529481Y-77396519D01*
X92087891Y-77101458D01*
X91698485Y-77024000D01*
X91435515Y-77024000D01*
X91046109Y-77101458D01*
X90604519Y-77396519D01*
X90309458Y-77838109D01*
X90205846Y-78359000D01*
X85283961Y-78359000D01*
X85265664Y-78021560D01*
X85118042Y-77665169D01*
X84882275Y-77603331D01*
X84126605Y-78359000D01*
X83767395Y-78359000D01*
X83011725Y-77603331D01*
X82775958Y-77665169D01*
X82599581Y-78166122D01*
X77597627Y-78166122D01*
X77959084Y-77548696D01*
X77992305Y-77423725D01*
X83191331Y-77423725D01*
X83947000Y-78179395D01*
X84702669Y-77423725D01*
X84640831Y-77187958D01*
X84139878Y-77011581D01*
X83609560Y-77040336D01*
X83253169Y-77187958D01*
X83191331Y-77423725D01*
X77992305Y-77423725D01*
X78023113Y-77307833D01*
X77910165Y-76976000D01*
X75565000Y-76976000D01*
X75311000Y-76976000D01*
X72965835Y-76976000D01*
X72852887Y-77307833D01*
X70086561Y-77307833D01*
X70097669Y-77296725D01*
X70035831Y-77060958D01*
X69534878Y-76884581D01*
X69004560Y-76913336D01*
X68648169Y-77060958D01*
X68586331Y-77296725D01*
X62702660Y-77296725D01*
X62684481Y-77269519D01*
X62242891Y-76974458D01*
X61853485Y-76897000D01*
X61590515Y-76897000D01*
X61201109Y-76974458D01*
X60759519Y-77269519D01*
X60464458Y-77711109D01*
X60360846Y-78232000D01*
X57845075Y-78232000D01*
X57833664Y-78021560D01*
X57686042Y-77665169D01*
X57450275Y-77603331D01*
X56694605Y-78359000D01*
X56335395Y-78359000D01*
X55579725Y-77603331D01*
X55343958Y-77665169D01*
X55167581Y-78166122D01*
X50217789Y-78166122D01*
X50152542Y-77838109D01*
X49875660Y-77423725D01*
X55759331Y-77423725D01*
X56515000Y-78179395D01*
X57270669Y-77423725D01*
X57208831Y-77187958D01*
X56707878Y-77011581D01*
X56177560Y-77040336D01*
X55821169Y-77187958D01*
X55759331Y-77423725D01*
X49875660Y-77423725D01*
X49857481Y-77396519D01*
X49415891Y-77101458D01*
X49026485Y-77024000D01*
X48763515Y-77024000D01*
X48374109Y-77101458D01*
X47932519Y-77396519D01*
X47637458Y-77838109D01*
X47533846Y-78359000D01*
X46050000Y-78359000D01*
X46050000Y-77533431D01*
X45709741Y-76711974D01*
X45387934Y-76390167D01*
X72852887Y-76390167D01*
X72965835Y-76722000D01*
X75311000Y-76722000D01*
X75311000Y-74714000D01*
X75565000Y-74714000D01*
X75565000Y-76722000D01*
X77910165Y-76722000D01*
X78023113Y-76390167D01*
X77959084Y-76149304D01*
X77537476Y-75429130D01*
X76872362Y-74925118D01*
X76065000Y-74714000D01*
X75565000Y-74714000D01*
X75311000Y-74714000D01*
X74811000Y-74714000D01*
X74003638Y-74925118D01*
X73338524Y-75429130D01*
X72916916Y-76149304D01*
X72852887Y-76390167D01*
X45387934Y-76390167D01*
X45081026Y-76083259D01*
X44259569Y-75743000D01*
X43370431Y-75743000D01*
X42548974Y-76083259D01*
X41920259Y-76711974D01*
X41580000Y-77533431D01*
X41223000Y-77533431D01*
X41223000Y-69203885D01*
X46221288Y-69203885D01*
X46386989Y-70036921D01*
X46858866Y-70743134D01*
X47565079Y-71215011D01*
X48187836Y-71338885D01*
X48608394Y-71338885D01*
X49231151Y-71215011D01*
X49937364Y-70743134D01*
X50048520Y-70576776D01*
X51226669Y-70576776D01*
X51226669Y-73576776D01*
X51275952Y-73824541D01*
X51416300Y-74034585D01*
X51626344Y-74174933D01*
X51874109Y-74224216D01*
X54874109Y-74224216D01*
X55121874Y-74174933D01*
X55331918Y-74034585D01*
X55472266Y-73824541D01*
X55521549Y-73576776D01*
X55521549Y-72076776D01*
X56943064Y-72076776D01*
X57108765Y-72909812D01*
X57580642Y-73616025D01*
X58286855Y-74087902D01*
X58909612Y-74211776D01*
X59330170Y-74211776D01*
X59952927Y-74087902D01*
X60659140Y-73616025D01*
X61131017Y-72909812D01*
X61296718Y-72076776D01*
X61131017Y-71243740D01*
X60659140Y-70537527D01*
X59952927Y-70065650D01*
X59330170Y-69941776D01*
X58909612Y-69941776D01*
X58286855Y-70065650D01*
X57580642Y-70537527D01*
X57108765Y-71243740D01*
X56943064Y-72076776D01*
X55521549Y-72076776D01*
X55521549Y-70576776D01*
X55472266Y-70329011D01*
X55331918Y-70118967D01*
X55121874Y-69978619D01*
X54874109Y-69929336D01*
X51874109Y-69929336D01*
X51626344Y-69978619D01*
X51416300Y-70118967D01*
X51275952Y-70329011D01*
X51226669Y-70576776D01*
X50048520Y-70576776D01*
X50409241Y-70036921D01*
X50574942Y-69203885D01*
X61919058Y-69203885D01*
X62084759Y-70036921D01*
X62556636Y-70743134D01*
X63262849Y-71215011D01*
X63885606Y-71338885D01*
X64306164Y-71338885D01*
X64928921Y-71215011D01*
X65635134Y-70743134D01*
X66107011Y-70036921D01*
X66243846Y-69349000D01*
X72761173Y-69349000D01*
X72926874Y-70182036D01*
X73398751Y-70888249D01*
X74104964Y-71360126D01*
X74727721Y-71484000D01*
X76148279Y-71484000D01*
X76771036Y-71360126D01*
X77477249Y-70888249D01*
X77949126Y-70182036D01*
X78067906Y-69584885D01*
X84476288Y-69584885D01*
X84641989Y-70417921D01*
X85113866Y-71124134D01*
X85820079Y-71596011D01*
X86442836Y-71719885D01*
X86863394Y-71719885D01*
X87486151Y-71596011D01*
X88192364Y-71124134D01*
X88303520Y-70957776D01*
X89481669Y-70957776D01*
X89481669Y-73957776D01*
X89530952Y-74205541D01*
X89671300Y-74415585D01*
X89881344Y-74555933D01*
X90129109Y-74605216D01*
X93129109Y-74605216D01*
X93376874Y-74555933D01*
X93586918Y-74415585D01*
X93727266Y-74205541D01*
X93776549Y-73957776D01*
X93776549Y-72457776D01*
X95198064Y-72457776D01*
X95363765Y-73290812D01*
X95835642Y-73997025D01*
X96541855Y-74468902D01*
X97164612Y-74592776D01*
X97585170Y-74592776D01*
X98207927Y-74468902D01*
X98914140Y-73997025D01*
X99386017Y-73290812D01*
X99551718Y-72457776D01*
X99386017Y-71624740D01*
X98914140Y-70918527D01*
X98207927Y-70446650D01*
X97585170Y-70322776D01*
X97164612Y-70322776D01*
X96541855Y-70446650D01*
X95835642Y-70918527D01*
X95363765Y-71624740D01*
X95198064Y-72457776D01*
X93776549Y-72457776D01*
X93776549Y-70957776D01*
X93727266Y-70710011D01*
X93586918Y-70499967D01*
X93376874Y-70359619D01*
X93129109Y-70310336D01*
X90129109Y-70310336D01*
X89881344Y-70359619D01*
X89671300Y-70499967D01*
X89530952Y-70710011D01*
X89481669Y-70957776D01*
X88303520Y-70957776D01*
X88664241Y-70417921D01*
X88829942Y-69584885D01*
X100174058Y-69584885D01*
X100339759Y-70417921D01*
X100811636Y-71124134D01*
X101517849Y-71596011D01*
X102140606Y-71719885D01*
X102561164Y-71719885D01*
X103183921Y-71596011D01*
X103890134Y-71124134D01*
X104362011Y-70417921D01*
X104527712Y-69584885D01*
X104362011Y-68751849D01*
X103890134Y-68045636D01*
X103183921Y-67573759D01*
X102561164Y-67449885D01*
X102140606Y-67449885D01*
X101517849Y-67573759D01*
X100811636Y-68045636D01*
X100339759Y-68751849D01*
X100174058Y-69584885D01*
X88829942Y-69584885D01*
X88664241Y-68751849D01*
X88192364Y-68045636D01*
X87486151Y-67573759D01*
X86863394Y-67449885D01*
X86442836Y-67449885D01*
X85820079Y-67573759D01*
X85113866Y-68045636D01*
X84641989Y-68751849D01*
X84476288Y-69584885D01*
X78067906Y-69584885D01*
X78114827Y-69349000D01*
X77949126Y-68515964D01*
X77477249Y-67809751D01*
X76771036Y-67337874D01*
X76148279Y-67214000D01*
X74727721Y-67214000D01*
X74104964Y-67337874D01*
X73398751Y-67809751D01*
X72926874Y-68515964D01*
X72761173Y-69349000D01*
X66243846Y-69349000D01*
X66272712Y-69203885D01*
X66107011Y-68370849D01*
X65635134Y-67664636D01*
X64928921Y-67192759D01*
X64306164Y-67068885D01*
X63885606Y-67068885D01*
X63262849Y-67192759D01*
X62556636Y-67664636D01*
X62084759Y-68370849D01*
X61919058Y-69203885D01*
X50574942Y-69203885D01*
X50409241Y-68370849D01*
X49937364Y-67664636D01*
X49231151Y-67192759D01*
X48608394Y-67068885D01*
X48187836Y-67068885D01*
X47565079Y-67192759D01*
X46858866Y-67664636D01*
X46386989Y-68370849D01*
X46221288Y-69203885D01*
X41223000Y-69203885D01*
X41223000Y-64227891D01*
X43348397Y-64227891D01*
X43514098Y-65060927D01*
X43985975Y-65767140D01*
X44692188Y-66239017D01*
X45314945Y-66362891D01*
X45735503Y-66362891D01*
X46358260Y-66239017D01*
X47064473Y-65767140D01*
X47536350Y-65060927D01*
X47702051Y-64227891D01*
X47683574Y-64135000D01*
X51290173Y-64135000D01*
X51455874Y-64968036D01*
X51927751Y-65674249D01*
X52633964Y-66146126D01*
X53256721Y-66270000D01*
X53677279Y-66270000D01*
X54300036Y-66146126D01*
X55006249Y-65674249D01*
X55478126Y-64968036D01*
X55625349Y-64227891D01*
X64791949Y-64227891D01*
X64957650Y-65060927D01*
X65429527Y-65767140D01*
X66135740Y-66239017D01*
X66758497Y-66362891D01*
X67179055Y-66362891D01*
X67801812Y-66239017D01*
X68508025Y-65767140D01*
X68979902Y-65060927D01*
X69069817Y-64608891D01*
X81603397Y-64608891D01*
X81769098Y-65441927D01*
X82240975Y-66148140D01*
X82947188Y-66620017D01*
X83569945Y-66743891D01*
X83990503Y-66743891D01*
X84613260Y-66620017D01*
X85319473Y-66148140D01*
X85791350Y-65441927D01*
X85957051Y-64608891D01*
X85938574Y-64516000D01*
X89545173Y-64516000D01*
X89710874Y-65349036D01*
X90182751Y-66055249D01*
X90888964Y-66527126D01*
X91511721Y-66651000D01*
X91932279Y-66651000D01*
X92555036Y-66527126D01*
X93261249Y-66055249D01*
X93733126Y-65349036D01*
X93880349Y-64608891D01*
X103046949Y-64608891D01*
X103212650Y-65441927D01*
X103684527Y-66148140D01*
X104390740Y-66620017D01*
X105013497Y-66743891D01*
X105434055Y-66743891D01*
X106056812Y-66620017D01*
X106763025Y-66148140D01*
X107234902Y-65441927D01*
X107400603Y-64608891D01*
X107234902Y-63775855D01*
X106763025Y-63069642D01*
X106056812Y-62597765D01*
X105434055Y-62473891D01*
X105013497Y-62473891D01*
X104390740Y-62597765D01*
X103684527Y-63069642D01*
X103212650Y-63775855D01*
X103046949Y-64608891D01*
X93880349Y-64608891D01*
X93898827Y-64516000D01*
X93733126Y-63682964D01*
X93261249Y-62976751D01*
X92555036Y-62504874D01*
X91932279Y-62381000D01*
X91511721Y-62381000D01*
X90888964Y-62504874D01*
X90182751Y-62976751D01*
X89710874Y-63682964D01*
X89545173Y-64516000D01*
X85938574Y-64516000D01*
X85791350Y-63775855D01*
X85319473Y-63069642D01*
X84613260Y-62597765D01*
X83990503Y-62473891D01*
X83569945Y-62473891D01*
X82947188Y-62597765D01*
X82240975Y-63069642D01*
X81769098Y-63775855D01*
X81603397Y-64608891D01*
X69069817Y-64608891D01*
X69145603Y-64227891D01*
X68979902Y-63394855D01*
X68508025Y-62688642D01*
X67801812Y-62216765D01*
X67179055Y-62092891D01*
X66758497Y-62092891D01*
X66135740Y-62216765D01*
X65429527Y-62688642D01*
X64957650Y-63394855D01*
X64791949Y-64227891D01*
X55625349Y-64227891D01*
X55643827Y-64135000D01*
X55478126Y-63301964D01*
X55006249Y-62595751D01*
X54300036Y-62123874D01*
X53677279Y-62000000D01*
X53256721Y-62000000D01*
X52633964Y-62123874D01*
X51927751Y-62595751D01*
X51455874Y-63301964D01*
X51290173Y-64135000D01*
X47683574Y-64135000D01*
X47536350Y-63394855D01*
X47064473Y-62688642D01*
X46358260Y-62216765D01*
X45735503Y-62092891D01*
X45314945Y-62092891D01*
X44692188Y-62216765D01*
X43985975Y-62688642D01*
X43514098Y-63394855D01*
X43348397Y-64227891D01*
X41223000Y-64227891D01*
X41223000Y-61849000D01*
X72761173Y-61849000D01*
X72926874Y-62682036D01*
X73398751Y-63388249D01*
X74104964Y-63860126D01*
X74727721Y-63984000D01*
X76148279Y-63984000D01*
X76771036Y-63860126D01*
X77477249Y-63388249D01*
X77949126Y-62682036D01*
X78114827Y-61849000D01*
X77949126Y-61015964D01*
X77477249Y-60309751D01*
X76771036Y-59837874D01*
X76148279Y-59714000D01*
X74727721Y-59714000D01*
X74104964Y-59837874D01*
X73398751Y-60309751D01*
X72926874Y-61015964D01*
X72761173Y-61849000D01*
X41223000Y-61849000D01*
X41223000Y-58482109D01*
X43348397Y-58482109D01*
X43514098Y-59315145D01*
X43985975Y-60021358D01*
X44692188Y-60493235D01*
X45314945Y-60617109D01*
X45735503Y-60617109D01*
X46358260Y-60493235D01*
X47064473Y-60021358D01*
X47536350Y-59315145D01*
X47683573Y-58575000D01*
X56850173Y-58575000D01*
X57015874Y-59408036D01*
X57487751Y-60114249D01*
X58193964Y-60586126D01*
X58816721Y-60710000D01*
X59237279Y-60710000D01*
X59860036Y-60586126D01*
X60566249Y-60114249D01*
X61038126Y-59408036D01*
X61203827Y-58575000D01*
X61185350Y-58482109D01*
X64791949Y-58482109D01*
X64957650Y-59315145D01*
X65429527Y-60021358D01*
X66135740Y-60493235D01*
X66758497Y-60617109D01*
X67179055Y-60617109D01*
X67801812Y-60493235D01*
X68508025Y-60021358D01*
X68979902Y-59315145D01*
X69069817Y-58863109D01*
X81603397Y-58863109D01*
X81769098Y-59696145D01*
X82240975Y-60402358D01*
X82947188Y-60874235D01*
X83569945Y-60998109D01*
X83990503Y-60998109D01*
X84613260Y-60874235D01*
X85319473Y-60402358D01*
X85791350Y-59696145D01*
X85957051Y-58863109D01*
X85791350Y-58030073D01*
X85319473Y-57323860D01*
X84613260Y-56851983D01*
X83990503Y-56728109D01*
X83569945Y-56728109D01*
X82947188Y-56851983D01*
X82240975Y-57323860D01*
X81769098Y-58030073D01*
X81603397Y-58863109D01*
X69069817Y-58863109D01*
X69145603Y-58482109D01*
X68979902Y-57649073D01*
X68508025Y-56942860D01*
X67801812Y-56470983D01*
X67179055Y-56347109D01*
X66758497Y-56347109D01*
X66135740Y-56470983D01*
X65429527Y-56942860D01*
X64957650Y-57649073D01*
X64791949Y-58482109D01*
X61185350Y-58482109D01*
X61038126Y-57741964D01*
X60566249Y-57035751D01*
X59860036Y-56563874D01*
X59237279Y-56440000D01*
X58816721Y-56440000D01*
X58193964Y-56563874D01*
X57487751Y-57035751D01*
X57015874Y-57741964D01*
X56850173Y-58575000D01*
X47683573Y-58575000D01*
X47702051Y-58482109D01*
X47536350Y-57649073D01*
X47064473Y-56942860D01*
X46358260Y-56470983D01*
X45735503Y-56347109D01*
X45314945Y-56347109D01*
X44692188Y-56470983D01*
X43985975Y-56942860D01*
X43514098Y-57649073D01*
X43348397Y-58482109D01*
X41223000Y-58482109D01*
X41223000Y-53506115D01*
X46221288Y-53506115D01*
X46386989Y-54339151D01*
X46858866Y-55045364D01*
X47565079Y-55517241D01*
X48187836Y-55641115D01*
X48608394Y-55641115D01*
X49231151Y-55517241D01*
X49937364Y-55045364D01*
X50409241Y-54339151D01*
X50574942Y-53506115D01*
X61919058Y-53506115D01*
X62084759Y-54339151D01*
X62556636Y-55045364D01*
X63262849Y-55517241D01*
X63885606Y-55641115D01*
X64306164Y-55641115D01*
X64928921Y-55517241D01*
X65635134Y-55045364D01*
X66107011Y-54339151D01*
X66272712Y-53506115D01*
X66107011Y-52673079D01*
X65635134Y-51966866D01*
X64928921Y-51494989D01*
X64306164Y-51371115D01*
X63885606Y-51371115D01*
X63262849Y-51494989D01*
X62556636Y-51966866D01*
X62084759Y-52673079D01*
X61919058Y-53506115D01*
X50574942Y-53506115D01*
X50409241Y-52673079D01*
X49937364Y-51966866D01*
X49231151Y-51494989D01*
X48608394Y-51371115D01*
X48187836Y-51371115D01*
X47565079Y-51494989D01*
X46858866Y-51966866D01*
X46386989Y-52673079D01*
X46221288Y-53506115D01*
X41223000Y-53506115D01*
X41223000Y-50633224D01*
X51197282Y-50633224D01*
X51362983Y-51466260D01*
X51834860Y-52172473D01*
X52541073Y-52644350D01*
X53163830Y-52768224D01*
X53584388Y-52768224D01*
X54207145Y-52644350D01*
X54913358Y-52172473D01*
X55385235Y-51466260D01*
X55550936Y-50633224D01*
X56943064Y-50633224D01*
X57108765Y-51466260D01*
X57580642Y-52172473D01*
X58286855Y-52644350D01*
X58909612Y-52768224D01*
X59330170Y-52768224D01*
X59952927Y-52644350D01*
X60659140Y-52172473D01*
X61131017Y-51466260D01*
X61296718Y-50633224D01*
X61177028Y-50031500D01*
X67217715Y-50031500D01*
X67217715Y-54801500D01*
X84166286Y-54801500D01*
X84166286Y-50031500D01*
X67217715Y-50031500D01*
X61177028Y-50031500D01*
X61131017Y-49800188D01*
X60659140Y-49093975D01*
X59952927Y-48622098D01*
X59330170Y-48498224D01*
X58909612Y-48498224D01*
X58286855Y-48622098D01*
X57580642Y-49093975D01*
X57108765Y-49800188D01*
X56943064Y-50633224D01*
X55550936Y-50633224D01*
X55385235Y-49800188D01*
X54913358Y-49093975D01*
X54207145Y-48622098D01*
X53584388Y-48498224D01*
X53163830Y-48498224D01*
X52541073Y-48622098D01*
X51834860Y-49093975D01*
X51362983Y-49800188D01*
X51197282Y-50633224D01*
X41223000Y-50633224D01*
X41223000Y-47498000D01*
X70774846Y-47498000D01*
X70878458Y-48018891D01*
X71173519Y-48460481D01*
X71615109Y-48755542D01*
X72004515Y-48833000D01*
X72267485Y-48833000D01*
X72656891Y-48755542D01*
X73098481Y-48460481D01*
X73116659Y-48433275D01*
X79000331Y-48433275D01*
X79062169Y-48669042D01*
X79563122Y-48845419D01*
X80093440Y-48816664D01*
X80449831Y-48669042D01*
X80511669Y-48433275D01*
X79756000Y-47677605D01*
X79000331Y-48433275D01*
X73116659Y-48433275D01*
X73393542Y-48018891D01*
X73497154Y-47498000D01*
X73458789Y-47305122D01*
X78408581Y-47305122D01*
X78437336Y-47835440D01*
X78584958Y-48191831D01*
X78820725Y-48253669D01*
X79576395Y-47498000D01*
X79935605Y-47498000D01*
X80691275Y-48253669D01*
X80927042Y-48191831D01*
X81103419Y-47690878D01*
X81074664Y-47160560D01*
X80927042Y-46804169D01*
X80691275Y-46742331D01*
X79935605Y-47498000D01*
X79576395Y-47498000D01*
X78820725Y-46742331D01*
X78584958Y-46804169D01*
X78408581Y-47305122D01*
X73458789Y-47305122D01*
X73393542Y-46977109D01*
X73116660Y-46562725D01*
X79000331Y-46562725D01*
X79756000Y-47318395D01*
X80511669Y-46562725D01*
X80449831Y-46326958D01*
X79948878Y-46150581D01*
X79418560Y-46179336D01*
X79062169Y-46326958D01*
X79000331Y-46562725D01*
X73116660Y-46562725D01*
X73098481Y-46535519D01*
X72656891Y-46240458D01*
X72267485Y-46163000D01*
X72004515Y-46163000D01*
X71615109Y-46240458D01*
X71173519Y-46535519D01*
X70878458Y-46977109D01*
X70774846Y-47498000D01*
X41223000Y-47498000D01*
X41223000Y-43497431D01*
X41580000Y-43497431D01*
X41580000Y-44386569D01*
X41920259Y-45208026D01*
X42548974Y-45836741D01*
X43370431Y-46177000D01*
X44259569Y-46177000D01*
X45081026Y-45836741D01*
X45709741Y-45208026D01*
X46050000Y-44386569D01*
X46050000Y-43942000D01*
X47152846Y-43942000D01*
X47256458Y-44462891D01*
X47551519Y-44904481D01*
X47993109Y-45199542D01*
X48382515Y-45277000D01*
X48645485Y-45277000D01*
X49034891Y-45199542D01*
X49476481Y-44904481D01*
X49494659Y-44877275D01*
X55378331Y-44877275D01*
X55440169Y-45113042D01*
X55941122Y-45289419D01*
X56471440Y-45260664D01*
X56827831Y-45113042D01*
X56889669Y-44877275D01*
X56134000Y-44121605D01*
X55378331Y-44877275D01*
X49494659Y-44877275D01*
X49771542Y-44462891D01*
X49875154Y-43942000D01*
X49836789Y-43749122D01*
X54786581Y-43749122D01*
X54815336Y-44279440D01*
X54962958Y-44635831D01*
X55198725Y-44697669D01*
X55954395Y-43942000D01*
X56313605Y-43942000D01*
X57069275Y-44697669D01*
X57305042Y-44635831D01*
X57481419Y-44134878D01*
X57470961Y-43942000D01*
X58582846Y-43942000D01*
X58686458Y-44462891D01*
X58981519Y-44904481D01*
X59423109Y-45199542D01*
X59812515Y-45277000D01*
X60075485Y-45277000D01*
X60464891Y-45199542D01*
X60906481Y-44904481D01*
X60924659Y-44877275D01*
X66808331Y-44877275D01*
X66870169Y-45113042D01*
X67371122Y-45289419D01*
X67901440Y-45260664D01*
X68257831Y-45113042D01*
X68319669Y-44877275D01*
X68192670Y-44750275D01*
X71507331Y-44750275D01*
X71569169Y-44986042D01*
X72070122Y-45162419D01*
X72600440Y-45133664D01*
X72956831Y-44986042D01*
X73018669Y-44750275D01*
X72263000Y-43994605D01*
X71507331Y-44750275D01*
X68192670Y-44750275D01*
X67564000Y-44121605D01*
X66808331Y-44877275D01*
X60924659Y-44877275D01*
X61201542Y-44462891D01*
X61305154Y-43942000D01*
X61266789Y-43749122D01*
X66216581Y-43749122D01*
X66245336Y-44279440D01*
X66392958Y-44635831D01*
X66628725Y-44697669D01*
X67384395Y-43942000D01*
X67743605Y-43942000D01*
X68499275Y-44697669D01*
X68735042Y-44635831D01*
X68911419Y-44134878D01*
X68883617Y-43622122D01*
X70915581Y-43622122D01*
X70944336Y-44152440D01*
X71091958Y-44508831D01*
X71327725Y-44570669D01*
X72083395Y-43815000D01*
X72442605Y-43815000D01*
X73198275Y-44570669D01*
X73434042Y-44508831D01*
X73610419Y-44007878D01*
X73599961Y-43815000D01*
X78521846Y-43815000D01*
X78625458Y-44335891D01*
X78920519Y-44777481D01*
X79362109Y-45072542D01*
X79751515Y-45150000D01*
X80014485Y-45150000D01*
X80403891Y-45072542D01*
X80845481Y-44777481D01*
X81140542Y-44335891D01*
X81244154Y-43815000D01*
X83321010Y-43815000D01*
X83455666Y-44491963D01*
X83839135Y-45065865D01*
X84245284Y-45337245D01*
X84238643Y-45370634D01*
X84303448Y-45696434D01*
X84411092Y-45857534D01*
X84488000Y-45972635D01*
X84557718Y-46019219D01*
X88192000Y-49653502D01*
X88192001Y-52114762D01*
X88175643Y-52197000D01*
X88211284Y-52376182D01*
X88192364Y-52347866D01*
X87486151Y-51875989D01*
X86863394Y-51752115D01*
X86442836Y-51752115D01*
X85820079Y-51875989D01*
X85113866Y-52347866D01*
X84641989Y-53054079D01*
X84476288Y-53887115D01*
X84641989Y-54720151D01*
X85113866Y-55426364D01*
X85820079Y-55898241D01*
X86442836Y-56022115D01*
X86863394Y-56022115D01*
X87486151Y-55898241D01*
X88192364Y-55426364D01*
X88664241Y-54720151D01*
X88829942Y-53887115D01*
X88664241Y-53054079D01*
X88585766Y-52936633D01*
X93637416Y-57988284D01*
X93684000Y-58058002D01*
X93960200Y-58242553D01*
X94203764Y-58291001D01*
X94286001Y-58307359D01*
X94368238Y-58291001D01*
X95237449Y-58291001D01*
X95105173Y-58956000D01*
X95270874Y-59789036D01*
X95742751Y-60495249D01*
X96448964Y-60967126D01*
X97071721Y-61091000D01*
X97492279Y-61091000D01*
X98115036Y-60967126D01*
X98821249Y-60495249D01*
X99293126Y-59789036D01*
X99458827Y-58956000D01*
X99440350Y-58863109D01*
X103046949Y-58863109D01*
X103212650Y-59696145D01*
X103684527Y-60402358D01*
X104390740Y-60874235D01*
X105013497Y-60998109D01*
X105434055Y-60998109D01*
X106056812Y-60874235D01*
X106763025Y-60402358D01*
X107234902Y-59696145D01*
X107400603Y-58863109D01*
X107234902Y-58030073D01*
X106763025Y-57323860D01*
X106056812Y-56851983D01*
X105434055Y-56728109D01*
X105013497Y-56728109D01*
X104390740Y-56851983D01*
X103684527Y-57323860D01*
X103212650Y-58030073D01*
X103046949Y-58863109D01*
X99440350Y-58863109D01*
X99293126Y-58122964D01*
X98821249Y-57416751D01*
X98115036Y-56944874D01*
X97492279Y-56821000D01*
X97071721Y-56821000D01*
X96451280Y-56944413D01*
X96430588Y-56923721D01*
X96384002Y-56854000D01*
X96107802Y-56669449D01*
X95864238Y-56621001D01*
X95864234Y-56621001D01*
X95782001Y-56604644D01*
X95699768Y-56621001D01*
X94631869Y-56621001D01*
X91897983Y-53887115D01*
X100174058Y-53887115D01*
X100339759Y-54720151D01*
X100811636Y-55426364D01*
X101517849Y-55898241D01*
X102140606Y-56022115D01*
X102561164Y-56022115D01*
X103183921Y-55898241D01*
X103890134Y-55426364D01*
X104362011Y-54720151D01*
X104527712Y-53887115D01*
X104362011Y-53054079D01*
X103890134Y-52347866D01*
X103183921Y-51875989D01*
X102561164Y-51752115D01*
X102140606Y-51752115D01*
X101517849Y-51875989D01*
X100811636Y-52347866D01*
X100339759Y-53054079D01*
X100174058Y-53887115D01*
X91897983Y-53887115D01*
X91063373Y-53052506D01*
X91170275Y-53099344D01*
X91502109Y-52986700D01*
X91502109Y-51141224D01*
X91756109Y-51141224D01*
X91756109Y-52986700D01*
X92087943Y-53099344D01*
X92850957Y-52765036D01*
X93427956Y-52164182D01*
X93714222Y-51473057D01*
X93601274Y-51141224D01*
X91756109Y-51141224D01*
X91502109Y-51141224D01*
X91482109Y-51141224D01*
X91482109Y-51014224D01*
X95198064Y-51014224D01*
X95363765Y-51847260D01*
X95835642Y-52553473D01*
X96541855Y-53025350D01*
X97164612Y-53149224D01*
X97585170Y-53149224D01*
X98207927Y-53025350D01*
X98914140Y-52553473D01*
X99386017Y-51847260D01*
X99551718Y-51014224D01*
X99386017Y-50181188D01*
X98914140Y-49474975D01*
X98207927Y-49003098D01*
X97585170Y-48879224D01*
X97164612Y-48879224D01*
X96541855Y-49003098D01*
X95835642Y-49474975D01*
X95363765Y-50181188D01*
X95198064Y-51014224D01*
X91482109Y-51014224D01*
X91482109Y-50887224D01*
X91502109Y-50887224D01*
X91502109Y-49041748D01*
X91756109Y-49041748D01*
X91756109Y-50887224D01*
X93601274Y-50887224D01*
X93714222Y-50555391D01*
X93427956Y-49864266D01*
X92850957Y-49263412D01*
X92087943Y-48929104D01*
X91756109Y-49041748D01*
X91502109Y-49041748D01*
X91170275Y-48929104D01*
X90407261Y-49263412D01*
X89862000Y-49831216D01*
X89862000Y-49389871D01*
X89878358Y-49307634D01*
X89813552Y-48981833D01*
X89629001Y-48705633D01*
X89559283Y-48659049D01*
X86116209Y-45215976D01*
X86340865Y-45065865D01*
X86724334Y-44491963D01*
X86858990Y-43815000D01*
X86724334Y-43138037D01*
X86441670Y-42715000D01*
X90962560Y-42715000D01*
X90962560Y-44915000D01*
X91011843Y-45162765D01*
X91152191Y-45372809D01*
X91362235Y-45513157D01*
X91610000Y-45562440D01*
X93810000Y-45562440D01*
X94057765Y-45513157D01*
X94267809Y-45372809D01*
X94408157Y-45162765D01*
X94457440Y-44915000D01*
X94457440Y-44227750D01*
X98083000Y-44227750D01*
X98083000Y-44918309D01*
X98179673Y-45151698D01*
X98358301Y-45330327D01*
X98591690Y-45427000D01*
X99282250Y-45427000D01*
X99441000Y-45268250D01*
X99441000Y-44069000D01*
X98241750Y-44069000D01*
X98083000Y-44227750D01*
X94457440Y-44227750D01*
X94457440Y-42965691D01*
X98083000Y-42965691D01*
X98083000Y-43656250D01*
X98241750Y-43815000D01*
X99441000Y-43815000D01*
X99441000Y-42615750D01*
X99695000Y-42615750D01*
X99695000Y-43815000D01*
X99715000Y-43815000D01*
X99715000Y-44069000D01*
X99695000Y-44069000D01*
X99695000Y-45268250D01*
X99853750Y-45427000D01*
X100544310Y-45427000D01*
X100777699Y-45330327D01*
X100956327Y-45151698D01*
X101022904Y-44990967D01*
X101037375Y-45012625D01*
X101528582Y-45340839D01*
X101961744Y-45427000D01*
X102254256Y-45427000D01*
X102687418Y-45340839D01*
X103178625Y-45012625D01*
X103506839Y-44521418D01*
X103622092Y-43942000D01*
X103584186Y-43751431D01*
X104953000Y-43751431D01*
X104953000Y-44640569D01*
X105293259Y-45462026D01*
X105921974Y-46090741D01*
X106743431Y-46431000D01*
X107632569Y-46431000D01*
X108454026Y-46090741D01*
X109082741Y-45462026D01*
X109423000Y-44640569D01*
X109423000Y-43751431D01*
X109082741Y-42929974D01*
X108454026Y-42301259D01*
X107632569Y-41961000D01*
X106743431Y-41961000D01*
X105921974Y-42301259D01*
X105293259Y-42929974D01*
X104953000Y-43751431D01*
X103584186Y-43751431D01*
X103506839Y-43362582D01*
X103178625Y-42871375D01*
X102687418Y-42543161D01*
X102254256Y-42457000D01*
X101961744Y-42457000D01*
X101528582Y-42543161D01*
X101037375Y-42871375D01*
X101022904Y-42893033D01*
X100956327Y-42732302D01*
X100777699Y-42553673D01*
X100544310Y-42457000D01*
X99853750Y-42457000D01*
X99695000Y-42615750D01*
X99441000Y-42615750D01*
X99282250Y-42457000D01*
X98591690Y-42457000D01*
X98358301Y-42553673D01*
X98179673Y-42732302D01*
X98083000Y-42965691D01*
X94457440Y-42965691D01*
X94457440Y-42715000D01*
X94408157Y-42467235D01*
X94267809Y-42257191D01*
X94057765Y-42116843D01*
X93810000Y-42067560D01*
X91610000Y-42067560D01*
X91362235Y-42116843D01*
X91152191Y-42257191D01*
X91011843Y-42467235D01*
X90962560Y-42715000D01*
X86441670Y-42715000D01*
X86340865Y-42564135D01*
X85766963Y-42180666D01*
X85260880Y-42080000D01*
X84919120Y-42080000D01*
X84413037Y-42180666D01*
X83839135Y-42564135D01*
X83455666Y-43138037D01*
X83321010Y-43815000D01*
X81244154Y-43815000D01*
X81140542Y-43294109D01*
X80845481Y-42852519D01*
X80403891Y-42557458D01*
X80014485Y-42480000D01*
X79751515Y-42480000D01*
X79362109Y-42557458D01*
X78920519Y-42852519D01*
X78625458Y-43294109D01*
X78521846Y-43815000D01*
X73599961Y-43815000D01*
X73581664Y-43477560D01*
X73434042Y-43121169D01*
X73198275Y-43059331D01*
X72442605Y-43815000D01*
X72083395Y-43815000D01*
X71327725Y-43059331D01*
X71091958Y-43121169D01*
X70915581Y-43622122D01*
X68883617Y-43622122D01*
X68882664Y-43604560D01*
X68735042Y-43248169D01*
X68499275Y-43186331D01*
X67743605Y-43942000D01*
X67384395Y-43942000D01*
X66628725Y-43186331D01*
X66392958Y-43248169D01*
X66216581Y-43749122D01*
X61266789Y-43749122D01*
X61201542Y-43421109D01*
X60924660Y-43006725D01*
X66808331Y-43006725D01*
X67564000Y-43762395D01*
X68319669Y-43006725D01*
X68286359Y-42879725D01*
X71507331Y-42879725D01*
X72263000Y-43635395D01*
X73018669Y-42879725D01*
X72956831Y-42643958D01*
X72455878Y-42467581D01*
X71925560Y-42496336D01*
X71569169Y-42643958D01*
X71507331Y-42879725D01*
X68286359Y-42879725D01*
X68257831Y-42770958D01*
X67756878Y-42594581D01*
X67226560Y-42623336D01*
X66870169Y-42770958D01*
X66808331Y-43006725D01*
X60924660Y-43006725D01*
X60906481Y-42979519D01*
X60464891Y-42684458D01*
X60075485Y-42607000D01*
X59812515Y-42607000D01*
X59423109Y-42684458D01*
X58981519Y-42979519D01*
X58686458Y-43421109D01*
X58582846Y-43942000D01*
X57470961Y-43942000D01*
X57452664Y-43604560D01*
X57305042Y-43248169D01*
X57069275Y-43186331D01*
X56313605Y-43942000D01*
X55954395Y-43942000D01*
X55198725Y-43186331D01*
X54962958Y-43248169D01*
X54786581Y-43749122D01*
X49836789Y-43749122D01*
X49771542Y-43421109D01*
X49494660Y-43006725D01*
X55378331Y-43006725D01*
X56134000Y-43762395D01*
X56889669Y-43006725D01*
X56827831Y-42770958D01*
X56326878Y-42594581D01*
X55796560Y-42623336D01*
X55440169Y-42770958D01*
X55378331Y-43006725D01*
X49494660Y-43006725D01*
X49476481Y-42979519D01*
X49034891Y-42684458D01*
X48645485Y-42607000D01*
X48382515Y-42607000D01*
X47993109Y-42684458D01*
X47551519Y-42979519D01*
X47256458Y-43421109D01*
X47152846Y-43942000D01*
X46050000Y-43942000D01*
X46050000Y-43497431D01*
X45709741Y-42675974D01*
X45081026Y-42047259D01*
X44259569Y-41707000D01*
X43370431Y-41707000D01*
X42548974Y-42047259D01*
X41920259Y-42675974D01*
X41580000Y-43497431D01*
X41223000Y-43497431D01*
X41223000Y-41223000D01*
X109907001Y-41223000D01*
X109907000Y-80697000D01*
G04 #@! TD*
M02*
