M48
;DRILL file {KiCad 5.0.1-33cea8e~68~ubuntu16.04.1} date Fr 21 Dez 2018 13:37:21 CET
;FORMAT={-:-/ absolute / inch / decimal}
FMAT,2
INCH,TZ
T1C0.0157
T2C0.0276
T3C0.0394
T4C0.0433
T5C0.0551
T6C0.0591
%
G90
G05
M72
T1
X1.91Y-2.91
X1.975Y-2.39
X2.06Y-1.855
X2.12Y-2.12
X2.32Y-2.625
X2.48Y-2.25
X2.73Y-2.88
X3.145Y-2.18
X3.31Y-1.945
X3.31Y-2.91
X3.525Y-2.325
X3.545Y-2.695
X3.695Y-1.85
X3.745Y-2.485
X3.785Y-2.18
X3.915Y-2.7
X3.915Y-3.025
X3.925Y-2.43
X4.035Y-1.85
T2
X1.91Y-1.73
X2.21Y-1.73
X3.305Y-3.085
X3.605Y-3.085
X2.43Y-3.08
X2.73Y-3.08
X2.845Y-1.725
X3.145Y-1.725
X2.36Y-1.73
X2.66Y-1.73
X2.84Y-1.87
X3.14Y-1.87
X3.73Y-3.085
X4.03Y-3.085
X1.925Y-3.085
X2.225Y-3.085
T3
X3.92Y-1.73
X4.02Y-1.73
T4
X3.35Y-1.725
X3.65Y-1.725
T5
X2.97Y-2.435
X2.97Y-2.7303
X2.97Y-3.0256
T6
X1.7923Y-2.3024
X1.7923Y-2.5287
X1.9054Y-2.1065
X1.9054Y-2.7246
X2.1013Y-1.9934
X2.1013Y-2.8377
X2.105Y-2.525
X2.3239Y-2.3061
X2.3276Y-1.9934
X2.3276Y-2.8377
X2.5235Y-2.1065
X2.5235Y-2.7246
X2.6366Y-2.3024
X2.6366Y-2.5287
X3.2984Y-2.3174
X3.2984Y-2.5437
X3.4115Y-2.1215
X3.4115Y-2.7396
X3.6074Y-2.0084
X3.6074Y-2.8527
X3.6111Y-2.54
X3.83Y-2.3211
X3.8337Y-2.0084
X3.8337Y-2.8527
X4.0296Y-2.1215
X4.0296Y-2.7396
X4.1427Y-2.3174
X4.1427Y-2.5437
T0
M30
