G04 #@! TF.GenerationSoftware,KiCad,Pcbnew,5.0.1-33cea8e~68~ubuntu16.04.1*
G04 #@! TF.CreationDate,2018-12-21T13:37:05+01:00*
G04 #@! TF.ProjectId,EVSE-Easy-Test,455653452D456173792D546573742E6B,rev?*
G04 #@! TF.SameCoordinates,Original*
G04 #@! TF.FileFunction,Legend,Top*
G04 #@! TF.FilePolarity,Positive*
%FSLAX46Y46*%
G04 Gerber Fmt 4.6, Leading zero omitted, Abs format (unit mm)*
G04 Created by KiCad (PCBNEW 5.0.1-33cea8e~68~ubuntu16.04.1) date Fr 21 Dez 2018 13:37:05 CET*
%MOMM*%
%LPD*%
G01*
G04 APERTURE LIST*
%ADD10C,0.250000*%
%ADD11C,0.300000*%
%ADD12C,0.200000*%
%ADD13C,0.120000*%
%ADD14C,0.150000*%
G04 APERTURE END LIST*
D10*
X87066428Y-64063571D02*
X87209285Y-64111190D01*
X87256904Y-64158809D01*
X87304523Y-64254047D01*
X87304523Y-64396904D01*
X87256904Y-64492142D01*
X87209285Y-64539761D01*
X87114047Y-64587380D01*
X86733095Y-64587380D01*
X86733095Y-63587380D01*
X87066428Y-63587380D01*
X87161666Y-63635000D01*
X87209285Y-63682619D01*
X87256904Y-63777857D01*
X87256904Y-63873095D01*
X87209285Y-63968333D01*
X87161666Y-64015952D01*
X87066428Y-64063571D01*
X86733095Y-64063571D01*
X95543857Y-54314380D02*
X95543857Y-53314380D01*
X95543857Y-54266761D02*
X95448619Y-54314380D01*
X95258142Y-54314380D01*
X95162904Y-54266761D01*
X95115285Y-54219142D01*
X95067666Y-54123904D01*
X95067666Y-53838190D01*
X95115285Y-53742952D01*
X95162904Y-53695333D01*
X95258142Y-53647714D01*
X95448619Y-53647714D01*
X95543857Y-53695333D01*
X96020047Y-54314380D02*
X96020047Y-53647714D01*
X96020047Y-53314380D02*
X95972428Y-53362000D01*
X96020047Y-53409619D01*
X96067666Y-53362000D01*
X96020047Y-53314380D01*
X96020047Y-53409619D01*
X96639095Y-54314380D02*
X96543857Y-54266761D01*
X96496238Y-54219142D01*
X96448619Y-54123904D01*
X96448619Y-53838190D01*
X96496238Y-53742952D01*
X96543857Y-53695333D01*
X96639095Y-53647714D01*
X96781952Y-53647714D01*
X96877190Y-53695333D01*
X96924809Y-53742952D01*
X96972428Y-53838190D01*
X96972428Y-54123904D01*
X96924809Y-54219142D01*
X96877190Y-54266761D01*
X96781952Y-54314380D01*
X96639095Y-54314380D01*
X97829571Y-54314380D02*
X97829571Y-53314380D01*
X97829571Y-54266761D02*
X97734333Y-54314380D01*
X97543857Y-54314380D01*
X97448619Y-54266761D01*
X97401000Y-54219142D01*
X97353380Y-54123904D01*
X97353380Y-53838190D01*
X97401000Y-53742952D01*
X97448619Y-53695333D01*
X97543857Y-53647714D01*
X97734333Y-53647714D01*
X97829571Y-53695333D01*
X98686714Y-54266761D02*
X98591476Y-54314380D01*
X98401000Y-54314380D01*
X98305761Y-54266761D01*
X98258142Y-54171523D01*
X98258142Y-53790571D01*
X98305761Y-53695333D01*
X98401000Y-53647714D01*
X98591476Y-53647714D01*
X98686714Y-53695333D01*
X98734333Y-53790571D01*
X98734333Y-53885809D01*
X98258142Y-53981047D01*
X95258142Y-55397714D02*
X95639095Y-55397714D01*
X95401000Y-56064380D02*
X95401000Y-55207238D01*
X95448619Y-55112000D01*
X95543857Y-55064380D01*
X95639095Y-55064380D01*
X96401000Y-56064380D02*
X96401000Y-55540571D01*
X96353380Y-55445333D01*
X96258142Y-55397714D01*
X96067666Y-55397714D01*
X95972428Y-55445333D01*
X96401000Y-56016761D02*
X96305761Y-56064380D01*
X96067666Y-56064380D01*
X95972428Y-56016761D01*
X95924809Y-55921523D01*
X95924809Y-55826285D01*
X95972428Y-55731047D01*
X96067666Y-55683428D01*
X96305761Y-55683428D01*
X96401000Y-55635809D01*
X97305761Y-55397714D02*
X97305761Y-56064380D01*
X96877190Y-55397714D02*
X96877190Y-55921523D01*
X96924809Y-56016761D01*
X97020047Y-56064380D01*
X97162904Y-56064380D01*
X97258142Y-56016761D01*
X97305761Y-55969142D01*
X97924809Y-56064380D02*
X97829571Y-56016761D01*
X97781952Y-55921523D01*
X97781952Y-55064380D01*
X98162904Y-55397714D02*
X98543857Y-55397714D01*
X98305761Y-55064380D02*
X98305761Y-55921523D01*
X98353380Y-56016761D01*
X98448619Y-56064380D01*
X98543857Y-56064380D01*
X95924714Y-69778571D02*
X96258047Y-69778571D01*
X96400904Y-70302380D02*
X95924714Y-70302380D01*
X95924714Y-69302380D01*
X96400904Y-69302380D01*
X99814095Y-68016380D02*
X99814095Y-67016380D01*
X100052190Y-67016380D01*
X100195047Y-67064000D01*
X100290285Y-67159238D01*
X100337904Y-67254476D01*
X100385523Y-67444952D01*
X100385523Y-67587809D01*
X100337904Y-67778285D01*
X100290285Y-67873523D01*
X100195047Y-67968761D01*
X100052190Y-68016380D01*
X99814095Y-68016380D01*
X102671523Y-65000142D02*
X102623904Y-65047761D01*
X102481047Y-65095380D01*
X102385809Y-65095380D01*
X102242952Y-65047761D01*
X102147714Y-64952523D01*
X102100095Y-64857285D01*
X102052476Y-64666809D01*
X102052476Y-64523952D01*
X102100095Y-64333476D01*
X102147714Y-64238238D01*
X102242952Y-64143000D01*
X102385809Y-64095380D01*
X102481047Y-64095380D01*
X102623904Y-64143000D01*
X102671523Y-64190619D01*
X98115428Y-58983571D02*
X98258285Y-59031190D01*
X98305904Y-59078809D01*
X98353523Y-59174047D01*
X98353523Y-59316904D01*
X98305904Y-59412142D01*
X98258285Y-59459761D01*
X98163047Y-59507380D01*
X97782095Y-59507380D01*
X97782095Y-58507380D01*
X98115428Y-58507380D01*
X98210666Y-58555000D01*
X98258285Y-58602619D01*
X98305904Y-58697857D01*
X98305904Y-58793095D01*
X98258285Y-58888333D01*
X98210666Y-58935952D01*
X98115428Y-58983571D01*
X97782095Y-58983571D01*
X99964904Y-56554666D02*
X100441095Y-56554666D01*
X99869666Y-56840380D02*
X100203000Y-55840380D01*
X100536333Y-56840380D01*
X92384571Y-69921380D02*
X92384571Y-68921380D01*
X92384571Y-69873761D02*
X92289333Y-69921380D01*
X92098857Y-69921380D01*
X92003619Y-69873761D01*
X91956000Y-69826142D01*
X91908380Y-69730904D01*
X91908380Y-69445190D01*
X91956000Y-69349952D01*
X92003619Y-69302333D01*
X92098857Y-69254714D01*
X92289333Y-69254714D01*
X92384571Y-69302333D01*
X92717904Y-69254714D02*
X93098857Y-69254714D01*
X92860761Y-69921380D02*
X92860761Y-69064238D01*
X92908380Y-68969000D01*
X93003619Y-68921380D01*
X93098857Y-68921380D01*
X92368714Y-53903571D02*
X92702047Y-53903571D01*
X92844904Y-54427380D02*
X92368714Y-54427380D01*
X92368714Y-53427380D01*
X92844904Y-53427380D01*
X89019095Y-56332380D02*
X89019095Y-55332380D01*
X89257190Y-55332380D01*
X89400047Y-55380000D01*
X89495285Y-55475238D01*
X89542904Y-55570476D01*
X89590523Y-55760952D01*
X89590523Y-55903809D01*
X89542904Y-56094285D01*
X89495285Y-56189523D01*
X89400047Y-56284761D01*
X89257190Y-56332380D01*
X89019095Y-56332380D01*
X87050523Y-59920142D02*
X87002904Y-59967761D01*
X86860047Y-60015380D01*
X86764809Y-60015380D01*
X86621952Y-59967761D01*
X86526714Y-59872523D01*
X86479095Y-59777285D01*
X86431476Y-59586809D01*
X86431476Y-59443952D01*
X86479095Y-59253476D01*
X86526714Y-59158238D01*
X86621952Y-59063000D01*
X86764809Y-59015380D01*
X86860047Y-59015380D01*
X87002904Y-59063000D01*
X87050523Y-59110619D01*
X102052428Y-59872571D02*
X102195285Y-59920190D01*
X102242904Y-59967809D01*
X102290523Y-60063047D01*
X102290523Y-60205904D01*
X102242904Y-60301142D01*
X102195285Y-60348761D01*
X102100047Y-60396380D01*
X101719095Y-60396380D01*
X101719095Y-59396380D01*
X102052428Y-59396380D01*
X102147666Y-59444000D01*
X102195285Y-59491619D01*
X102242904Y-59586857D01*
X102242904Y-59682095D01*
X102195285Y-59777333D01*
X102147666Y-59824952D01*
X102052428Y-59872571D01*
X101719095Y-59872571D01*
X88534904Y-67603666D02*
X89011095Y-67603666D01*
X88439666Y-67889380D02*
X88773000Y-66889380D01*
X89106333Y-67889380D01*
X52752904Y-53792380D02*
X52752904Y-53125714D01*
X52752904Y-52792380D02*
X52705285Y-52840000D01*
X52752904Y-52887619D01*
X52800523Y-52840000D01*
X52752904Y-52792380D01*
X52752904Y-52887619D01*
X53229095Y-53125714D02*
X53229095Y-53792380D01*
X53229095Y-53220952D02*
X53276714Y-53173333D01*
X53371952Y-53125714D01*
X53514809Y-53125714D01*
X53610047Y-53173333D01*
X53657666Y-53268571D01*
X53657666Y-53792380D01*
X54038619Y-53125714D02*
X54276714Y-53792380D01*
X54514809Y-53125714D01*
X55324333Y-53792380D02*
X55324333Y-53268571D01*
X55276714Y-53173333D01*
X55181476Y-53125714D01*
X54991000Y-53125714D01*
X54895761Y-53173333D01*
X55324333Y-53744761D02*
X55229095Y-53792380D01*
X54991000Y-53792380D01*
X54895761Y-53744761D01*
X54848142Y-53649523D01*
X54848142Y-53554285D01*
X54895761Y-53459047D01*
X54991000Y-53411428D01*
X55229095Y-53411428D01*
X55324333Y-53363809D01*
X55943380Y-53792380D02*
X55848142Y-53744761D01*
X55800523Y-53649523D01*
X55800523Y-52792380D01*
X56324333Y-53792380D02*
X56324333Y-53125714D01*
X56324333Y-52792380D02*
X56276714Y-52840000D01*
X56324333Y-52887619D01*
X56371952Y-52840000D01*
X56324333Y-52792380D01*
X56324333Y-52887619D01*
X57229095Y-53792380D02*
X57229095Y-52792380D01*
X57229095Y-53744761D02*
X57133857Y-53792380D01*
X56943380Y-53792380D01*
X56848142Y-53744761D01*
X56800523Y-53697142D01*
X56752904Y-53601904D01*
X56752904Y-53316190D01*
X56800523Y-53220952D01*
X56848142Y-53173333D01*
X56943380Y-53125714D01*
X57133857Y-53125714D01*
X57229095Y-53173333D01*
X50768285Y-54824380D02*
X50577809Y-54824380D01*
X50482571Y-54872000D01*
X50434952Y-54919619D01*
X50339714Y-55062476D01*
X50292095Y-55252952D01*
X50292095Y-55633904D01*
X50339714Y-55729142D01*
X50387333Y-55776761D01*
X50482571Y-55824380D01*
X50673047Y-55824380D01*
X50768285Y-55776761D01*
X50815904Y-55729142D01*
X50863523Y-55633904D01*
X50863523Y-55395809D01*
X50815904Y-55300571D01*
X50768285Y-55252952D01*
X50673047Y-55205333D01*
X50482571Y-55205333D01*
X50387333Y-55252952D01*
X50339714Y-55300571D01*
X50292095Y-55395809D01*
X51196857Y-54824380D02*
X51815904Y-54824380D01*
X51482571Y-55205333D01*
X51625428Y-55205333D01*
X51720666Y-55252952D01*
X51768285Y-55300571D01*
X51815904Y-55395809D01*
X51815904Y-55633904D01*
X51768285Y-55729142D01*
X51720666Y-55776761D01*
X51625428Y-55824380D01*
X51339714Y-55824380D01*
X51244476Y-55776761D01*
X51196857Y-55729142D01*
X47958476Y-58380380D02*
X48577523Y-58380380D01*
X48244190Y-58761333D01*
X48387047Y-58761333D01*
X48482285Y-58808952D01*
X48529904Y-58856571D01*
X48577523Y-58951809D01*
X48577523Y-59189904D01*
X48529904Y-59285142D01*
X48482285Y-59332761D01*
X48387047Y-59380380D01*
X48101333Y-59380380D01*
X48006095Y-59332761D01*
X47958476Y-59285142D01*
X48958476Y-58475619D02*
X49006095Y-58428000D01*
X49101333Y-58380380D01*
X49339428Y-58380380D01*
X49434666Y-58428000D01*
X49482285Y-58475619D01*
X49529904Y-58570857D01*
X49529904Y-58666095D01*
X49482285Y-58808952D01*
X48910857Y-59380380D01*
X49529904Y-59380380D01*
X48133095Y-63301619D02*
X48180714Y-63254000D01*
X48275952Y-63206380D01*
X48514047Y-63206380D01*
X48609285Y-63254000D01*
X48656904Y-63301619D01*
X48704523Y-63396857D01*
X48704523Y-63492095D01*
X48656904Y-63634952D01*
X48085476Y-64206380D01*
X48704523Y-64206380D01*
X49323571Y-63206380D02*
X49418809Y-63206380D01*
X49514047Y-63254000D01*
X49561666Y-63301619D01*
X49609285Y-63396857D01*
X49656904Y-63587333D01*
X49656904Y-63825428D01*
X49609285Y-64015904D01*
X49561666Y-64111142D01*
X49514047Y-64158761D01*
X49418809Y-64206380D01*
X49323571Y-64206380D01*
X49228333Y-64158761D01*
X49180714Y-64111142D01*
X49133095Y-64015904D01*
X49085476Y-63825428D01*
X49085476Y-63587333D01*
X49133095Y-63396857D01*
X49180714Y-63301619D01*
X49228333Y-63254000D01*
X49323571Y-63206380D01*
X50863523Y-67762380D02*
X50292095Y-67762380D01*
X50577809Y-67762380D02*
X50577809Y-66762380D01*
X50482571Y-66905238D01*
X50387333Y-67000476D01*
X50292095Y-67048095D01*
X51196857Y-66762380D02*
X51815904Y-66762380D01*
X51482571Y-67143333D01*
X51625428Y-67143333D01*
X51720666Y-67190952D01*
X51768285Y-67238571D01*
X51815904Y-67333809D01*
X51815904Y-67571904D01*
X51768285Y-67667142D01*
X51720666Y-67714761D01*
X51625428Y-67762380D01*
X51339714Y-67762380D01*
X51244476Y-67714761D01*
X51196857Y-67667142D01*
X53316285Y-69286380D02*
X53316285Y-68286380D01*
X53887714Y-69286380D01*
X53887714Y-68286380D01*
X54935333Y-69191142D02*
X54887714Y-69238761D01*
X54744857Y-69286380D01*
X54649619Y-69286380D01*
X54506761Y-69238761D01*
X54411523Y-69143523D01*
X54363904Y-69048285D01*
X54316285Y-68857809D01*
X54316285Y-68714952D01*
X54363904Y-68524476D01*
X54411523Y-68429238D01*
X54506761Y-68334000D01*
X54649619Y-68286380D01*
X54744857Y-68286380D01*
X54887714Y-68334000D01*
X54935333Y-68381619D01*
D11*
X74747571Y-74465571D02*
X74747571Y-72965571D01*
X75319000Y-72965571D01*
X75461857Y-73037000D01*
X75533285Y-73108428D01*
X75604714Y-73251285D01*
X75604714Y-73465571D01*
X75533285Y-73608428D01*
X75461857Y-73679857D01*
X75319000Y-73751285D01*
X74747571Y-73751285D01*
X76247571Y-73679857D02*
X76747571Y-73679857D01*
X76961857Y-74465571D02*
X76247571Y-74465571D01*
X76247571Y-72965571D01*
X76961857Y-72965571D01*
X75279285Y-67083714D02*
X75207857Y-67155142D01*
X74993571Y-67226571D01*
X74850714Y-67226571D01*
X74636428Y-67155142D01*
X74493571Y-67012285D01*
X74422142Y-66869428D01*
X74350714Y-66583714D01*
X74350714Y-66369428D01*
X74422142Y-66083714D01*
X74493571Y-65940857D01*
X74636428Y-65798000D01*
X74850714Y-65726571D01*
X74993571Y-65726571D01*
X75207857Y-65798000D01*
X75279285Y-65869428D01*
X75922142Y-67226571D02*
X75922142Y-65726571D01*
X76493571Y-65726571D01*
X76636428Y-65798000D01*
X76707857Y-65869428D01*
X76779285Y-66012285D01*
X76779285Y-66226571D01*
X76707857Y-66369428D01*
X76636428Y-66440857D01*
X76493571Y-66512285D01*
X75922142Y-66512285D01*
X74676142Y-59606571D02*
X74676142Y-58106571D01*
X75247571Y-58106571D01*
X75390428Y-58178000D01*
X75461857Y-58249428D01*
X75533285Y-58392285D01*
X75533285Y-58606571D01*
X75461857Y-58749428D01*
X75390428Y-58820857D01*
X75247571Y-58892285D01*
X74676142Y-58892285D01*
X76176142Y-59606571D02*
X76176142Y-58106571D01*
X76747571Y-58106571D01*
X76890428Y-58178000D01*
X76961857Y-58249428D01*
X77033285Y-58392285D01*
X77033285Y-58606571D01*
X76961857Y-58749428D01*
X76890428Y-58820857D01*
X76747571Y-58892285D01*
X76176142Y-58892285D01*
X70227714Y-52084857D02*
X70727714Y-52084857D01*
X70942000Y-52870571D02*
X70227714Y-52870571D01*
X70227714Y-51370571D01*
X70942000Y-51370571D01*
X71370571Y-51370571D02*
X71870571Y-52870571D01*
X72370571Y-51370571D01*
X72799142Y-52799142D02*
X73013428Y-52870571D01*
X73370571Y-52870571D01*
X73513428Y-52799142D01*
X73584857Y-52727714D01*
X73656285Y-52584857D01*
X73656285Y-52442000D01*
X73584857Y-52299142D01*
X73513428Y-52227714D01*
X73370571Y-52156285D01*
X73084857Y-52084857D01*
X72942000Y-52013428D01*
X72870571Y-51942000D01*
X72799142Y-51799142D01*
X72799142Y-51656285D01*
X72870571Y-51513428D01*
X72942000Y-51442000D01*
X73084857Y-51370571D01*
X73442000Y-51370571D01*
X73656285Y-51442000D01*
X74299142Y-52084857D02*
X74799142Y-52084857D01*
X75013428Y-52870571D02*
X74299142Y-52870571D01*
X74299142Y-51370571D01*
X75013428Y-51370571D01*
X76799142Y-52084857D02*
X77299142Y-52084857D01*
X77513428Y-52870571D02*
X76799142Y-52870571D01*
X76799142Y-51370571D01*
X77513428Y-51370571D01*
X78799142Y-52870571D02*
X78799142Y-52084857D01*
X78727714Y-51942000D01*
X78584857Y-51870571D01*
X78299142Y-51870571D01*
X78156285Y-51942000D01*
X78799142Y-52799142D02*
X78656285Y-52870571D01*
X78299142Y-52870571D01*
X78156285Y-52799142D01*
X78084857Y-52656285D01*
X78084857Y-52513428D01*
X78156285Y-52370571D01*
X78299142Y-52299142D01*
X78656285Y-52299142D01*
X78799142Y-52227714D01*
X79442000Y-52799142D02*
X79584857Y-52870571D01*
X79870571Y-52870571D01*
X80013428Y-52799142D01*
X80084857Y-52656285D01*
X80084857Y-52584857D01*
X80013428Y-52442000D01*
X79870571Y-52370571D01*
X79656285Y-52370571D01*
X79513428Y-52299142D01*
X79442000Y-52156285D01*
X79442000Y-52084857D01*
X79513428Y-51942000D01*
X79656285Y-51870571D01*
X79870571Y-51870571D01*
X80013428Y-51942000D01*
X80584857Y-51870571D02*
X80942000Y-52870571D01*
X81299142Y-51870571D02*
X80942000Y-52870571D01*
X80799142Y-53227714D01*
X80727714Y-53299142D01*
X80584857Y-53370571D01*
X73584857Y-53920571D02*
X74442000Y-53920571D01*
X74013428Y-55420571D02*
X74013428Y-53920571D01*
X75513428Y-55349142D02*
X75370571Y-55420571D01*
X75084857Y-55420571D01*
X74942000Y-55349142D01*
X74870571Y-55206285D01*
X74870571Y-54634857D01*
X74942000Y-54492000D01*
X75084857Y-54420571D01*
X75370571Y-54420571D01*
X75513428Y-54492000D01*
X75584857Y-54634857D01*
X75584857Y-54777714D01*
X74870571Y-54920571D01*
X76156285Y-55349142D02*
X76299142Y-55420571D01*
X76584857Y-55420571D01*
X76727714Y-55349142D01*
X76799142Y-55206285D01*
X76799142Y-55134857D01*
X76727714Y-54992000D01*
X76584857Y-54920571D01*
X76370571Y-54920571D01*
X76227714Y-54849142D01*
X76156285Y-54706285D01*
X76156285Y-54634857D01*
X76227714Y-54492000D01*
X76370571Y-54420571D01*
X76584857Y-54420571D01*
X76727714Y-54492000D01*
X77227714Y-54420571D02*
X77799142Y-54420571D01*
X77442000Y-53920571D02*
X77442000Y-55206285D01*
X77513428Y-55349142D01*
X77656285Y-55420571D01*
X77799142Y-55420571D01*
D12*
X40640000Y-40640000D02*
X110490000Y-40640000D01*
X110490000Y-40640000D02*
X110490000Y-81280000D01*
X40640000Y-40640000D02*
X40640000Y-81280000D01*
X40640000Y-81280000D02*
X110490000Y-81280000D01*
D11*
G04 #@! TO.C,SW1*
X69397000Y-61355000D02*
G75*
G03X69397000Y-61355000I-13150000J0D01*
G01*
G04 #@! TO.C,SW2*
X107652000Y-61736000D02*
G75*
G03X107652000Y-61736000I-13150000J0D01*
G01*
D13*
G04 #@! TO.C,D1*
X91560000Y-45095000D02*
X91560000Y-45225000D01*
X91560000Y-45225000D02*
X86240000Y-45225000D01*
X86240000Y-45225000D02*
X86240000Y-45095000D01*
X91560000Y-42535000D02*
X91560000Y-42405000D01*
X91560000Y-42405000D02*
X86240000Y-42405000D01*
X86240000Y-42405000D02*
X86240000Y-42535000D01*
D14*
X87630000Y-43815000D02*
X90170000Y-45085000D01*
X90170000Y-45085000D02*
X90170000Y-42545000D01*
X90170000Y-42545000D02*
X87630000Y-43815000D01*
X87630000Y-45085000D02*
X87630000Y-42545000D01*
D13*
G04 #@! TO.C,J2*
X103438000Y-45272000D02*
X103438000Y-42612000D01*
X100838000Y-45272000D02*
X103438000Y-45272000D01*
X100838000Y-42612000D02*
X103438000Y-42612000D01*
X100838000Y-45272000D02*
X100838000Y-42612000D01*
X99568000Y-45272000D02*
X98238000Y-45272000D01*
X98238000Y-45272000D02*
X98238000Y-43942000D01*
G04 #@! TO.C,R1*
X65614000Y-44802000D02*
X65614000Y-43082000D01*
X65614000Y-43082000D02*
X61894000Y-43082000D01*
X61894000Y-43082000D02*
X61894000Y-44802000D01*
X61894000Y-44802000D02*
X65614000Y-44802000D01*
X66684000Y-43942000D02*
X65614000Y-43942000D01*
X60824000Y-43942000D02*
X61894000Y-43942000D01*
G04 #@! TO.C,R2*
X54184000Y-44802000D02*
X54184000Y-43082000D01*
X54184000Y-43082000D02*
X50464000Y-43082000D01*
X50464000Y-43082000D02*
X50464000Y-44802000D01*
X50464000Y-44802000D02*
X54184000Y-44802000D01*
X55254000Y-43942000D02*
X54184000Y-43942000D01*
X49394000Y-43942000D02*
X50464000Y-43942000D01*
G04 #@! TO.C,R3*
X96692000Y-77499000D02*
X96692000Y-79219000D01*
X96692000Y-79219000D02*
X100412000Y-79219000D01*
X100412000Y-79219000D02*
X100412000Y-77499000D01*
X100412000Y-77499000D02*
X96692000Y-77499000D01*
X95622000Y-78359000D02*
X96692000Y-78359000D01*
X101482000Y-78359000D02*
X100412000Y-78359000D01*
G04 #@! TO.C,R4*
X73016000Y-47498000D02*
X74086000Y-47498000D01*
X78876000Y-47498000D02*
X77806000Y-47498000D01*
X74086000Y-48358000D02*
X77806000Y-48358000D01*
X74086000Y-46638000D02*
X74086000Y-48358000D01*
X77806000Y-46638000D02*
X74086000Y-46638000D01*
X77806000Y-48358000D02*
X77806000Y-46638000D01*
G04 #@! TO.C,R5*
X54565000Y-79219000D02*
X54565000Y-77499000D01*
X54565000Y-77499000D02*
X50845000Y-77499000D01*
X50845000Y-77499000D02*
X50845000Y-79219000D01*
X50845000Y-79219000D02*
X54565000Y-79219000D01*
X55635000Y-78359000D02*
X54565000Y-78359000D01*
X49775000Y-78359000D02*
X50845000Y-78359000D01*
G04 #@! TO.C,R6*
X79003000Y-43815000D02*
X77933000Y-43815000D01*
X73143000Y-43815000D02*
X74213000Y-43815000D01*
X77933000Y-42955000D02*
X74213000Y-42955000D01*
X77933000Y-44675000D02*
X77933000Y-42955000D01*
X74213000Y-44675000D02*
X77933000Y-44675000D01*
X74213000Y-42955000D02*
X74213000Y-44675000D01*
G04 #@! TO.C,R7*
X90687000Y-78359000D02*
X89617000Y-78359000D01*
X84827000Y-78359000D02*
X85897000Y-78359000D01*
X89617000Y-77499000D02*
X85897000Y-77499000D01*
X89617000Y-79219000D02*
X89617000Y-77499000D01*
X85897000Y-79219000D02*
X89617000Y-79219000D01*
X85897000Y-77499000D02*
X85897000Y-79219000D01*
G04 #@! TO.C,R8*
X62602000Y-78232000D02*
X63672000Y-78232000D01*
X68462000Y-78232000D02*
X67392000Y-78232000D01*
X63672000Y-79092000D02*
X67392000Y-79092000D01*
X63672000Y-77372000D02*
X63672000Y-79092000D01*
X67392000Y-77372000D02*
X63672000Y-77372000D01*
X67392000Y-79092000D02*
X67392000Y-77372000D01*
G04 #@! TO.C,SW1*
D12*
X52705476Y-61666380D02*
X52705476Y-60666380D01*
X53086428Y-60666380D01*
X53181666Y-60714000D01*
X53229285Y-60761619D01*
X53276904Y-60856857D01*
X53276904Y-60999714D01*
X53229285Y-61094952D01*
X53181666Y-61142571D01*
X53086428Y-61190190D01*
X52705476Y-61190190D01*
X53705476Y-61666380D02*
X53705476Y-60666380D01*
X54086428Y-60666380D01*
X54181666Y-60714000D01*
X54229285Y-60761619D01*
X54276904Y-60856857D01*
X54276904Y-60999714D01*
X54229285Y-61094952D01*
X54181666Y-61142571D01*
X54086428Y-61190190D01*
X53705476Y-61190190D01*
X55895952Y-61618761D02*
X55800714Y-61666380D01*
X55610238Y-61666380D01*
X55515000Y-61618761D01*
X55467380Y-61571142D01*
X55419761Y-61475904D01*
X55419761Y-61190190D01*
X55467380Y-61094952D01*
X55515000Y-61047333D01*
X55610238Y-60999714D01*
X55800714Y-60999714D01*
X55895952Y-61047333D01*
X56753095Y-60999714D02*
X56753095Y-61666380D01*
X56324523Y-60999714D02*
X56324523Y-61523523D01*
X56372142Y-61618761D01*
X56467380Y-61666380D01*
X56610238Y-61666380D01*
X56705476Y-61618761D01*
X56753095Y-61571142D01*
X57229285Y-61666380D02*
X57229285Y-60999714D01*
X57229285Y-61190190D02*
X57276904Y-61094952D01*
X57324523Y-61047333D01*
X57419761Y-60999714D01*
X57515000Y-60999714D01*
X57848333Y-61666380D02*
X57848333Y-60999714D01*
X57848333Y-61190190D02*
X57895952Y-61094952D01*
X57943571Y-61047333D01*
X58038809Y-60999714D01*
X58134047Y-60999714D01*
X58848333Y-61618761D02*
X58753095Y-61666380D01*
X58562619Y-61666380D01*
X58467380Y-61618761D01*
X58419761Y-61523523D01*
X58419761Y-61142571D01*
X58467380Y-61047333D01*
X58562619Y-60999714D01*
X58753095Y-60999714D01*
X58848333Y-61047333D01*
X58895952Y-61142571D01*
X58895952Y-61237809D01*
X58419761Y-61333047D01*
X59324523Y-60999714D02*
X59324523Y-61666380D01*
X59324523Y-61094952D02*
X59372142Y-61047333D01*
X59467380Y-60999714D01*
X59610238Y-60999714D01*
X59705476Y-61047333D01*
X59753095Y-61142571D01*
X59753095Y-61666380D01*
X60086428Y-60999714D02*
X60467380Y-60999714D01*
X60229285Y-60666380D02*
X60229285Y-61523523D01*
X60276904Y-61618761D01*
X60372142Y-61666380D01*
X60467380Y-61666380D01*
G04 #@! TO.C,SW2*
X92440428Y-62079142D02*
X92392809Y-62126761D01*
X92249952Y-62174380D01*
X92154714Y-62174380D01*
X92011857Y-62126761D01*
X91916619Y-62031523D01*
X91869000Y-61936285D01*
X91821380Y-61745809D01*
X91821380Y-61602952D01*
X91869000Y-61412476D01*
X91916619Y-61317238D01*
X92011857Y-61222000D01*
X92154714Y-61174380D01*
X92249952Y-61174380D01*
X92392809Y-61222000D01*
X92440428Y-61269619D01*
X92869000Y-62174380D02*
X92869000Y-61174380D01*
X93249952Y-61174380D01*
X93345190Y-61222000D01*
X93392809Y-61269619D01*
X93440428Y-61364857D01*
X93440428Y-61507714D01*
X93392809Y-61602952D01*
X93345190Y-61650571D01*
X93249952Y-61698190D01*
X92869000Y-61698190D01*
X94583285Y-62126761D02*
X94678523Y-62174380D01*
X94869000Y-62174380D01*
X94964238Y-62126761D01*
X95011857Y-62031523D01*
X95011857Y-61983904D01*
X94964238Y-61888666D01*
X94869000Y-61841047D01*
X94726142Y-61841047D01*
X94630904Y-61793428D01*
X94583285Y-61698190D01*
X94583285Y-61650571D01*
X94630904Y-61555333D01*
X94726142Y-61507714D01*
X94869000Y-61507714D01*
X94964238Y-61555333D01*
X95297571Y-61507714D02*
X95678523Y-61507714D01*
X95440428Y-61174380D02*
X95440428Y-62031523D01*
X95488047Y-62126761D01*
X95583285Y-62174380D01*
X95678523Y-62174380D01*
X96440428Y-62174380D02*
X96440428Y-61650571D01*
X96392809Y-61555333D01*
X96297571Y-61507714D01*
X96107095Y-61507714D01*
X96011857Y-61555333D01*
X96440428Y-62126761D02*
X96345190Y-62174380D01*
X96107095Y-62174380D01*
X96011857Y-62126761D01*
X95964238Y-62031523D01*
X95964238Y-61936285D01*
X96011857Y-61841047D01*
X96107095Y-61793428D01*
X96345190Y-61793428D01*
X96440428Y-61745809D01*
X96773761Y-61507714D02*
X97154714Y-61507714D01*
X96916619Y-61174380D02*
X96916619Y-62031523D01*
X96964238Y-62126761D01*
X97059476Y-62174380D01*
X97154714Y-62174380D01*
X97869000Y-62126761D02*
X97773761Y-62174380D01*
X97583285Y-62174380D01*
X97488047Y-62126761D01*
X97440428Y-62031523D01*
X97440428Y-61650571D01*
X97488047Y-61555333D01*
X97583285Y-61507714D01*
X97773761Y-61507714D01*
X97869000Y-61555333D01*
X97916619Y-61650571D01*
X97916619Y-61745809D01*
X97440428Y-61841047D01*
G04 #@! TO.C,D1*
D14*
X95019904Y-43378380D02*
X95019904Y-42378380D01*
X95258000Y-42378380D01*
X95400857Y-42426000D01*
X95496095Y-42521238D01*
X95543714Y-42616476D01*
X95591333Y-42806952D01*
X95591333Y-42949809D01*
X95543714Y-43140285D01*
X95496095Y-43235523D01*
X95400857Y-43330761D01*
X95258000Y-43378380D01*
X95019904Y-43378380D01*
X96543714Y-43378380D02*
X95972285Y-43378380D01*
X96258000Y-43378380D02*
X96258000Y-42378380D01*
X96162761Y-42521238D01*
X96067523Y-42616476D01*
X95972285Y-42664095D01*
X86630142Y-46934380D02*
X86058714Y-46934380D01*
X86344428Y-46934380D02*
X86344428Y-45934380D01*
X86249190Y-46077238D01*
X86153952Y-46172476D01*
X86058714Y-46220095D01*
X87058714Y-46934380D02*
X87058714Y-45934380D01*
X87630142Y-46934380D01*
X87630142Y-45934380D01*
X88534904Y-46267714D02*
X88534904Y-46934380D01*
X88296809Y-45886761D02*
X88058714Y-46601047D01*
X88677761Y-46601047D01*
X89249190Y-45934380D02*
X89344428Y-45934380D01*
X89439666Y-45982000D01*
X89487285Y-46029619D01*
X89534904Y-46124857D01*
X89582523Y-46315333D01*
X89582523Y-46553428D01*
X89534904Y-46743904D01*
X89487285Y-46839142D01*
X89439666Y-46886761D01*
X89344428Y-46934380D01*
X89249190Y-46934380D01*
X89153952Y-46886761D01*
X89106333Y-46839142D01*
X89058714Y-46743904D01*
X89011095Y-46553428D01*
X89011095Y-46315333D01*
X89058714Y-46124857D01*
X89106333Y-46029619D01*
X89153952Y-45982000D01*
X89249190Y-45934380D01*
X90201571Y-45934380D02*
X90296809Y-45934380D01*
X90392047Y-45982000D01*
X90439666Y-46029619D01*
X90487285Y-46124857D01*
X90534904Y-46315333D01*
X90534904Y-46553428D01*
X90487285Y-46743904D01*
X90439666Y-46839142D01*
X90392047Y-46886761D01*
X90296809Y-46934380D01*
X90201571Y-46934380D01*
X90106333Y-46886761D01*
X90058714Y-46839142D01*
X90011095Y-46743904D01*
X89963476Y-46553428D01*
X89963476Y-46315333D01*
X90011095Y-46124857D01*
X90058714Y-46029619D01*
X90106333Y-45982000D01*
X90201571Y-45934380D01*
X90868238Y-45934380D02*
X91534904Y-45934380D01*
X91106333Y-46934380D01*
G04 #@! TO.C,J2*
X98671333Y-46966142D02*
X98623714Y-47013761D01*
X98480857Y-47061380D01*
X98385619Y-47061380D01*
X98242761Y-47013761D01*
X98147523Y-46918523D01*
X98099904Y-46823285D01*
X98052285Y-46632809D01*
X98052285Y-46489952D01*
X98099904Y-46299476D01*
X98147523Y-46204238D01*
X98242761Y-46109000D01*
X98385619Y-46061380D01*
X98480857Y-46061380D01*
X98623714Y-46109000D01*
X98671333Y-46156619D01*
X99099904Y-47061380D02*
X99099904Y-46061380D01*
X99480857Y-46061380D01*
X99576095Y-46109000D01*
X99623714Y-46156619D01*
X99671333Y-46251857D01*
X99671333Y-46394714D01*
X99623714Y-46489952D01*
X99576095Y-46537571D01*
X99480857Y-46585190D01*
X99099904Y-46585190D01*
X101290380Y-47061380D02*
X101290380Y-46061380D01*
X101290380Y-47013761D02*
X101195142Y-47061380D01*
X101004666Y-47061380D01*
X100909428Y-47013761D01*
X100861809Y-46966142D01*
X100814190Y-46870904D01*
X100814190Y-46585190D01*
X100861809Y-46489952D01*
X100909428Y-46442333D01*
X101004666Y-46394714D01*
X101195142Y-46394714D01*
X101290380Y-46442333D01*
X101766571Y-47061380D02*
X101766571Y-46394714D01*
X101766571Y-46061380D02*
X101718952Y-46109000D01*
X101766571Y-46156619D01*
X101814190Y-46109000D01*
X101766571Y-46061380D01*
X101766571Y-46156619D01*
X102671333Y-47061380D02*
X102671333Y-46537571D01*
X102623714Y-46442333D01*
X102528476Y-46394714D01*
X102338000Y-46394714D01*
X102242761Y-46442333D01*
X102671333Y-47013761D02*
X102576095Y-47061380D01*
X102338000Y-47061380D01*
X102242761Y-47013761D01*
X102195142Y-46918523D01*
X102195142Y-46823285D01*
X102242761Y-46728047D01*
X102338000Y-46680428D01*
X102576095Y-46680428D01*
X102671333Y-46632809D01*
X103576095Y-46394714D02*
X103576095Y-47204238D01*
X103528476Y-47299476D01*
X103480857Y-47347095D01*
X103385619Y-47394714D01*
X103242761Y-47394714D01*
X103147523Y-47347095D01*
X103576095Y-47013761D02*
X103480857Y-47061380D01*
X103290380Y-47061380D01*
X103195142Y-47013761D01*
X103147523Y-46966142D01*
X103099904Y-46870904D01*
X103099904Y-46585190D01*
X103147523Y-46489952D01*
X103195142Y-46442333D01*
X103290380Y-46394714D01*
X103480857Y-46394714D01*
X103576095Y-46442333D01*
G04 #@! TO.C,R1*
X63587333Y-42489380D02*
X63254000Y-42013190D01*
X63015904Y-42489380D02*
X63015904Y-41489380D01*
X63396857Y-41489380D01*
X63492095Y-41537000D01*
X63539714Y-41584619D01*
X63587333Y-41679857D01*
X63587333Y-41822714D01*
X63539714Y-41917952D01*
X63492095Y-41965571D01*
X63396857Y-42013190D01*
X63015904Y-42013190D01*
X64539714Y-42489380D02*
X63968285Y-42489380D01*
X64254000Y-42489380D02*
X64254000Y-41489380D01*
X64158761Y-41632238D01*
X64063523Y-41727476D01*
X63968285Y-41775095D01*
X62539714Y-43394380D02*
X63158761Y-43394380D01*
X62825428Y-43775333D01*
X62968285Y-43775333D01*
X63063523Y-43822952D01*
X63111142Y-43870571D01*
X63158761Y-43965809D01*
X63158761Y-44203904D01*
X63111142Y-44299142D01*
X63063523Y-44346761D01*
X62968285Y-44394380D01*
X62682571Y-44394380D01*
X62587333Y-44346761D01*
X62539714Y-44299142D01*
X63587333Y-44394380D02*
X63587333Y-43394380D01*
X63682571Y-44013428D02*
X63968285Y-44394380D01*
X63968285Y-43727714D02*
X63587333Y-44108666D01*
X64301619Y-43394380D02*
X64920666Y-43394380D01*
X64587333Y-43775333D01*
X64730190Y-43775333D01*
X64825428Y-43822952D01*
X64873047Y-43870571D01*
X64920666Y-43965809D01*
X64920666Y-44203904D01*
X64873047Y-44299142D01*
X64825428Y-44346761D01*
X64730190Y-44394380D01*
X64444476Y-44394380D01*
X64349238Y-44346761D01*
X64301619Y-44299142D01*
G04 #@! TO.C,R2*
X51903333Y-46299380D02*
X51570000Y-45823190D01*
X51331904Y-46299380D02*
X51331904Y-45299380D01*
X51712857Y-45299380D01*
X51808095Y-45347000D01*
X51855714Y-45394619D01*
X51903333Y-45489857D01*
X51903333Y-45632714D01*
X51855714Y-45727952D01*
X51808095Y-45775571D01*
X51712857Y-45823190D01*
X51331904Y-45823190D01*
X52284285Y-45394619D02*
X52331904Y-45347000D01*
X52427142Y-45299380D01*
X52665238Y-45299380D01*
X52760476Y-45347000D01*
X52808095Y-45394619D01*
X52855714Y-45489857D01*
X52855714Y-45585095D01*
X52808095Y-45727952D01*
X52236666Y-46299380D01*
X52855714Y-46299380D01*
X51657333Y-44394380D02*
X51085904Y-44394380D01*
X51371619Y-44394380D02*
X51371619Y-43394380D01*
X51276380Y-43537238D01*
X51181142Y-43632476D01*
X51085904Y-43680095D01*
X52276380Y-43394380D02*
X52371619Y-43394380D01*
X52466857Y-43442000D01*
X52514476Y-43489619D01*
X52562095Y-43584857D01*
X52609714Y-43775333D01*
X52609714Y-44013428D01*
X52562095Y-44203904D01*
X52514476Y-44299142D01*
X52466857Y-44346761D01*
X52371619Y-44394380D01*
X52276380Y-44394380D01*
X52181142Y-44346761D01*
X52133523Y-44299142D01*
X52085904Y-44203904D01*
X52038285Y-44013428D01*
X52038285Y-43775333D01*
X52085904Y-43584857D01*
X52133523Y-43489619D01*
X52181142Y-43442000D01*
X52276380Y-43394380D01*
X53228761Y-43394380D02*
X53324000Y-43394380D01*
X53419238Y-43442000D01*
X53466857Y-43489619D01*
X53514476Y-43584857D01*
X53562095Y-43775333D01*
X53562095Y-44013428D01*
X53514476Y-44203904D01*
X53466857Y-44299142D01*
X53419238Y-44346761D01*
X53324000Y-44394380D01*
X53228761Y-44394380D01*
X53133523Y-44346761D01*
X53085904Y-44299142D01*
X53038285Y-44203904D01*
X52990666Y-44013428D01*
X52990666Y-43775333D01*
X53038285Y-43584857D01*
X53085904Y-43489619D01*
X53133523Y-43442000D01*
X53228761Y-43394380D01*
G04 #@! TO.C,R3*
X98131333Y-76906380D02*
X97798000Y-76430190D01*
X97559904Y-76906380D02*
X97559904Y-75906380D01*
X97940857Y-75906380D01*
X98036095Y-75954000D01*
X98083714Y-76001619D01*
X98131333Y-76096857D01*
X98131333Y-76239714D01*
X98083714Y-76334952D01*
X98036095Y-76382571D01*
X97940857Y-76430190D01*
X97559904Y-76430190D01*
X98464666Y-75906380D02*
X99083714Y-75906380D01*
X98750380Y-76287333D01*
X98893238Y-76287333D01*
X98988476Y-76334952D01*
X99036095Y-76382571D01*
X99083714Y-76477809D01*
X99083714Y-76715904D01*
X99036095Y-76811142D01*
X98988476Y-76858761D01*
X98893238Y-76906380D01*
X98607523Y-76906380D01*
X98512285Y-76858761D01*
X98464666Y-76811142D01*
X97313904Y-78033619D02*
X97361523Y-77986000D01*
X97456761Y-77938380D01*
X97694857Y-77938380D01*
X97790095Y-77986000D01*
X97837714Y-78033619D01*
X97885333Y-78128857D01*
X97885333Y-78224095D01*
X97837714Y-78366952D01*
X97266285Y-78938380D01*
X97885333Y-78938380D01*
X98218666Y-77938380D02*
X98885333Y-77938380D01*
X98456761Y-78938380D01*
X99456761Y-77938380D02*
X99552000Y-77938380D01*
X99647238Y-77986000D01*
X99694857Y-78033619D01*
X99742476Y-78128857D01*
X99790095Y-78319333D01*
X99790095Y-78557428D01*
X99742476Y-78747904D01*
X99694857Y-78843142D01*
X99647238Y-78890761D01*
X99552000Y-78938380D01*
X99456761Y-78938380D01*
X99361523Y-78890761D01*
X99313904Y-78843142D01*
X99266285Y-78747904D01*
X99218666Y-78557428D01*
X99218666Y-78319333D01*
X99266285Y-78128857D01*
X99313904Y-78033619D01*
X99361523Y-77986000D01*
X99456761Y-77938380D01*
G04 #@! TO.C,R4*
X75525333Y-46299380D02*
X75192000Y-45823190D01*
X74953904Y-46299380D02*
X74953904Y-45299380D01*
X75334857Y-45299380D01*
X75430095Y-45347000D01*
X75477714Y-45394619D01*
X75525333Y-45489857D01*
X75525333Y-45632714D01*
X75477714Y-45727952D01*
X75430095Y-45775571D01*
X75334857Y-45823190D01*
X74953904Y-45823190D01*
X76382476Y-45632714D02*
X76382476Y-46299380D01*
X76144380Y-45251761D02*
X75906285Y-45966047D01*
X76525333Y-45966047D01*
X74707904Y-47045619D02*
X74755523Y-46998000D01*
X74850761Y-46950380D01*
X75088857Y-46950380D01*
X75184095Y-46998000D01*
X75231714Y-47045619D01*
X75279333Y-47140857D01*
X75279333Y-47236095D01*
X75231714Y-47378952D01*
X74660285Y-47950380D01*
X75279333Y-47950380D01*
X75660285Y-47045619D02*
X75707904Y-46998000D01*
X75803142Y-46950380D01*
X76041238Y-46950380D01*
X76136476Y-46998000D01*
X76184095Y-47045619D01*
X76231714Y-47140857D01*
X76231714Y-47236095D01*
X76184095Y-47378952D01*
X75612666Y-47950380D01*
X76231714Y-47950380D01*
X76850761Y-46950380D02*
X76946000Y-46950380D01*
X77041238Y-46998000D01*
X77088857Y-47045619D01*
X77136476Y-47140857D01*
X77184095Y-47331333D01*
X77184095Y-47569428D01*
X77136476Y-47759904D01*
X77088857Y-47855142D01*
X77041238Y-47902761D01*
X76946000Y-47950380D01*
X76850761Y-47950380D01*
X76755523Y-47902761D01*
X76707904Y-47855142D01*
X76660285Y-47759904D01*
X76612666Y-47569428D01*
X76612666Y-47331333D01*
X76660285Y-47140857D01*
X76707904Y-47045619D01*
X76755523Y-46998000D01*
X76850761Y-46950380D01*
G04 #@! TO.C,R5*
X52411333Y-76906380D02*
X52078000Y-76430190D01*
X51839904Y-76906380D02*
X51839904Y-75906380D01*
X52220857Y-75906380D01*
X52316095Y-75954000D01*
X52363714Y-76001619D01*
X52411333Y-76096857D01*
X52411333Y-76239714D01*
X52363714Y-76334952D01*
X52316095Y-76382571D01*
X52220857Y-76430190D01*
X51839904Y-76430190D01*
X53316095Y-75906380D02*
X52839904Y-75906380D01*
X52792285Y-76382571D01*
X52839904Y-76334952D01*
X52935142Y-76287333D01*
X53173238Y-76287333D01*
X53268476Y-76334952D01*
X53316095Y-76382571D01*
X53363714Y-76477809D01*
X53363714Y-76715904D01*
X53316095Y-76811142D01*
X53268476Y-76858761D01*
X53173238Y-76906380D01*
X52935142Y-76906380D01*
X52839904Y-76858761D01*
X52792285Y-76811142D01*
X51943095Y-77811380D02*
X51752619Y-77811380D01*
X51657380Y-77859000D01*
X51609761Y-77906619D01*
X51514523Y-78049476D01*
X51466904Y-78239952D01*
X51466904Y-78620904D01*
X51514523Y-78716142D01*
X51562142Y-78763761D01*
X51657380Y-78811380D01*
X51847857Y-78811380D01*
X51943095Y-78763761D01*
X51990714Y-78716142D01*
X52038333Y-78620904D01*
X52038333Y-78382809D01*
X51990714Y-78287571D01*
X51943095Y-78239952D01*
X51847857Y-78192333D01*
X51657380Y-78192333D01*
X51562142Y-78239952D01*
X51514523Y-78287571D01*
X51466904Y-78382809D01*
X52609761Y-78239952D02*
X52514523Y-78192333D01*
X52466904Y-78144714D01*
X52419285Y-78049476D01*
X52419285Y-78001857D01*
X52466904Y-77906619D01*
X52514523Y-77859000D01*
X52609761Y-77811380D01*
X52800238Y-77811380D01*
X52895476Y-77859000D01*
X52943095Y-77906619D01*
X52990714Y-78001857D01*
X52990714Y-78049476D01*
X52943095Y-78144714D01*
X52895476Y-78192333D01*
X52800238Y-78239952D01*
X52609761Y-78239952D01*
X52514523Y-78287571D01*
X52466904Y-78335190D01*
X52419285Y-78430428D01*
X52419285Y-78620904D01*
X52466904Y-78716142D01*
X52514523Y-78763761D01*
X52609761Y-78811380D01*
X52800238Y-78811380D01*
X52895476Y-78763761D01*
X52943095Y-78716142D01*
X52990714Y-78620904D01*
X52990714Y-78430428D01*
X52943095Y-78335190D01*
X52895476Y-78287571D01*
X52800238Y-78239952D01*
X53609761Y-77811380D02*
X53705000Y-77811380D01*
X53800238Y-77859000D01*
X53847857Y-77906619D01*
X53895476Y-78001857D01*
X53943095Y-78192333D01*
X53943095Y-78430428D01*
X53895476Y-78620904D01*
X53847857Y-78716142D01*
X53800238Y-78763761D01*
X53705000Y-78811380D01*
X53609761Y-78811380D01*
X53514523Y-78763761D01*
X53466904Y-78716142D01*
X53419285Y-78620904D01*
X53371666Y-78430428D01*
X53371666Y-78192333D01*
X53419285Y-78001857D01*
X53466904Y-77906619D01*
X53514523Y-77859000D01*
X53609761Y-77811380D01*
G04 #@! TO.C,R6*
X76160333Y-42489380D02*
X75827000Y-42013190D01*
X75588904Y-42489380D02*
X75588904Y-41489380D01*
X75969857Y-41489380D01*
X76065095Y-41537000D01*
X76112714Y-41584619D01*
X76160333Y-41679857D01*
X76160333Y-41822714D01*
X76112714Y-41917952D01*
X76065095Y-41965571D01*
X75969857Y-42013190D01*
X75588904Y-42013190D01*
X77017476Y-41489380D02*
X76827000Y-41489380D01*
X76731761Y-41537000D01*
X76684142Y-41584619D01*
X76588904Y-41727476D01*
X76541285Y-41917952D01*
X76541285Y-42298904D01*
X76588904Y-42394142D01*
X76636523Y-42441761D01*
X76731761Y-42489380D01*
X76922238Y-42489380D01*
X77017476Y-42441761D01*
X77065095Y-42394142D01*
X77112714Y-42298904D01*
X77112714Y-42060809D01*
X77065095Y-41965571D01*
X77017476Y-41917952D01*
X76922238Y-41870333D01*
X76731761Y-41870333D01*
X76636523Y-41917952D01*
X76588904Y-41965571D01*
X76541285Y-42060809D01*
X75033333Y-43362619D02*
X75080952Y-43315000D01*
X75176190Y-43267380D01*
X75414285Y-43267380D01*
X75509523Y-43315000D01*
X75557142Y-43362619D01*
X75604761Y-43457857D01*
X75604761Y-43553095D01*
X75557142Y-43695952D01*
X74985714Y-44267380D01*
X75604761Y-44267380D01*
X76033333Y-44267380D02*
X76033333Y-43267380D01*
X76128571Y-43886428D02*
X76414285Y-44267380D01*
X76414285Y-43600714D02*
X76033333Y-43981666D01*
X76747619Y-43267380D02*
X77414285Y-43267380D01*
X76985714Y-44267380D01*
G04 #@! TO.C,R7*
X87590333Y-76906380D02*
X87257000Y-76430190D01*
X87018904Y-76906380D02*
X87018904Y-75906380D01*
X87399857Y-75906380D01*
X87495095Y-75954000D01*
X87542714Y-76001619D01*
X87590333Y-76096857D01*
X87590333Y-76239714D01*
X87542714Y-76334952D01*
X87495095Y-76382571D01*
X87399857Y-76430190D01*
X87018904Y-76430190D01*
X87923666Y-75906380D02*
X88590333Y-75906380D01*
X88161761Y-76906380D01*
X87288761Y-78811380D02*
X86717333Y-78811380D01*
X87003047Y-78811380D02*
X87003047Y-77811380D01*
X86907809Y-77954238D01*
X86812571Y-78049476D01*
X86717333Y-78097095D01*
X87717333Y-78811380D02*
X87717333Y-77811380D01*
X87812571Y-78430428D02*
X88098285Y-78811380D01*
X88098285Y-78144714D02*
X87717333Y-78525666D01*
X88479238Y-77906619D02*
X88526857Y-77859000D01*
X88622095Y-77811380D01*
X88860190Y-77811380D01*
X88955428Y-77859000D01*
X89003047Y-77906619D01*
X89050666Y-78001857D01*
X89050666Y-78097095D01*
X89003047Y-78239952D01*
X88431619Y-78811380D01*
X89050666Y-78811380D01*
G04 #@! TO.C,R8*
X65619333Y-76525380D02*
X65286000Y-76049190D01*
X65047904Y-76525380D02*
X65047904Y-75525380D01*
X65428857Y-75525380D01*
X65524095Y-75573000D01*
X65571714Y-75620619D01*
X65619333Y-75715857D01*
X65619333Y-75858714D01*
X65571714Y-75953952D01*
X65524095Y-76001571D01*
X65428857Y-76049190D01*
X65047904Y-76049190D01*
X66190761Y-75953952D02*
X66095523Y-75906333D01*
X66047904Y-75858714D01*
X66000285Y-75763476D01*
X66000285Y-75715857D01*
X66047904Y-75620619D01*
X66095523Y-75573000D01*
X66190761Y-75525380D01*
X66381238Y-75525380D01*
X66476476Y-75573000D01*
X66524095Y-75620619D01*
X66571714Y-75715857D01*
X66571714Y-75763476D01*
X66524095Y-75858714D01*
X66476476Y-75906333D01*
X66381238Y-75953952D01*
X66190761Y-75953952D01*
X66095523Y-76001571D01*
X66047904Y-76049190D01*
X66000285Y-76144428D01*
X66000285Y-76334904D01*
X66047904Y-76430142D01*
X66095523Y-76477761D01*
X66190761Y-76525380D01*
X66381238Y-76525380D01*
X66476476Y-76477761D01*
X66524095Y-76430142D01*
X66571714Y-76334904D01*
X66571714Y-76144428D01*
X66524095Y-76049190D01*
X66476476Y-76001571D01*
X66381238Y-75953952D01*
X64936761Y-78684380D02*
X64365333Y-78684380D01*
X64651047Y-78684380D02*
X64651047Y-77684380D01*
X64555809Y-77827238D01*
X64460571Y-77922476D01*
X64365333Y-77970095D01*
X65365333Y-78684380D02*
X65365333Y-77684380D01*
X65460571Y-78303428D02*
X65746285Y-78684380D01*
X65746285Y-78017714D02*
X65365333Y-78398666D01*
X66651047Y-77684380D02*
X66174857Y-77684380D01*
X66127238Y-78160571D01*
X66174857Y-78112952D01*
X66270095Y-78065333D01*
X66508190Y-78065333D01*
X66603428Y-78112952D01*
X66651047Y-78160571D01*
X66698666Y-78255809D01*
X66698666Y-78493904D01*
X66651047Y-78589142D01*
X66603428Y-78636761D01*
X66508190Y-78684380D01*
X66270095Y-78684380D01*
X66174857Y-78636761D01*
X66127238Y-78589142D01*
G04 #@! TD*
M02*
